# MagicaVoxel @ Ephtracy

# group
o 

# material
mtllib robotB.mtl
usemtl palette

# normals
vn -1 0 0
vn 1 0 0
vn 0 0 1
vn 0 0 -1
vn 0 -1 0
vn 0 1 0

# texcoords
vt 0.751953 0.5
vt 0.826172 0.5
vt 0.845703 0.5
vt 0.853516 0.5
vt 0.857422 0.5

# verts
v -0.3 0.4 0.1
v -0.3 0.4 0
v -0.3 0.5 0.1
v -0.3 0.5 0
v -0.3 0.6 0.1
v -0.3 0.6 0
v -0.2 0 0.2
v -0.2 0 0.1
v -0.2 0 0
v -0.2 0 -0.1
v -0.2 0.1 0.2
v -0.2 0.1 0.1
v -0.2 0.1 0
v -0.2 0.1 -0.1
v -0.2 0.2 0.2
v -0.2 0.2 0.1
v -0.2 0.2 0
v -0.2 0.2 -0.1
v -0.2 0.3 0.2
v -0.2 0.3 0.1
v -0.2 0.3 0
v -0.2 0.3 -0.1
v -0.2 0.4 0.1
v -0.2 0.4 0
v -0.2 0.5 0.1
v -0.2 0.5 0
v -0.2 0.6 0.2
v -0.2 0.6 0.1
v -0.2 0.6 0
v -0.2 0.6 -0.1
v -0.2 0.7 0.2
v -0.2 0.7 -0.1
v -0.2 1 0.2
v -0.2 1 -0.1
v -0.1 0.6 0.1
v -0.1 0.6 0
v -0.1 0.7 0.1
v -0.1 0.7 0
v 0.1 0 0.2
v 0.1 0 0.1
v 0.1 0 0
v 0.1 0 -0.1
v 0.1 0.1 0.2
v 0.1 0.1 0.1
v 0.1 0.1 0
v 0.1 0.1 -0.1
v 0.1 0.2 0.2
v 0.1 0.2 0.1
v 0.1 0.2 0
v 0.1 0.2 -0.1
v 0.1 0.3 0.1
v 0.1 0.3 0
v 0.1 1 0.2
v 0.1 1 0.1
v 0.1 1.2 0.2
v 0.1 1.2 0.1
v -0.1 0 0.2
v -0.1 0 0.1
v -0.1 0 0
v -0.1 0 -0.1
v -0.1 0.1 0.2
v -0.1 0.1 0.1
v -0.1 0.1 0
v -0.1 0.1 -0.1
v -0.1 0.2 0.2
v -0.1 0.2 0.1
v -0.1 0.2 0
v -0.1 0.2 -0.1
v -0.1 0.3 0.1
v -0.1 0.3 0
v 0.1 0.6 0.1
v 0.1 0.6 0
v 0.1 0.7 0.1
v 0.1 0.7 0
v 0.2 0 0.2
v 0.2 0 0.1
v 0.2 0 0
v 0.2 0 -0.1
v 0.2 0.1 0.2
v 0.2 0.1 0.1
v 0.2 0.1 0
v 0.2 0.1 -0.1
v 0.2 0.2 0.2
v 0.2 0.2 0.1
v 0.2 0.2 0
v 0.2 0.2 -0.1
v 0.2 0.3 0.2
v 0.2 0.3 0.1
v 0.2 0.3 0
v 0.2 0.3 -0.1
v 0.2 0.4 0.1
v 0.2 0.4 0
v 0.2 0.5 0.1
v 0.2 0.5 0
v 0.2 0.6 0.2
v 0.2 0.6 0.1
v 0.2 0.6 0
v 0.2 0.6 -0.1
v 0.2 0.7 0.2
v 0.2 0.7 -0.1
v 0.2 1 0.2
v 0.2 1 0.1
v 0.2 1 -0.1
v 0.2 1.2 0.2
v 0.2 1.2 0.1
v 0.3 0.4 0.1
v 0.3 0.4 0
v 0.3 0.5 0.1
v 0.3 0.5 0
v 0.3 0.6 0.1
v 0.3 0.6 0
v -0.2 0 0.2
v -0.2 0.1 0.2
v -0.2 0.2 0.2
v -0.2 0.3 0.2
v -0.2 0.6 0.2
v -0.2 0.7 0.2
v -0.2 1 0.2
v -0.1 0 0.2
v -0.1 0.1 0.2
v -0.1 0.2 0.2
v -0.1 0.8 0.2
v -0.1 0.9 0.2
v 0.1 0 0.2
v 0.1 0.1 0.2
v 0.1 0.2 0.2
v 0.1 0.8 0.2
v 0.1 0.9 0.2
v 0.1 1 0.2
v 0.1 1.2 0.2
v 0.2 0 0.2
v 0.2 0.1 0.2
v 0.2 0.2 0.2
v 0.2 0.3 0.2
v 0.2 0.6 0.2
v 0.2 0.7 0.2
v 0.2 1 0.2
v 0.2 1.2 0.2
v -0.3 0.4 0.1
v -0.3 0.5 0.1
v -0.3 0.6 0.1
v -0.2 0.2 0.1
v -0.2 0.3 0.1
v -0.2 0.4 0.1
v -0.2 0.5 0.1
v -0.2 0.6 0.1
v -0.1 0.2 0.1
v -0.1 0.3 0.1
v -0.1 0.6 0.1
v -0.1 0.7 0.1
v 0.1 0.2 0.1
v 0.1 0.3 0.1
v 0.1 0.6 0.1
v 0.1 0.7 0.1
v 0.2 0.2 0.1
v 0.2 0.3 0.1
v 0.2 0.4 0.1
v 0.2 0.5 0.1
v 0.2 0.6 0.1
v 0.3 0.4 0.1
v 0.3 0.5 0.1
v 0.3 0.6 0.1
v 0.1 1 0.1
v 0.1 1.2 0.1
v 0.2 1 0.1
v 0.2 1.2 0.1
v -0.3 0.4 0
v -0.3 0.5 0
v -0.3 0.6 0
v -0.2 0.2 0
v -0.2 0.3 0
v -0.2 0.4 0
v -0.2 0.5 0
v -0.2 0.6 0
v -0.1 0.2 0
v -0.1 0.3 0
v -0.1 0.6 0
v -0.1 0.7 0
v 0.1 0.2 0
v 0.1 0.3 0
v 0.1 0.6 0
v 0.1 0.7 0
v 0.2 0.2 0
v 0.2 0.3 0
v 0.2 0.4 0
v 0.2 0.5 0
v 0.2 0.6 0
v 0.3 0.4 0
v 0.3 0.5 0
v 0.3 0.6 0
v -0.2 0 -0.1
v -0.2 0.1 -0.1
v -0.2 0.2 -0.1
v -0.2 0.3 -0.1
v -0.2 0.6 -0.1
v -0.2 0.7 -0.1
v -0.2 1 -0.1
v -0.1 0 -0.1
v -0.1 0.1 -0.1
v -0.1 0.2 -0.1
v 0.1 0 -0.1
v 0.1 0.1 -0.1
v 0.1 0.2 -0.1
v 0.2 0 -0.1
v 0.2 0.1 -0.1
v 0.2 0.2 -0.1
v 0.2 0.3 -0.1
v 0.2 0.6 -0.1
v 0.2 0.7 -0.1
v 0.2 1 -0.1
v -0.2 0 0.2
v -0.1 0 0.2
v 0.1 0 0.2
v 0.2 0 0.2
v -0.2 0 0.1
v -0.1 0 0.1
v 0.1 0 0.1
v 0.2 0 0.1
v -0.2 0 0
v -0.1 0 0
v 0.1 0 0
v 0.2 0 0
v -0.2 0 -0.1
v -0.1 0 -0.1
v 0.1 0 -0.1
v 0.2 0 -0.1
v -0.2 0.3 0.2
v 0.2 0.3 0.2
v -0.2 0.3 0.1
v -0.1 0.3 0.1
v 0.1 0.3 0.1
v 0.2 0.3 0.1
v -0.2 0.3 0
v -0.1 0.3 0
v 0.1 0.3 0
v 0.2 0.3 0
v -0.2 0.3 -0.1
v 0.2 0.3 -0.1
v -0.3 0.4 0.1
v -0.2 0.4 0.1
v 0.2 0.4 0.1
v 0.3 0.4 0.1
v -0.3 0.4 0
v -0.2 0.4 0
v 0.2 0.4 0
v 0.3 0.4 0
v -0.2 0.7 0.2
v 0.2 0.7 0.2
v -0.1 0.7 0.1
v 0.1 0.7 0.1
v -0.1 0.7 0
v 0.1 0.7 0
v -0.2 0.7 -0.1
v 0.2 0.7 -0.1
v -0.2 0.2 0.2
v -0.1 0.2 0.2
v 0.1 0.2 0.2
v 0.2 0.2 0.2
v -0.2 0.2 0.1
v -0.1 0.2 0.1
v 0.1 0.2 0.1
v 0.2 0.2 0.1
v -0.2 0.2 0
v -0.1 0.2 0
v 0.1 0.2 0
v 0.2 0.2 0
v -0.2 0.2 -0.1
v -0.1 0.2 -0.1
v 0.1 0.2 -0.1
v 0.2 0.2 -0.1
v -0.2 0.6 0.2
v 0.2 0.6 0.2
v -0.3 0.6 0.1
v -0.2 0.6 0.1
v -0.1 0.6 0.1
v 0.1 0.6 0.1
v 0.2 0.6 0.1
v 0.3 0.6 0.1
v -0.3 0.6 0
v -0.2 0.6 0
v -0.1 0.6 0
v 0.1 0.6 0
v 0.2 0.6 0
v 0.3 0.6 0
v -0.2 0.6 -0.1
v 0.2 0.6 -0.1
v -0.2 1 0.2
v 0.1 1 0.2
v 0.1 1 0.1
v 0.2 1 0.1
v -0.2 1 -0.1
v 0.2 1 -0.1
v 0.1 1.2 0.2
v 0.2 1.2 0.2
v 0.1 1.2 0.1
v 0.2 1.2 0.1

# faces
f 3/5/1 2/5/1 1/5/1
f 4/5/1 2/5/1 3/5/1
f 5/4/1 4/4/1 3/4/1
f 6/4/1 4/4/1 5/4/1
f 11/2/1 8/2/1 7/2/1
f 12/3/1 9/3/1 8/3/1
f 12/2/1 8/2/1 11/2/1
f 13/2/1 10/2/1 9/2/1
f 13/3/1 9/3/1 12/3/1
f 14/2/1 10/2/1 13/2/1
f 15/3/1 12/3/1 11/3/1
f 16/2/1 13/2/1 12/2/1
f 16/3/1 12/3/1 15/3/1
f 17/3/1 14/3/1 13/3/1
f 17/2/1 13/2/1 16/2/1
f 18/3/1 14/3/1 17/3/1
f 20/5/1 17/5/1 16/5/1
f 21/5/1 17/5/1 20/5/1
f 23/5/1 20/5/1 19/5/1
f 23/4/1 21/4/1 20/4/1
f 24/5/1 22/5/1 21/5/1
f 24/4/1 21/4/1 23/4/1
f 25/5/1 23/5/1 19/5/1
f 26/5/1 22/5/1 24/5/1
f 27/5/1 25/5/1 19/5/1
f 28/5/1 25/5/1 27/5/1
f 29/5/1 22/5/1 26/5/1
f 30/5/1 22/5/1 29/5/1
f 33/5/1 32/5/1 31/5/1
f 34/5/1 32/5/1 33/5/1
f 37/4/1 36/4/1 35/4/1
f 38/4/1 36/4/1 37/4/1
f 43/2/1 40/2/1 39/2/1
f 44/3/1 41/3/1 40/3/1
f 44/2/1 40/2/1 43/2/1
f 45/2/1 42/2/1 41/2/1
f 45/3/1 41/3/1 44/3/1
f 46/2/1 42/2/1 45/2/1
f 47/3/1 44/3/1 43/3/1
f 48/2/1 45/2/1 44/2/1
f 48/3/1 44/3/1 47/3/1
f 49/3/1 46/3/1 45/3/1
f 49/2/1 45/2/1 48/2/1
f 50/3/1 46/3/1 49/3/1
f 51/5/1 49/5/1 48/5/1
f 52/5/1 49/5/1 51/5/1
f 55/4/1 54/4/1 53/4/1
f 56/4/1 54/4/1 55/4/1
f 57/2/2 58/2/2 61/2/2
f 58/3/2 59/3/2 62/3/2
f 61/2/2 58/2/2 62/2/2
f 59/2/2 60/2/2 63/2/2
f 62/3/2 59/3/2 63/3/2
f 63/2/2 60/2/2 64/2/2
f 61/3/2 62/3/2 65/3/2
f 62/2/2 63/2/2 66/2/2
f 65/3/2 62/3/2 66/3/2
f 63/3/2 64/3/2 67/3/2
f 66/2/2 63/2/2 67/2/2
f 67/3/2 64/3/2 68/3/2
f 66/5/2 67/5/2 69/5/2
f 69/5/2 67/5/2 70/5/2
f 71/4/2 72/4/2 73/4/2
f 73/4/2 72/4/2 74/4/2
f 75/2/2 76/2/2 79/2/2
f 76/3/2 77/3/2 80/3/2
f 79/2/2 76/2/2 80/2/2
f 77/2/2 78/2/2 81/2/2
f 80/3/2 77/3/2 81/3/2
f 81/2/2 78/2/2 82/2/2
f 79/3/2 80/3/2 83/3/2
f 80/2/2 81/2/2 84/2/2
f 83/3/2 80/3/2 84/3/2
f 81/3/2 82/3/2 85/3/2
f 84/2/2 81/2/2 85/2/2
f 85/3/2 82/3/2 86/3/2
f 84/5/2 85/5/2 88/5/2
f 88/5/2 85/5/2 89/5/2
f 87/5/2 88/5/2 91/5/2
f 88/4/2 89/4/2 91/4/2
f 89/5/2 90/5/2 92/5/2
f 91/4/2 89/4/2 92/4/2
f 87/5/2 91/5/2 93/5/2
f 92/5/2 90/5/2 94/5/2
f 87/5/2 93/5/2 95/5/2
f 95/5/2 93/5/2 96/5/2
f 94/5/2 90/5/2 97/5/2
f 97/5/2 90/5/2 98/5/2
f 99/5/2 100/5/2 101/5/2
f 101/5/2 100/5/2 102/5/2
f 102/5/2 100/5/2 103/5/2
f 101/4/2 102/4/2 104/4/2
f 104/4/2 102/4/2 105/4/2
f 106/5/2 107/5/2 108/5/2
f 108/5/2 107/5/2 109/5/2
f 108/4/2 109/4/2 110/4/2
f 110/4/2 109/4/2 111/4/2
f 119/2/3 113/2/3 112/2/3
f 120/3/3 114/3/3 113/3/3
f 120/2/3 113/2/3 119/2/3
f 121/3/3 114/3/3 120/3/3
f 122/5/3 118/5/3 117/5/3
f 123/5/3 118/5/3 122/5/3
f 127/1/3 123/1/3 122/1/3
f 127/5/3 122/5/3 117/5/3
f 128/5/3 118/5/3 123/5/3
f 128/1/3 123/1/3 127/1/3
f 129/5/3 118/5/3 128/5/3
f 131/2/3 125/2/3 124/2/3
f 132/3/3 126/3/3 125/3/3
f 132/2/3 125/2/3 131/2/3
f 133/3/3 126/3/3 132/3/3
f 134/5/3 116/5/3 115/5/3
f 135/5/3 116/5/3 134/5/3
f 136/5/3 127/5/3 117/5/3
f 136/5/3 128/5/3 127/5/3
f 136/5/3 129/5/3 128/5/3
f 137/4/3 130/4/3 129/4/3
f 137/5/3 129/5/3 136/5/3
f 138/4/3 130/4/3 137/4/3
f 144/5/3 140/5/3 139/5/3
f 145/4/3 141/4/3 140/4/3
f 145/5/3 140/5/3 144/5/3
f 146/4/3 141/4/3 145/4/3
f 147/5/3 143/5/3 142/5/3
f 148/5/3 143/5/3 147/5/3
f 153/4/3 150/4/3 149/4/3
f 154/4/3 150/4/3 153/4/3
f 155/5/3 152/5/3 151/5/3
f 156/5/3 152/5/3 155/5/3
f 160/5/3 158/5/3 157/5/3
f 161/4/3 159/4/3 158/4/3
f 161/5/3 158/5/3 160/5/3
f 162/4/3 159/4/3 161/4/3
f 163/4/4 164/4/4 165/4/4
f 165/4/4 164/4/4 166/4/4
f 167/5/4 168/5/4 172/5/4
f 168/4/4 169/4/4 173/4/4
f 172/5/4 168/5/4 173/5/4
f 173/4/4 169/4/4 174/4/4
f 170/5/4 171/5/4 175/5/4
f 175/5/4 171/5/4 176/5/4
f 177/4/4 178/4/4 181/4/4
f 181/4/4 178/4/4 182/4/4
f 179/5/4 180/5/4 183/5/4
f 183/5/4 180/5/4 184/5/4
f 185/5/4 186/5/4 188/5/4
f 186/4/4 187/4/4 189/4/4
f 188/5/4 186/5/4 189/5/4
f 189/4/4 187/4/4 190/4/4
f 191/2/4 192/2/4 198/2/4
f 192/3/4 193/3/4 199/3/4
f 198/2/4 192/2/4 199/2/4
f 199/3/4 193/3/4 200/3/4
f 201/2/4 202/2/4 204/2/4
f 202/3/4 203/3/4 205/3/4
f 204/2/4 202/2/4 205/2/4
f 205/3/4 203/3/4 206/3/4
f 194/5/4 195/5/4 207/5/4
f 207/5/4 195/5/4 208/5/4
f 196/5/4 197/5/4 209/5/4
f 209/5/4 197/5/4 210/5/4
f 215/2/5 212/2/5 211/2/5
f 216/2/5 212/2/5 215/2/5
f 217/2/5 214/2/5 213/2/5
f 218/2/5 214/2/5 217/2/5
f 219/3/5 216/3/5 215/3/5
f 220/3/5 216/3/5 219/3/5
f 221/3/5 218/3/5 217/3/5
f 222/3/5 218/3/5 221/3/5
f 223/2/5 220/2/5 219/2/5
f 224/2/5 220/2/5 223/2/5
f 225/2/5 222/2/5 221/2/5
f 226/2/5 222/2/5 225/2/5
f 229/5/5 228/5/5 227/5/5
f 230/5/5 228/5/5 229/5/5
f 231/5/5 228/5/5 230/5/5
f 232/5/5 228/5/5 231/5/5
f 234/5/5 231/5/5 230/5/5
f 235/5/5 231/5/5 234/5/5
f 237/5/5 234/5/5 233/5/5
f 237/5/5 236/5/5 235/5/5
f 237/5/5 235/5/5 234/5/5
f 238/5/5 236/5/5 237/5/5
f 243/5/5 240/5/5 239/5/5
f 244/5/5 240/5/5 243/5/5
f 245/5/5 242/5/5 241/5/5
f 246/5/5 242/5/5 245/5/5
f 249/5/5 248/5/5 247/5/5
f 250/5/5 248/5/5 249/5/5
f 251/5/5 249/5/5 247/5/5
f 252/5/5 248/5/5 250/5/5
f 253/5/5 251/5/5 247/5/5
f 253/5/5 252/5/5 251/5/5
f 254/5/5 248/5/5 252/5/5
f 254/5/5 252/5/5 253/5/5
f 255/3/6 256/3/6 259/3/6
f 259/3/6 256/3/6 260/3/6
f 257/3/6 258/3/6 261/3/6
f 261/3/6 258/3/6 262/3/6
f 263/3/6 264/3/6 267/3/6
f 267/3/6 264/3/6 268/3/6
f 265/3/6 266/3/6 269/3/6
f 269/3/6 266/3/6 270/3/6
f 271/5/6 272/5/6 274/5/6
f 274/5/6 272/5/6 275/5/6
f 275/5/6 272/5/6 276/5/6
f 276/5/6 272/5/6 277/5/6
f 273/4/6 274/4/6 279/4/6
f 274/5/6 275/5/6 280/5/6
f 279/4/6 274/4/6 280/4/6
f 280/5/6 275/5/6 281/5/6
f 276/5/6 277/5/6 282/5/6
f 277/4/6 278/4/6 283/4/6
f 282/5/6 277/5/6 283/5/6
f 283/4/6 278/4/6 284/4/6
f 281/5/6 282/5/6 285/5/6
f 280/5/6 281/5/6 285/5/6
f 282/5/6 283/5/6 285/5/6
f 285/5/6 283/5/6 286/5/6
f 287/5/6 288/5/6 289/5/6
f 287/5/6 289/5/6 291/5/6
f 289/5/6 290/5/6 291/5/6
f 291/5/6 290/5/6 292/5/6
f 293/4/6 294/4/6 295/4/6
f 295/4/6 294/4/6 296/4/6
