# MagicaVoxel @ Ephtracy

# group
o 

# material
mtllib glass.mtl
usemtl palette

# normals
vn -1 0 0
vn 1 0 0
vn 0 0 1
vn 0 0 -1
vn 0 -1 0
vn 0 1 0

# texcoords
vt 0.568359 0.5
vt 0.572266 0.5
vt 0.912109 0.5
vt 0.994141 0.5

# verts
v -0.5 0 0.5
v -0.5 0 -0.4
v -0.5 0.8 0.5
v -0.5 0.8 -0.4
v -0.3 0.8 0.5
v -0.3 0.8 0.4
v -0.3 0.8 0.3
v -0.3 0.8 -0.2
v -0.3 1 0.5
v -0.3 1 0.4
v -0.3 1.5 0.3
v -0.3 1.5 -0.2
v 0.1 0.8 0.5
v 0.1 0.8 0.4
v 0.1 1 0.5
v 0.1 1 0.4
v 0.2 0.1 0.3
v 0.2 0.1 0.2
v 0.2 0.1 -0.2
v 0.2 0.1 -0.3
v 0.2 0.4 0.3
v 0.2 0.4 0.2
v 0.2 0.4 -0.2
v 0.2 0.4 -0.3
v 0.2 0.5 0.2
v 0.2 0.5 -0.1
v 0.2 1.5 0.2
v 0.2 1.5 -0.1
v 0.3 0.1 0.2
v 0.3 0.1 -0.2
v 0.3 0.4 0.2
v 0.3 0.4 -0.2
v -0.3 0.1 0.2
v -0.3 0.1 -0.2
v -0.3 0.4 0.2
v -0.3 0.4 -0.2
v -0.2 0.1 0.3
v -0.2 0.1 0.2
v -0.2 0.1 -0.2
v -0.2 0.1 -0.3
v -0.2 0.4 0.3
v -0.2 0.4 0.2
v -0.2 0.4 -0.2
v -0.2 0.4 -0.3
v -0.2 0.5 0.2
v -0.2 0.5 -0.1
v -0.2 1.5 0.2
v -0.2 1.5 -0.1
v -0.1 0.8 0.5
v -0.1 0.8 0.4
v -0.1 0.9 0.5
v -0.1 0.9 0.4
v -0.1 1 0.5
v -0.1 1 0.4
v 0.3 0.8 0.5
v 0.3 0.8 0.4
v 0.3 0.8 0.3
v 0.3 0.8 -0.2
v 0.3 0.9 0.5
v 0.3 0.9 0.4
v 0.3 1 0.5
v 0.3 1 0.4
v 0.3 1.5 0.3
v 0.3 1.5 -0.2
v 0.5 0 0.5
v 0.5 0 -0.4
v 0.5 0.8 0.5
v 0.5 0.8 -0.4
v -0.5 0 0.5
v -0.5 0.8 0.5
v -0.4 0.5 0.5
v -0.4 0.6 0.5
v -0.3 0.7 0.5
v -0.3 0.8 0.5
v -0.3 1 0.5
v -0.2 0.5 0.5
v -0.2 0.6 0.5
v -0.2 0.9 0.5
v -0.2 1 0.5
v -0.1 0.7 0.5
v -0.1 0.8 0.5
v -0.1 0.9 0.5
v -0.1 1 0.5
v 0.1 0.7 0.5
v 0.1 0.8 0.5
v 0.1 1 0.5
v 0.2 0.5 0.5
v 0.2 0.6 0.5
v 0.2 0.9 0.5
v 0.2 1 0.5
v 0.3 0.7 0.5
v 0.3 0.8 0.5
v 0.3 0.9 0.5
v 0.3 1 0.5
v 0.4 0.5 0.5
v 0.4 0.6 0.5
v 0.5 0 0.5
v 0.5 0.8 0.5
v -0.3 0.8 0.3
v -0.3 1.5 0.3
v 0.3 0.8 0.3
v 0.3 1.5 0.3
v -0.2 0.5 -0.1
v -0.2 1.5 -0.1
v 0.2 0.5 -0.1
v 0.2 1.5 -0.1
v -0.3 0.1 -0.2
v -0.3 0.4 -0.2
v -0.2 0.1 -0.2
v -0.2 0.4 -0.2
v 0.2 0.1 -0.2
v 0.2 0.4 -0.2
v 0.3 0.1 -0.2
v 0.3 0.4 -0.2
v -0.2 0.1 -0.3
v -0.2 0.4 -0.3
v 0.2 0.1 -0.3
v 0.2 0.4 -0.3
v -0.3 0.8 0.4
v -0.3 1 0.4
v -0.2 0.9 0.4
v -0.2 1 0.4
v -0.1 0.8 0.4
v -0.1 0.9 0.4
v -0.1 1 0.4
v 0.1 0.8 0.4
v 0.1 1 0.4
v 0.2 0.9 0.4
v 0.2 1 0.4
v 0.3 0.8 0.4
v 0.3 0.9 0.4
v 0.3 1 0.4
v -0.2 0.1 0.3
v -0.2 0.4 0.3
v 0.2 0.1 0.3
v 0.2 0.4 0.3
v -0.3 0.1 0.2
v -0.3 0.4 0.2
v -0.2 0.1 0.2
v -0.2 0.4 0.2
v -0.2 0.5 0.2
v -0.2 1.5 0.2
v 0.2 0.1 0.2
v 0.2 0.4 0.2
v 0.2 0.5 0.2
v 0.2 1.5 0.2
v 0.3 0.1 0.2
v 0.3 0.4 0.2
v -0.3 0.8 -0.2
v -0.3 1.5 -0.2
v 0.3 0.8 -0.2
v 0.3 1.5 -0.2
v -0.5 0 -0.4
v -0.5 0.8 -0.4
v 0.5 0 -0.4
v 0.5 0.8 -0.4
v -0.5 0 0.5
v 0.5 0 0.5
v -0.5 0 -0.4
v 0.5 0 -0.4
v -0.2 0.4 0.3
v 0.2 0.4 0.3
v -0.3 0.4 0.2
v -0.2 0.4 0.2
v 0.2 0.4 0.2
v 0.3 0.4 0.2
v -0.3 0.4 -0.2
v -0.2 0.4 -0.2
v 0.2 0.4 -0.2
v 0.3 0.4 -0.2
v -0.2 0.4 -0.3
v 0.2 0.4 -0.3
v -0.2 0.1 0.3
v 0.2 0.1 0.3
v -0.3 0.1 0.2
v -0.2 0.1 0.2
v 0.2 0.1 0.2
v 0.3 0.1 0.2
v -0.3 0.1 -0.2
v -0.2 0.1 -0.2
v 0.2 0.1 -0.2
v 0.3 0.1 -0.2
v -0.2 0.1 -0.3
v 0.2 0.1 -0.3
v -0.2 0.5 0.2
v 0.2 0.5 0.2
v -0.2 0.5 -0.1
v 0.2 0.5 -0.1
v -0.5 0.8 0.5
v -0.3 0.8 0.5
v -0.1 0.8 0.5
v 0.1 0.8 0.5
v 0.3 0.8 0.5
v 0.5 0.8 0.5
v -0.3 0.8 0.4
v -0.1 0.8 0.4
v 0.1 0.8 0.4
v 0.3 0.8 0.4
v -0.3 0.8 0.3
v 0.3 0.8 0.3
v -0.3 0.8 -0.2
v 0.3 0.8 -0.2
v -0.5 0.8 -0.4
v 0.5 0.8 -0.4
v -0.3 1 0.5
v -0.2 1 0.5
v -0.1 1 0.5
v 0.1 1 0.5
v 0.2 1 0.5
v 0.3 1 0.5
v -0.3 1 0.4
v -0.2 1 0.4
v -0.1 1 0.4
v 0.1 1 0.4
v 0.2 1 0.4
v 0.3 1 0.4
v -0.3 1.5 0.3
v 0.3 1.5 0.3
v -0.2 1.5 0.2
v 0.2 1.5 0.2
v -0.2 1.5 -0.1
v 0.2 1.5 -0.1
v -0.3 1.5 -0.2
v 0.3 1.5 -0.2

# faces
f 3/1/1 2/1/1 1/1/1
f 4/1/1 2/1/1 3/1/1
f 9/4/1 6/4/1 5/4/1
f 10/4/1 6/4/1 9/4/1
f 11/1/1 8/1/1 7/1/1
f 12/1/1 8/1/1 11/1/1
f 15/4/1 14/4/1 13/4/1
f 16/4/1 14/4/1 15/4/1
f 21/1/1 18/1/1 17/1/1
f 22/1/1 18/1/1 21/1/1
f 23/1/1 20/1/1 19/1/1
f 24/1/1 20/1/1 23/1/1
f 27/1/1 26/1/1 25/1/1
f 28/1/1 26/1/1 27/1/1
f 31/1/1 30/1/1 29/1/1
f 32/1/1 30/1/1 31/1/1
f 33/1/2 34/1/2 35/1/2
f 35/1/2 34/1/2 36/1/2
f 37/1/2 38/1/2 41/1/2
f 41/1/2 38/1/2 42/1/2
f 39/1/2 40/1/2 43/1/2
f 43/1/2 40/1/2 44/1/2
f 45/1/2 46/1/2 47/1/2
f 47/1/2 46/1/2 48/1/2
f 49/4/2 50/4/2 51/4/2
f 51/4/2 50/4/2 52/4/2
f 51/3/2 52/3/2 53/3/2
f 53/3/2 52/3/2 54/3/2
f 55/4/2 56/4/2 59/4/2
f 59/4/2 56/4/2 60/4/2
f 59/3/2 60/3/2 61/3/2
f 61/3/2 60/3/2 62/3/2
f 57/1/2 58/1/2 63/1/2
f 63/1/2 58/1/2 64/1/2
f 65/1/2 66/1/2 67/1/2
f 67/1/2 66/1/2 68/1/2
f 71/1/3 70/1/3 69/1/3
f 72/1/3 70/1/3 71/1/3
f 73/1/3 70/1/3 72/1/3
f 74/1/3 70/1/3 73/1/3
f 76/1/3 71/1/3 69/1/3
f 76/2/3 72/2/3 71/2/3
f 77/1/3 73/1/3 72/1/3
f 77/2/3 72/2/3 76/2/3
f 78/4/3 75/4/3 74/4/3
f 78/4/3 74/4/3 73/4/3
f 79/4/3 75/4/3 78/4/3
f 80/1/3 73/1/3 77/1/3
f 80/1/3 77/1/3 76/1/3
f 80/4/3 78/4/3 73/4/3
f 81/4/3 78/4/3 80/4/3
f 82/3/3 79/3/3 78/3/3
f 82/4/3 78/4/3 81/4/3
f 83/3/3 79/3/3 82/3/3
f 84/1/3 81/1/3 80/1/3
f 84/1/3 80/1/3 76/1/3
f 85/1/3 81/1/3 84/1/3
f 87/1/3 76/1/3 69/1/3
f 87/1/3 84/1/3 76/1/3
f 88/1/3 84/1/3 87/1/3
f 89/4/3 86/4/3 85/4/3
f 89/4/3 85/4/3 84/4/3
f 90/4/3 86/4/3 89/4/3
f 91/1/3 84/1/3 88/1/3
f 91/4/3 89/4/3 84/4/3
f 92/4/3 89/4/3 91/4/3
f 93/3/3 90/3/3 89/3/3
f 93/4/3 89/4/3 92/4/3
f 94/3/3 90/3/3 93/3/3
f 95/2/3 88/2/3 87/2/3
f 95/1/3 87/1/3 69/1/3
f 96/1/3 91/1/3 88/1/3
f 96/2/3 88/2/3 95/2/3
f 96/1/3 92/1/3 91/1/3
f 97/1/3 95/1/3 69/1/3
f 97/1/3 96/1/3 95/1/3
f 98/1/3 92/1/3 96/1/3
f 98/1/3 96/1/3 97/1/3
f 101/1/3 100/1/3 99/1/3
f 102/1/3 100/1/3 101/1/3
f 105/1/3 104/1/3 103/1/3
f 106/1/3 104/1/3 105/1/3
f 109/1/3 108/1/3 107/1/3
f 110/1/3 108/1/3 109/1/3
f 113/1/3 112/1/3 111/1/3
f 114/1/3 112/1/3 113/1/3
f 117/1/3 116/1/3 115/1/3
f 118/1/3 116/1/3 117/1/3
f 119/4/4 120/4/4 121/4/4
f 121/4/4 120/4/4 122/4/4
f 119/4/4 121/4/4 123/4/4
f 121/3/4 122/3/4 124/3/4
f 123/4/4 121/4/4 124/4/4
f 124/3/4 122/3/4 125/3/4
f 126/4/4 127/4/4 128/4/4
f 128/4/4 127/4/4 129/4/4
f 126/4/4 128/4/4 130/4/4
f 128/3/4 129/3/4 131/3/4
f 130/4/4 128/4/4 131/4/4
f 131/3/4 129/3/4 132/3/4
f 133/1/4 134/1/4 135/1/4
f 135/1/4 134/1/4 136/1/4
f 137/1/4 138/1/4 139/1/4
f 139/1/4 138/1/4 140/1/4
f 141/1/4 142/1/4 145/1/4
f 145/1/4 142/1/4 146/1/4
f 143/1/4 144/1/4 147/1/4
f 147/1/4 144/1/4 148/1/4
f 149/1/4 150/1/4 151/1/4
f 151/1/4 150/1/4 152/1/4
f 153/1/4 154/1/4 155/1/4
f 155/1/4 154/1/4 156/1/4
f 159/1/5 158/1/5 157/1/5
f 160/1/5 158/1/5 159/1/5
f 164/1/5 162/1/5 161/1/5
f 165/1/5 162/1/5 164/1/5
f 167/1/5 164/1/5 163/1/5
f 167/1/5 166/1/5 165/1/5
f 167/1/5 165/1/5 164/1/5
f 168/1/5 166/1/5 167/1/5
f 169/1/5 166/1/5 168/1/5
f 170/1/5 166/1/5 169/1/5
f 171/1/5 169/1/5 168/1/5
f 172/1/5 169/1/5 171/1/5
f 173/1/6 174/1/6 176/1/6
f 176/1/6 174/1/6 177/1/6
f 175/1/6 176/1/6 179/1/6
f 177/1/6 178/1/6 179/1/6
f 176/1/6 177/1/6 179/1/6
f 179/1/6 178/1/6 180/1/6
f 180/1/6 178/1/6 181/1/6
f 181/1/6 178/1/6 182/1/6
f 180/1/6 181/1/6 183/1/6
f 183/1/6 181/1/6 184/1/6
f 185/1/6 186/1/6 187/1/6
f 187/1/6 186/1/6 188/1/6
f 189/1/6 190/1/6 195/1/6
f 191/1/6 192/1/6 196/1/6
f 196/1/6 192/1/6 197/1/6
f 193/1/6 194/1/6 198/1/6
f 196/1/6 197/1/6 199/1/6
f 197/1/6 198/1/6 199/1/6
f 189/1/6 195/1/6 199/1/6
f 195/1/6 196/1/6 199/1/6
f 198/1/6 194/1/6 200/1/6
f 199/1/6 198/1/6 200/1/6
f 189/1/6 199/1/6 201/1/6
f 200/1/6 194/1/6 202/1/6
f 189/1/6 201/1/6 203/1/6
f 201/1/6 202/1/6 203/1/6
f 202/1/6 194/1/6 204/1/6
f 203/1/6 202/1/6 204/1/6
f 205/4/6 206/4/6 211/4/6
f 206/3/6 207/3/6 212/3/6
f 211/4/6 206/4/6 212/4/6
f 212/3/6 207/3/6 213/3/6
f 208/4/6 209/4/6 214/4/6
f 209/3/6 210/3/6 215/3/6
f 214/4/6 209/4/6 215/4/6
f 215/3/6 210/3/6 216/3/6
f 217/1/6 218/1/6 219/1/6
f 219/1/6 218/1/6 220/1/6
f 217/1/6 219/1/6 221/1/6
f 220/1/6 218/1/6 222/1/6
f 217/1/6 221/1/6 223/1/6
f 221/1/6 222/1/6 223/1/6
f 222/1/6 218/1/6 224/1/6
f 223/1/6 222/1/6 224/1/6
