# MagicaVoxel @ Ephtracy

# group
o 

# material
mtllib snakeman.mtl
usemtl palette

# normals
vn -1 0 0
vn 1 0 0
vn 0 0 1
vn 0 0 -1
vn 0 -1 0
vn 0 1 0

# texcoords
vt 0.533203 0.5
vt 0.583984 0.5
vt 0.591797 0.5
vt 0.962891 0.5
vt 0.990234 0.5
vt 0.994141 0.5

# verts
v -0.5 0.7 0
v -0.5 0.7 -0.2
v -0.5 1 0
v -0.5 1 -0.2
v -0.5 1.2 0
v -0.5 1.2 -0.2
v -0.3 0 0.1
v -0.3 0 -0.2
v -0.3 0.1 0.1
v -0.3 0.1 0
v -0.3 0.3 0
v -0.3 0.3 -0.2
v -0.3 0.7 0.1
v -0.3 0.7 0
v -0.3 0.7 -0.2
v -0.3 0.7 -0.3
v -0.3 1 0
v -0.3 1 -0.2
v -0.3 1.2 0.1
v -0.3 1.2 0
v -0.3 1.2 -0.2
v -0.3 1.2 -0.3
v -0.3 1.3 0.1
v -0.3 1.3 -0.4
v -0.3 1.7 0.1
v -0.3 1.7 0
v -0.3 1.8 0.1
v -0.3 1.8 0
v -0.3 1.8 -0.4
v -0.2 0.3 0.1
v -0.2 0.3 0
v -0.2 0.3 -0.2
v -0.2 0.3 -0.3
v -0.2 0.7 0.1
v -0.2 0.7 0
v -0.2 0.7 -0.2
v -0.2 0.7 -0.3
v -0.2 1.2 0
v -0.2 1.2 -0.2
v -0.2 1.3 0.2
v -0.2 1.3 0.1
v -0.2 1.3 0
v -0.2 1.3 -0.2
v -0.2 1.5 0.2
v -0.2 1.5 0.1
v -0.2 1.8 0
v -0.2 1.8 -0.3
v -0.2 1.9 0
v -0.2 1.9 -0.3
v 0.1 0 0.1
v 0.1 0 -0.2
v 0.1 0.1 0.1
v 0.1 0.1 0
v 0.1 0.2 0
v 0.1 0.2 -0.1
v 0.1 0.3 -0.1
v 0.1 0.3 -0.2
v 0.1 1.4 0.2
v 0.1 1.4 0.1
v 0.1 1.5 0.2
v 0.1 1.5 0.1
v 0.2 0.2 0
v 0.2 0.2 -0.1
v 0.2 0.3 0
v 0.2 0.3 -0.1
v -0.2 0.2 0
v -0.2 0.2 -0.1
v -0.2 0.3 0
v -0.2 0.3 -0.1
v -0.1 0 0.1
v -0.1 0 -0.2
v -0.1 0.1 0.1
v -0.1 0.1 0
v -0.1 0.2 0
v -0.1 0.2 -0.1
v -0.1 0.3 -0.1
v -0.1 0.3 -0.2
v -0.1 1.4 0.2
v -0.1 1.4 0.1
v -0.1 1.5 0.2
v -0.1 1.5 0.1
v 0.2 0.3 0.1
v 0.2 0.3 0
v 0.2 0.3 -0.2
v 0.2 0.3 -0.3
v 0.2 0.7 0.1
v 0.2 0.7 0
v 0.2 0.7 -0.2
v 0.2 0.7 -0.3
v 0.2 1.2 0
v 0.2 1.2 -0.2
v 0.2 1.3 0.2
v 0.2 1.3 0.1
v 0.2 1.3 0
v 0.2 1.3 -0.2
v 0.2 1.5 0.2
v 0.2 1.5 0.1
v 0.2 1.8 0
v 0.2 1.8 -0.3
v 0.2 1.9 0
v 0.2 1.9 -0.3
v 0.3 0 0.1
v 0.3 0 -0.2
v 0.3 0.1 0.1
v 0.3 0.1 0
v 0.3 0.3 0
v 0.3 0.3 -0.2
v 0.3 0.7 0.1
v 0.3 0.7 0
v 0.3 0.7 -0.2
v 0.3 0.7 -0.3
v 0.3 1 0
v 0.3 1 -0.2
v 0.3 1.2 0.1
v 0.3 1.2 0
v 0.3 1.2 -0.2
v 0.3 1.2 -0.3
v 0.3 1.3 0.1
v 0.3 1.3 -0.4
v 0.3 1.7 0.1
v 0.3 1.7 0
v 0.3 1.8 0.1
v 0.3 1.8 0
v 0.3 1.8 -0.4
v 0.5 0.7 0
v 0.5 0.7 -0.2
v 0.5 1 0
v 0.5 1 -0.2
v 0.5 1.2 0
v 0.5 1.2 -0.2
v -0.2 1.3 0.2
v -0.2 1.5 0.2
v -0.1 1.3 0.2
v -0.1 1.4 0.2
v -0.1 1.5 0.2
v 0.1 1.3 0.2
v 0.1 1.4 0.2
v 0.1 1.5 0.2
v 0.2 1.3 0.2
v 0.2 1.5 0.2
v -0.3 0 0.1
v -0.3 0.1 0.1
v -0.3 0.7 0.1
v -0.3 1.2 0.1
v -0.3 1.3 0.1
v -0.3 1.7 0.1
v -0.3 1.8 0.1
v -0.2 0.3 0.1
v -0.2 0.7 0.1
v -0.2 1.3 0.1
v -0.2 1.5 0.1
v -0.2 1.6 0.1
v -0.2 1.7 0.1
v -0.1 0 0.1
v -0.1 0.1 0.1
v -0.1 1.4 0.1
v -0.1 1.5 0.1
v -0.1 1.6 0.1
v -0.1 1.7 0.1
v -0.1 1.8 0.1
v 0.1 0 0.1
v 0.1 0.1 0.1
v 0.1 1.4 0.1
v 0.1 1.5 0.1
v 0.1 1.6 0.1
v 0.1 1.7 0.1
v 0.1 1.8 0.1
v 0.2 0.3 0.1
v 0.2 0.7 0.1
v 0.2 1.3 0.1
v 0.2 1.5 0.1
v 0.2 1.6 0.1
v 0.2 1.7 0.1
v 0.3 0 0.1
v 0.3 0.1 0.1
v 0.3 0.7 0.1
v 0.3 1.2 0.1
v 0.3 1.3 0.1
v 0.3 1.7 0.1
v 0.3 1.8 0.1
v -0.5 0.7 0
v -0.5 1 0
v -0.5 1.2 0
v -0.3 0.1 0
v -0.3 0.3 0
v -0.3 0.7 0
v -0.3 1 0
v -0.3 1.2 0
v -0.2 0.2 0
v -0.2 0.3 0
v -0.2 0.7 0
v -0.2 1.2 0
v -0.2 1.3 0
v -0.2 1.8 0
v -0.2 1.9 0
v -0.1 0.1 0
v -0.1 0.2 0
v -0.1 1.3 0
v -0.1 1.8 0
v 0.1 0.1 0
v 0.1 0.2 0
v 0.1 1.3 0
v 0.1 1.8 0
v 0.2 0.2 0
v 0.2 0.3 0
v 0.2 0.7 0
v 0.2 1.2 0
v 0.2 1.3 0
v 0.2 1.8 0
v 0.2 1.9 0
v 0.3 0.1 0
v 0.3 0.3 0
v 0.3 0.7 0
v 0.3 1 0
v 0.3 1.2 0
v 0.5 0.7 0
v 0.5 1 0
v 0.5 1.2 0
v -0.2 0.2 -0.1
v -0.2 0.3 -0.1
v -0.1 0.2 -0.1
v -0.1 0.3 -0.1
v 0.1 0.2 -0.1
v 0.1 0.3 -0.1
v 0.2 0.2 -0.1
v 0.2 0.3 -0.1
v -0.5 0.7 -0.2
v -0.5 1 -0.2
v -0.5 1.2 -0.2
v -0.3 0 -0.2
v -0.3 0.3 -0.2
v -0.3 0.7 -0.2
v -0.3 1 -0.2
v -0.3 1.2 -0.2
v -0.2 0.3 -0.2
v -0.2 0.7 -0.2
v -0.2 1.2 -0.2
v -0.2 1.3 -0.2
v -0.1 0 -0.2
v -0.1 0.3 -0.2
v 0.1 0 -0.2
v 0.1 0.3 -0.2
v 0.2 0.3 -0.2
v 0.2 0.7 -0.2
v 0.2 1.2 -0.2
v 0.2 1.3 -0.2
v 0.3 0 -0.2
v 0.3 0.3 -0.2
v 0.3 0.7 -0.2
v 0.3 1 -0.2
v 0.3 1.2 -0.2
v 0.5 0.7 -0.2
v 0.5 1 -0.2
v 0.5 1.2 -0.2
v -0.3 0.7 -0.3
v -0.3 1.2 -0.3
v -0.2 0.3 -0.3
v -0.2 0.7 -0.3
v -0.2 1.8 -0.3
v -0.2 1.9 -0.3
v 0.2 0.3 -0.3
v 0.2 0.7 -0.3
v 0.2 1.8 -0.3
v 0.2 1.9 -0.3
v 0.3 0.7 -0.3
v 0.3 1.2 -0.3
v -0.3 1.3 -0.4
v -0.3 1.8 -0.4
v 0.3 1.3 -0.4
v 0.3 1.8 -0.4
v -0.3 0 0.1
v -0.1 0 0.1
v 0.1 0 0.1
v 0.3 0 0.1
v -0.3 0 -0.2
v -0.1 0 -0.2
v 0.1 0 -0.2
v 0.3 0 -0.2
v -0.2 0.3 0.1
v 0.2 0.3 0.1
v -0.2 0.3 0
v 0.2 0.3 0
v -0.2 0.3 -0.1
v -0.1 0.3 -0.1
v 0.1 0.3 -0.1
v 0.2 0.3 -0.1
v -0.2 0.3 -0.2
v -0.1 0.3 -0.2
v 0.1 0.3 -0.2
v 0.2 0.3 -0.2
v -0.2 0.3 -0.3
v 0.2 0.3 -0.3
v -0.3 0.7 0.1
v -0.2 0.7 0.1
v 0.2 0.7 0.1
v 0.3 0.7 0.1
v -0.5 0.7 0
v -0.3 0.7 0
v -0.2 0.7 0
v 0.2 0.7 0
v 0.3 0.7 0
v 0.5 0.7 0
v -0.5 0.7 -0.2
v -0.3 0.7 -0.2
v -0.2 0.7 -0.2
v 0.2 0.7 -0.2
v 0.3 0.7 -0.2
v 0.5 0.7 -0.2
v -0.3 0.7 -0.3
v -0.2 0.7 -0.3
v 0.2 0.7 -0.3
v 0.3 0.7 -0.3
v -0.2 1.3 0.2
v -0.1 1.3 0.2
v 0.1 1.3 0.2
v 0.2 1.3 0.2
v -0.3 1.3 0.1
v -0.2 1.3 0.1
v 0.2 1.3 0.1
v 0.3 1.3 0.1
v -0.2 1.3 0
v -0.1 1.3 0
v 0.1 1.3 0
v 0.2 1.3 0
v -0.2 1.3 -0.2
v 0.2 1.3 -0.2
v -0.3 1.3 -0.4
v 0.3 1.3 -0.4
v -0.3 0.1 0.1
v -0.1 0.1 0.1
v 0.1 0.1 0.1
v 0.3 0.1 0.1
v -0.3 0.1 0
v -0.1 0.1 0
v 0.1 0.1 0
v 0.3 0.1 0
v -0.2 0.2 0
v -0.1 0.2 0
v 0.1 0.2 0
v 0.2 0.2 0
v -0.2 0.2 -0.1
v -0.1 0.2 -0.1
v 0.1 0.2 -0.1
v 0.2 0.2 -0.1
v -0.3 1.2 0.1
v 0.3 1.2 0.1
v -0.5 1.2 0
v -0.3 1.2 0
v -0.2 1.2 0
v 0.2 1.2 0
v 0.3 1.2 0
v 0.5 1.2 0
v -0.5 1.2 -0.2
v -0.3 1.2 -0.2
v -0.2 1.2 -0.2
v 0.2 1.2 -0.2
v 0.3 1.2 -0.2
v 0.5 1.2 -0.2
v -0.3 1.2 -0.3
v 0.3 1.2 -0.3
v -0.1 1.4 0.2
v 0.1 1.4 0.2
v -0.1 1.4 0.1
v 0.1 1.4 0.1
v -0.2 1.5 0.2
v -0.1 1.5 0.2
v 0.1 1.5 0.2
v 0.2 1.5 0.2
v -0.2 1.5 0.1
v -0.1 1.5 0.1
v 0.1 1.5 0.1
v 0.2 1.5 0.1
v -0.3 1.8 0.1
v -0.1 1.8 0.1
v 0.1 1.8 0.1
v 0.3 1.8 0.1
v -0.3 1.8 0
v -0.2 1.8 0
v -0.1 1.8 0
v 0.1 1.8 0
v 0.2 1.8 0
v 0.3 1.8 0
v -0.2 1.8 -0.3
v 0.2 1.8 -0.3
v -0.3 1.8 -0.4
v 0.3 1.8 -0.4
v -0.2 1.9 0
v 0.2 1.9 0
v -0.2 1.9 -0.3
v 0.2 1.9 -0.3

# faces
f 3/2/1 2/2/1 1/2/1
f 4/2/1 2/2/1 3/2/1
f 5/1/1 4/1/1 3/1/1
f 6/1/1 4/1/1 5/1/1
f 9/2/1 8/2/1 7/2/1
f 10/2/1 8/2/1 9/2/1
f 11/2/1 8/2/1 10/2/1
f 12/2/1 8/2/1 11/2/1
f 14/1/1 12/1/1 11/1/1
f 15/1/1 12/1/1 14/1/1
f 17/3/1 14/3/1 13/3/1
f 18/3/1 16/3/1 15/3/1
f 19/3/1 17/3/1 13/3/1
f 20/3/1 17/3/1 19/3/1
f 21/3/1 16/3/1 18/3/1
f 22/3/1 16/3/1 21/3/1
f 25/2/1 24/2/1 23/2/1
f 26/2/1 24/2/1 25/2/1
f 27/6/1 26/6/1 25/6/1
f 28/2/1 24/2/1 26/2/1
f 28/6/1 26/6/1 27/6/1
f 29/2/1 24/2/1 28/2/1
f 34/3/1 31/3/1 30/3/1
f 35/3/1 31/3/1 34/3/1
f 36/3/1 33/3/1 32/3/1
f 37/3/1 33/3/1 36/3/1
f 42/3/1 39/3/1 38/3/1
f 43/3/1 39/3/1 42/3/1
f 44/4/1 41/4/1 40/4/1
f 45/4/1 41/4/1 44/4/1
f 48/2/1 47/2/1 46/2/1
f 49/2/1 47/2/1 48/2/1
f 52/2/1 51/2/1 50/2/1
f 53/2/1 51/2/1 52/2/1
f 54/2/1 51/2/1 53/2/1
f 55/2/1 51/2/1 54/2/1
f 56/2/1 51/2/1 55/2/1
f 57/2/1 51/2/1 56/2/1
f 60/4/1 59/4/1 58/4/1
f 61/4/1 59/4/1 60/4/1
f 64/2/1 63/2/1 62/2/1
f 65/2/1 63/2/1 64/2/1
f 66/2/2 67/2/2 68/2/2
f 68/2/2 67/2/2 69/2/2
f 70/2/2 71/2/2 72/2/2
f 72/2/2 71/2/2 73/2/2
f 73/2/2 71/2/2 74/2/2
f 74/2/2 71/2/2 75/2/2
f 75/2/2 71/2/2 76/2/2
f 76/2/2 71/2/2 77/2/2
f 78/4/2 79/4/2 80/4/2
f 80/4/2 79/4/2 81/4/2
f 82/3/2 83/3/2 86/3/2
f 86/3/2 83/3/2 87/3/2
f 84/3/2 85/3/2 88/3/2
f 88/3/2 85/3/2 89/3/2
f 90/3/2 91/3/2 94/3/2
f 94/3/2 91/3/2 95/3/2
f 92/4/2 93/4/2 96/4/2
f 96/4/2 93/4/2 97/4/2
f 98/2/2 99/2/2 100/2/2
f 100/2/2 99/2/2 101/2/2
f 102/2/2 103/2/2 104/2/2
f 104/2/2 103/2/2 105/2/2
f 105/2/2 103/2/2 106/2/2
f 106/2/2 103/2/2 107/2/2
f 106/1/2 107/1/2 109/1/2
f 109/1/2 107/1/2 110/1/2
f 108/3/2 109/3/2 112/3/2
f 110/3/2 111/3/2 113/3/2
f 108/3/2 112/3/2 114/3/2
f 114/3/2 112/3/2 115/3/2
f 113/3/2 111/3/2 116/3/2
f 116/3/2 111/3/2 117/3/2
f 118/2/2 119/2/2 120/2/2
f 120/2/2 119/2/2 121/2/2
f 120/6/2 121/6/2 122/6/2
f 121/2/2 119/2/2 123/2/2
f 122/6/2 121/6/2 123/6/2
f 123/2/2 119/2/2 124/2/2
f 125/2/2 126/2/2 127/2/2
f 127/2/2 126/2/2 128/2/2
f 127/1/2 128/1/2 129/1/2
f 129/1/2 128/1/2 130/1/2
f 133/4/3 132/4/3 131/4/3
f 134/4/3 132/4/3 133/4/3
f 135/4/3 132/4/3 134/4/3
f 136/2/3 134/2/3 133/2/3
f 137/2/3 134/2/3 136/2/3
f 139/4/3 137/4/3 136/4/3
f 139/4/3 138/4/3 137/4/3
f 140/4/3 138/4/3 139/4/3
f 149/3/3 144/3/3 143/3/3
f 150/2/3 146/2/3 145/2/3
f 151/2/3 146/2/3 150/2/3
f 152/2/3 146/2/3 151/2/3
f 153/6/3 147/6/3 146/6/3
f 153/2/3 146/2/3 152/2/3
f 154/2/3 142/2/3 141/2/3
f 155/2/3 142/2/3 154/2/3
f 157/2/3 152/2/3 151/2/3
f 158/5/3 153/5/3 152/5/3
f 158/2/3 152/2/3 157/2/3
f 159/6/3 147/6/3 153/6/3
f 159/5/3 153/5/3 158/5/3
f 160/6/3 147/6/3 159/6/3
f 163/2/3 158/2/3 157/2/3
f 163/2/3 157/2/3 156/2/3
f 163/2/3 160/2/3 159/2/3
f 163/2/3 159/2/3 158/2/3
f 164/2/3 160/2/3 163/2/3
f 165/2/3 160/2/3 164/2/3
f 166/2/3 160/2/3 165/2/3
f 167/2/3 160/2/3 166/2/3
f 168/3/3 149/3/3 148/3/3
f 169/3/3 144/3/3 149/3/3
f 169/3/3 149/3/3 168/3/3
f 171/2/3 165/2/3 164/2/3
f 172/5/3 166/5/3 165/5/3
f 172/2/3 165/2/3 171/2/3
f 173/6/3 167/6/3 166/6/3
f 173/5/3 166/5/3 172/5/3
f 174/2/3 162/2/3 161/2/3
f 175/2/3 162/2/3 174/2/3
f 176/3/3 144/3/3 169/3/3
f 177/3/3 144/3/3 176/3/3
f 178/2/3 172/2/3 171/2/3
f 178/2/3 171/2/3 170/2/3
f 178/2/3 173/2/3 172/2/3
f 179/6/3 167/6/3 173/6/3
f 179/2/3 173/2/3 178/2/3
f 180/6/3 167/6/3 179/6/3
f 186/2/3 182/2/3 181/2/3
f 187/1/3 183/1/3 182/1/3
f 187/2/3 182/2/3 186/2/3
f 188/1/3 183/1/3 187/1/3
f 189/2/3 185/2/3 184/2/3
f 190/1/3 186/1/3 185/1/3
f 190/2/3 185/2/3 189/2/3
f 191/1/3 186/1/3 190/1/3
f 196/2/3 189/2/3 184/2/3
f 197/2/3 189/2/3 196/2/3
f 198/3/3 193/3/3 192/3/3
f 199/2/3 195/2/3 194/2/3
f 202/3/3 198/3/3 192/3/3
f 203/2/3 195/2/3 199/2/3
f 204/2/3 201/2/3 200/2/3
f 207/3/3 202/3/3 192/3/3
f 208/3/3 202/3/3 207/3/3
f 209/2/3 195/2/3 203/2/3
f 210/2/3 195/2/3 209/2/3
f 211/2/3 204/2/3 200/2/3
f 211/2/3 205/2/3 204/2/3
f 212/1/3 206/1/3 205/1/3
f 212/2/3 205/2/3 211/2/3
f 213/1/3 206/1/3 212/1/3
f 216/2/3 214/2/3 213/2/3
f 217/1/3 215/1/3 214/1/3
f 217/2/3 214/2/3 216/2/3
f 218/1/3 215/1/3 217/1/3
f 221/2/3 220/2/3 219/2/3
f 222/2/3 220/2/3 221/2/3
f 225/2/3 224/2/3 223/2/3
f 226/2/3 224/2/3 225/2/3
f 227/2/4 228/2/4 232/2/4
f 228/1/4 229/1/4 233/1/4
f 232/2/4 228/2/4 233/2/4
f 233/1/4 229/1/4 234/1/4
f 230/2/4 231/2/4 235/2/4
f 231/1/4 232/1/4 235/1/4
f 235/1/4 232/1/4 236/1/4
f 230/2/4 235/2/4 239/2/4
f 239/2/4 235/2/4 240/2/4
f 241/2/4 242/2/4 243/2/4
f 237/3/4 238/3/4 245/3/4
f 245/3/4 238/3/4 246/3/4
f 241/2/4 243/2/4 247/2/4
f 243/1/4 244/1/4 248/1/4
f 247/2/4 243/2/4 248/2/4
f 248/1/4 244/1/4 249/1/4
f 249/2/4 250/2/4 252/2/4
f 250/1/4 251/1/4 253/1/4
f 252/2/4 250/2/4 253/2/4
f 253/1/4 251/1/4 254/1/4
f 255/3/4 256/3/4 258/3/4
f 257/3/4 258/3/4 261/3/4
f 258/3/4 256/3/4 262/3/4
f 261/3/4 258/3/4 262/3/4
f 259/2/4 260/2/4 263/2/4
f 263/2/4 260/2/4 264/2/4
f 262/3/4 256/3/4 265/3/4
f 265/3/4 256/3/4 266/3/4
f 267/2/4 268/2/4 269/2/4
f 269/2/4 268/2/4 270/2/4
f 275/2/5 272/2/5 271/2/5
f 276/2/5 272/2/5 275/2/5
f 277/2/5 274/2/5 273/2/5
f 278/2/5 274/2/5 277/2/5
f 281/3/5 280/3/5 279/3/5
f 282/3/5 280/3/5 281/3/5
f 283/3/5 282/3/5 281/3/5
f 284/3/5 282/3/5 283/3/5
f 285/3/5 282/3/5 284/3/5
f 286/3/5 282/3/5 285/3/5
f 288/3/5 285/3/5 284/3/5
f 289/3/5 285/3/5 288/3/5
f 291/3/5 288/3/5 287/3/5
f 291/3/5 290/3/5 289/3/5
f 291/3/5 289/3/5 288/3/5
f 292/3/5 290/3/5 291/3/5
f 298/3/5 294/3/5 293/3/5
f 299/3/5 294/3/5 298/3/5
f 300/3/5 296/3/5 295/3/5
f 301/3/5 296/3/5 300/3/5
f 303/2/5 298/2/5 297/2/5
f 304/2/5 298/2/5 303/2/5
f 307/2/5 302/2/5 301/2/5
f 308/2/5 302/2/5 307/2/5
f 309/3/5 305/3/5 304/3/5
f 310/3/5 305/3/5 309/3/5
f 311/3/5 307/3/5 306/3/5
f 312/3/5 307/3/5 311/3/5
f 318/4/5 314/4/5 313/4/5
f 319/4/5 316/4/5 315/4/5
f 321/2/5 318/2/5 317/2/5
f 321/4/5 314/4/5 318/4/5
f 322/2/5 315/2/5 314/2/5
f 322/4/5 314/4/5 321/4/5
f 323/4/5 319/4/5 315/4/5
f 323/2/5 315/2/5 322/2/5
f 324/2/5 320/2/5 319/2/5
f 324/4/5 319/4/5 323/4/5
f 325/2/5 321/2/5 317/2/5
f 326/2/5 320/2/5 324/2/5
f 327/2/5 325/2/5 317/2/5
f 327/2/5 326/2/5 325/2/5
f 328/2/5 320/2/5 326/2/5
f 328/2/5 326/2/5 327/2/5
f 329/2/6 330/2/6 333/2/6
f 333/2/6 330/2/6 334/2/6
f 331/2/6 332/2/6 335/2/6
f 335/2/6 332/2/6 336/2/6
f 337/2/6 338/2/6 341/2/6
f 341/2/6 338/2/6 342/2/6
f 339/2/6 340/2/6 343/2/6
f 343/2/6 340/2/6 344/2/6
f 345/3/6 346/3/6 348/3/6
f 348/3/6 346/3/6 349/3/6
f 349/3/6 346/3/6 350/3/6
f 350/3/6 346/3/6 351/3/6
f 347/1/6 348/1/6 353/1/6
f 348/1/6 349/1/6 353/1/6
f 353/1/6 349/1/6 354/1/6
f 354/1/6 349/1/6 355/1/6
f 351/1/6 352/1/6 356/1/6
f 350/1/6 351/1/6 356/1/6
f 356/1/6 352/1/6 357/1/6
f 357/1/6 352/1/6 358/1/6
f 354/3/6 355/3/6 359/3/6
f 356/3/6 357/3/6 359/3/6
f 355/3/6 356/3/6 359/3/6
f 359/3/6 357/3/6 360/3/6
f 361/2/6 362/2/6 363/2/6
f 363/2/6 362/2/6 364/2/6
f 365/4/6 366/4/6 369/4/6
f 369/4/6 366/4/6 370/4/6
f 367/4/6 368/4/6 371/4/6
f 371/4/6 368/4/6 372/4/6
f 373/6/6 374/6/6 377/6/6
f 377/6/6 374/6/6 378/6/6
f 374/2/6 375/2/6 379/2/6
f 378/6/6 374/6/6 379/6/6
f 375/6/6 376/6/6 380/6/6
f 379/2/6 375/2/6 380/2/6
f 380/6/6 376/6/6 381/6/6
f 381/6/6 376/6/6 382/6/6
f 377/2/6 378/2/6 383/2/6
f 381/2/6 382/2/6 384/2/6
f 377/2/6 383/2/6 385/2/6
f 383/2/6 384/2/6 385/2/6
f 384/2/6 382/2/6 386/2/6
f 385/2/6 384/2/6 386/2/6
f 387/2/6 388/2/6 389/2/6
f 389/2/6 388/2/6 390/2/6
