# MagicaVoxel @ Ephtracy

# group
o 

# material
mtllib archerY.mtl
usemtl palette

# normals
vn -1 0 0
vn 1 0 0
vn 0 0 1
vn 0 0 -1
vn 0 -1 0
vn 0 1 0

# texcoords
vt 0.0644531 0.5
vt 0.306641 0.5
vt 0.376953 0.5
vt 0.994141 0.5

# verts
v -0.3 0.1 0.1
v -0.3 0.1 -0.2
v -0.3 0.4 0.1
v -0.3 0.4 0
v -0.3 0.4 -0.1
v -0.3 0.4 -0.2
v -0.3 0.5 0
v -0.3 0.5 -0.1
v -0.2 -5.96046e-08 0.1
v -0.2 -5.96046e-08 -0.2
v -0.2 0.1 0.2
v -0.2 0.1 0.1
v -0.2 0.1 -0.2
v -0.2 0.1 -0.3
v -0.2 0.4 0.2
v -0.2 0.4 0.1
v -0.2 0.4 0
v -0.2 0.4 -0.1
v -0.2 0.4 -0.2
v -0.2 0.4 -0.3
v -0.2 0.5 0.1
v -0.2 0.5 0
v -0.2 0.5 -0.1
v -0.2 0.5 -0.2
v -0.1 -0.5 0.1
v -0.1 -0.5 -0.2
v -0.1 -0.2 0.1
v -0.1 -0.2 0
v -0.1 -0.2 -0.1
v -0.1 -0.2 -0.2
v -0.1 -0.1 0
v -0.1 -0.1 -0.1
v -0.1 -5.96046e-08 0.2
v -0.1 -5.96046e-08 0.1
v -0.1 -5.96046e-08 -0.2
v -0.1 -5.96046e-08 -0.3
v -0.1 0.1 0.2
v -0.1 0.1 0.1
v -0.1 0.1 -0.2
v -0.1 0.1 -0.3
v -0.1 0.2 0.3
v -0.1 0.2 0.2
v -0.1 0.2 -0.3
v -0.1 0.2 -0.4
v -0.1 0.3 0.3
v -0.1 0.3 0.2
v -0.1 0.3 -0.3
v -0.1 0.3 -0.4
v -0.1 0.4 0.2
v -0.1 0.4 0.1
v -0.1 0.4 -0.2
v -0.1 0.4 -0.3
v -0.1 0.5 0.2
v -0.1 0.5 0.1
v -0.1 0.5 -0.2
v -0.1 0.5 -0.3
v -0.1 0.6 0.1
v -0.1 0.6 -0.2
v 0 -0.5 0.2
v 0 -0.5 0.1
v 0 -0.5 -0.2
v 0 -0.5 -0.3
v 0 -0.2 0.1
v 0 -0.2 0
v 0 -0.2 -0.1
v 0 -0.2 -0.2
v 0 -0.1 0.2
v 0 -0.1 0.1
v 0 -0.1 0
v 0 -0.1 -0.1
v 0 -0.1 -0.2
v 0 -0.1 -0.3
v 0 -5.96046e-08 0.1
v 0 -5.96046e-08 -0.2
v 0 0.1 0.3
v 0 0.1 0.2
v 0 0.1 -0.3
v 0 0.1 -0.4
v 0 0.2 0.3
v 0 0.2 0.2
v 0 0.2 -0.3
v 0 0.2 -0.4
v 0 0.3 0.3
v 0 0.3 0.2
v 0 0.3 -0.3
v 0 0.3 -0.4
v 0 0.4 0.3
v 0 0.4 0.2
v 0 0.4 -0.3
v 0 0.4 -0.4
v 0.1 -0.6 0.1
v 0.1 -0.6 0
v 0.1 -0.6 -0.1
v 0.1 -0.6 -0.2
v 0.1 -0.5 0.1
v 0.1 -0.5 0
v 0.1 -0.5 -0.1
v 0.1 -0.5 -0.2
v 0.1 -0.4 0.3
v 0.1 -0.4 0.2
v 0.1 -0.4 -0.3
v 0.1 -0.4 -0.4
v 0.1 -0.2 0.3
v 0.1 -0.2 0.2
v 0.1 -0.2 -0.3
v 0.1 -0.2 -0.4
v 0.1 0.4 0.3
v 0.1 0.4 0.2
v 0.1 0.4 -0.3
v 0.1 0.4 -0.4
v 0.1 0.5 0.3
v 0.1 0.5 0.2
v 0.1 0.5 0.1
v 0.1 0.5 -0.2
v 0.1 0.5 -0.3
v 0.1 0.5 -0.4
v 0.1 0.6 0.2
v 0.1 0.6 0.1
v 0.1 0.6 -0.2
v 0.1 0.6 -0.3
v 0.2 -0.4 0.3
v 0.2 -0.4 0.2
v 0.2 -0.4 -0.3
v 0.2 -0.4 -0.4
v 0.2 -0.2 0.3
v 0.2 -0.2 0.2
v 0.2 -0.2 -0.3
v 0.2 -0.2 -0.4
v 0.2 0.4 0.3
v 0.2 0.4 0.2
v 0.2 0.4 -0.3
v 0.2 0.4 -0.4
v 0.2 0.5 0.3
v 0.2 0.5 0.2
v 0.2 0.5 0.1
v 0.2 0.5 -0.2
v 0.2 0.5 -0.3
v 0.2 0.5 -0.4
v 0.2 0.6 0.2
v 0.2 0.6 0.1
v 0.2 0.6 -0.2
v 0.2 0.6 -0.3
v 0.3 -0.5 0.2
v 0.3 -0.5 0.1
v 0.3 -0.5 -0.2
v 0.3 -0.5 -0.3
v 0.3 -0.4 0.2
v 0.3 -0.4 0.1
v 0.3 -0.4 -0.2
v 0.3 -0.4 -0.3
v 0.3 -0.2 0.2
v 0.3 -0.2 0.1
v 0.3 -0.2 -0.2
v 0.3 -0.2 -0.3
v 0.3 -0.1 0.2
v 0.3 -0.1 0.1
v 0.3 -0.1 -0.2
v 0.3 -0.1 -0.3
v 0.3 -5.96046e-08 0.2
v 0.3 -5.96046e-08 0.1
v 0.3 -5.96046e-08 -0.2
v 0.3 -5.96046e-08 -0.3
v 0.3 0.1 0.3
v 0.3 0.1 0.2
v 0.3 0.1 0.1
v 0.3 0.1 -0.2
v 0.3 0.1 -0.3
v 0.3 0.1 -0.4
v 0.3 0.4 0.3
v 0.3 0.4 0.2
v 0.3 0.4 -0.3
v 0.3 0.4 -0.4
v 0.4 -0.6 0.1
v 0.4 -0.6 0
v 0.4 -0.6 -0.1
v 0.4 -0.6 -0.2
v 0.4 -0.5 0.1
v 0.4 -0.5 0
v 0.4 -0.5 -0.1
v 0.4 -0.5 -0.2
v 0.4 -0.4 0.2
v 0.4 -0.4 0.1
v 0.4 -0.4 -0.2
v 0.4 -0.4 -0.3
v 0.4 -0.2 0.2
v 0.4 -0.2 0.1
v 0.4 -0.2 -0.2
v 0.4 -0.2 -0.3
v 0.4 -0.1 0.1
v 0.4 -0.1 -0.2
v 0.4 -5.96046e-08 0.1
v 0.4 -5.96046e-08 -0.2
v 0.4 0.1 0.2
v 0.4 0.1 0.1
v 0.4 0.1 -0.2
v 0.4 0.1 -0.3
v 0.4 0.3 0.1
v 0.4 0.3 0
v 0.4 0.3 -0.1
v 0.4 0.3 -0.2
v 0.4 0.4 0.2
v 0.4 0.4 0.1
v 0.4 0.4 0
v 0.4 0.4 -0.1
v 0.4 0.4 -0.2
v 0.4 0.4 -0.3
v 0.4 0.5 0.2
v 0.4 0.5 0.1
v 0.4 0.5 -0.2
v 0.4 0.5 -0.3
v 0.4 0.6 0.1
v 0.4 0.6 -0.2
v -0.1 0.2 0.3
v -0.1 0.3 0.3
v 0 0.1 0.3
v 0 0.2 0.3
v 0 0.3 0.3
v 0 0.4 0.3
v 0.1 -0.4 0.3
v 0.1 -0.2 0.3
v 0.1 0.4 0.3
v 0.1 0.5 0.3
v 0.2 -0.4 0.3
v 0.2 -0.2 0.3
v 0.2 0.4 0.3
v 0.2 0.5 0.3
v 0.3 0.1 0.3
v 0.3 0.4 0.3
v -0.2 0.1 0.2
v -0.2 0.4 0.2
v -0.1 -5.96046e-08 0.2
v -0.1 0.1 0.2
v -0.1 0.2 0.2
v -0.1 0.3 0.2
v -0.1 0.4 0.2
v -0.1 0.5 0.2
v 0 -0.5 0.2
v 0 -0.1 0.2
v 0 0.1 0.2
v 0 0.2 0.2
v 0 0.3 0.2
v 0 0.4 0.2
v 0.1 -0.4 0.2
v 0.1 -0.2 0.2
v 0.1 0.4 0.2
v 0.1 0.5 0.2
v 0.1 0.6 0.2
v 0.2 -0.4 0.2
v 0.2 -0.2 0.2
v 0.2 0.4 0.2
v 0.2 0.5 0.2
v 0.2 0.6 0.2
v 0.3 -0.5 0.2
v 0.3 -0.4 0.2
v 0.3 -0.2 0.2
v 0.3 -0.1 0.2
v 0.3 -5.96046e-08 0.2
v 0.3 0.1 0.2
v 0.3 0.4 0.2
v 0.4 -0.4 0.2
v 0.4 -0.2 0.2
v 0.4 0.1 0.2
v 0.4 0.4 0.2
v 0.4 0.5 0.2
v -0.3 0.1 0.1
v -0.3 0.4 0.1
v -0.2 -5.96046e-08 0.1
v -0.2 0.1 0.1
v -0.2 0.4 0.1
v -0.2 0.5 0.1
v -0.1 -0.5 0.1
v -0.1 -0.2 0.1
v -0.1 -5.96046e-08 0.1
v -0.1 0.1 0.1
v -0.1 0.4 0.1
v -0.1 0.5 0.1
v -0.1 0.6 0.1
v 0 -0.5 0.1
v 0 -0.2 0.1
v 0 -0.1 0.1
v 0 -5.96046e-08 0.1
v 0.1 -0.6 0.1
v 0.1 -0.5 0.1
v 0.1 0.5 0.1
v 0.1 0.6 0.1
v 0.2 0.5 0.1
v 0.2 0.6 0.1
v 0.3 -0.5 0.1
v 0.3 -0.4 0.1
v 0.3 -0.2 0.1
v 0.3 -0.1 0.1
v 0.3 -5.96046e-08 0.1
v 0.3 0.1 0.1
v 0.4 -0.6 0.1
v 0.4 -0.5 0.1
v 0.4 -0.4 0.1
v 0.4 -0.2 0.1
v 0.4 -0.1 0.1
v 0.4 -5.96046e-08 0.1
v 0.4 0.1 0.1
v 0.4 0.5 0.1
v 0.4 0.6 0.1
v -0.3 0.4 0
v -0.3 0.5 0
v -0.2 0.4 0
v -0.2 0.5 0
v -0.1 -0.2 0
v -0.1 -0.1 0
v 0 -0.2 0
v 0 -0.1 0
v 0.1 -0.6 -0.1
v 0.1 -0.5 -0.1
v 0.4 -0.6 -0.1
v 0.4 -0.5 -0.1
v 0.1 -0.6 0
v 0.1 -0.5 0
v 0.4 -0.6 0
v 0.4 -0.5 0
v -0.3 0.4 -0.1
v -0.3 0.5 -0.1
v -0.2 0.4 -0.1
v -0.2 0.5 -0.1
v -0.1 -0.2 -0.1
v -0.1 -0.1 -0.1
v 0 -0.2 -0.1
v 0 -0.1 -0.1
v -0.3 0.1 -0.2
v -0.3 0.4 -0.2
v -0.2 -5.96046e-08 -0.2
v -0.2 0.1 -0.2
v -0.2 0.4 -0.2
v -0.2 0.5 -0.2
v -0.1 -0.5 -0.2
v -0.1 -0.2 -0.2
v -0.1 -5.96046e-08 -0.2
v -0.1 0.1 -0.2
v -0.1 0.4 -0.2
v -0.1 0.5 -0.2
v -0.1 0.6 -0.2
v 0 -0.5 -0.2
v 0 -0.2 -0.2
v 0 -0.1 -0.2
v 0 -5.96046e-08 -0.2
v 0.1 -0.6 -0.2
v 0.1 -0.5 -0.2
v 0.1 0.5 -0.2
v 0.1 0.6 -0.2
v 0.2 0.5 -0.2
v 0.2 0.6 -0.2
v 0.3 -0.5 -0.2
v 0.3 -0.4 -0.2
v 0.3 -0.2 -0.2
v 0.3 -0.1 -0.2
v 0.3 -5.96046e-08 -0.2
v 0.3 0.1 -0.2
v 0.4 -0.6 -0.2
v 0.4 -0.5 -0.2
v 0.4 -0.4 -0.2
v 0.4 -0.2 -0.2
v 0.4 -0.1 -0.2
v 0.4 -5.96046e-08 -0.2
v 0.4 0.1 -0.2
v 0.4 0.5 -0.2
v 0.4 0.6 -0.2
v -0.2 0.1 -0.3
v -0.2 0.4 -0.3
v -0.1 -5.96046e-08 -0.3
v -0.1 0.1 -0.3
v -0.1 0.2 -0.3
v -0.1 0.3 -0.3
v -0.1 0.4 -0.3
v -0.1 0.5 -0.3
v 0 -0.5 -0.3
v 0 -0.1 -0.3
v 0 0.1 -0.3
v 0 0.2 -0.3
v 0 0.3 -0.3
v 0 0.4 -0.3
v 0.1 -0.4 -0.3
v 0.1 -0.2 -0.3
v 0.1 0.4 -0.3
v 0.1 0.5 -0.3
v 0.1 0.6 -0.3
v 0.2 -0.4 -0.3
v 0.2 -0.2 -0.3
v 0.2 0.4 -0.3
v 0.2 0.5 -0.3
v 0.2 0.6 -0.3
v 0.3 -0.5 -0.3
v 0.3 -0.4 -0.3
v 0.3 -0.2 -0.3
v 0.3 -0.1 -0.3
v 0.3 -5.96046e-08 -0.3
v 0.3 0.1 -0.3
v 0.3 0.4 -0.3
v 0.4 -0.4 -0.3
v 0.4 -0.2 -0.3
v 0.4 0.1 -0.3
v 0.4 0.4 -0.3
v 0.4 0.5 -0.3
v -0.1 0.2 -0.4
v -0.1 0.3 -0.4
v 0 0.1 -0.4
v 0 0.2 -0.4
v 0 0.3 -0.4
v 0 0.4 -0.4
v 0.1 -0.4 -0.4
v 0.1 -0.2 -0.4
v 0.1 0.4 -0.4
v 0.1 0.5 -0.4
v 0.2 -0.4 -0.4
v 0.2 -0.2 -0.4
v 0.2 0.4 -0.4
v 0.2 0.5 -0.4
v 0.3 0.1 -0.4
v 0.3 0.4 -0.4
v 0.1 -0.6 0.1
v 0.4 -0.6 0.1
v 0.1 -0.6 0
v 0.4 -0.6 0
v 0.1 -0.6 -0.1
v 0.4 -0.6 -0.1
v 0.1 -0.6 -0.2
v 0.4 -0.6 -0.2
v 0 -0.5 0.2
v 0.3 -0.5 0.2
v -0.1 -0.5 0.1
v 0 -0.5 0.1
v 0.1 -0.5 0.1
v 0.3 -0.5 0.1
v 0.1 -0.5 0
v 0.4 -0.5 0
v 0.1 -0.5 -0.1
v 0.4 -0.5 -0.1
v -0.1 -0.5 -0.2
v 0 -0.5 -0.2
v 0.1 -0.5 -0.2
v 0.3 -0.5 -0.2
v 0 -0.5 -0.3
v 0.3 -0.5 -0.3
v 0.1 -0.4 0.3
v 0.2 -0.4 0.3
v 0.1 -0.4 0.2
v 0.2 -0.4 0.2
v 0.3 -0.4 0.2
v 0.4 -0.4 0.2
v 0.3 -0.4 0.1
v 0.4 -0.4 0.1
v 0.3 -0.4 -0.2
v 0.4 -0.4 -0.2
v 0.1 -0.4 -0.3
v 0.2 -0.4 -0.3
v 0.3 -0.4 -0.3
v 0.4 -0.4 -0.3
v 0.1 -0.4 -0.4
v 0.2 -0.4 -0.4
v -0.1 -5.96046e-08 0.2
v 0.3 -5.96046e-08 0.2
v -0.2 -5.96046e-08 0.1
v -0.1 -5.96046e-08 0.1
v 0 -5.96046e-08 0.1
v 0.3 -5.96046e-08 0.1
v 0.4 -5.96046e-08 0.1
v -0.2 -5.96046e-08 -0.2
v -0.1 -5.96046e-08 -0.2
v 0 -5.96046e-08 -0.2
v 0.3 -5.96046e-08 -0.2
v 0.4 -5.96046e-08 -0.2
v -0.1 -5.96046e-08 -0.3
v 0.3 -5.96046e-08 -0.3
v 0 0.1 0.3
v 0.3 0.1 0.3
v -0.2 0.1 0.2
v -0.1 0.1 0.2
v 0 0.1 0.2
v 0.3 0.1 0.2
v 0.4 0.1 0.2
v -0.3 0.1 0.1
v -0.2 0.1 0.1
v -0.1 0.1 0.1
v 0.3 0.1 0.1
v 0.4 0.1 0.1
v -0.3 0.1 -0.2
v -0.2 0.1 -0.2
v -0.1 0.1 -0.2
v 0.3 0.1 -0.2
v 0.4 0.1 -0.2
v -0.2 0.1 -0.3
v -0.1 0.1 -0.3
v 0 0.1 -0.3
v 0.3 0.1 -0.3
v 0.4 0.1 -0.3
v 0 0.1 -0.4
v 0.3 0.1 -0.4
v -0.1 0.2 0.3
v 0 0.2 0.3
v -0.1 0.2 0.2
v 0 0.2 0.2
v -0.1 0.2 -0.3
v 0 0.2 -0.3
v -0.1 0.2 -0.4
v 0 0.2 -0.4
v 0.1 -0.2 0.3
v 0.2 -0.2 0.3
v 0.1 -0.2 0.2
v 0.2 -0.2 0.2
v 0.3 -0.2 0.2
v 0.4 -0.2 0.2
v -0.1 -0.2 0.1
v 0 -0.2 0.1
v 0.3 -0.2 0.1
v 0.4 -0.2 0.1
v -0.1 -0.2 0
v 0 -0.2 0
v -0.1 -0.2 -0.1
v 0 -0.2 -0.1
v -0.1 -0.2 -0.2
v 0 -0.2 -0.2
v 0.3 -0.2 -0.2
v 0.4 -0.2 -0.2
v 0.1 -0.2 -0.3
v 0.2 -0.2 -0.3
v 0.3 -0.2 -0.3
v 0.4 -0.2 -0.3
v 0.1 -0.2 -0.4
v 0.2 -0.2 -0.4
v 0 -0.1 0.2
v 0.3 -0.1 0.2
v 0 -0.1 0.1
v 0.3 -0.1 0.1
v 0.4 -0.1 0.1
v -0.1 -0.1 0
v 0 -0.1 0
v -0.1 -0.1 -0.1
v 0 -0.1 -0.1
v 0 -0.1 -0.2
v 0.3 -0.1 -0.2
v 0.4 -0.1 -0.2
v 0 -0.1 -0.3
v 0.3 -0.1 -0.3
v -0.1 0.3 0.3
v 0 0.3 0.3
v -0.1 0.3 0.2
v 0 0.3 0.2
v -0.1 0.3 -0.3
v 0 0.3 -0.3
v -0.1 0.3 -0.4
v 0 0.3 -0.4
v 0 0.4 0.3
v 0.1 0.4 0.3
v 0.2 0.4 0.3
v 0.3 0.4 0.3
v -0.2 0.4 0.2
v -0.1 0.4 0.2
v 0 0.4 0.2
v 0.1 0.4 0.2
v 0.2 0.4 0.2
v 0.3 0.4 0.2
v -0.3 0.4 0.1
v -0.2 0.4 0.1
v -0.1 0.4 0.1
v -0.3 0.4 0
v -0.2 0.4 0
v -0.3 0.4 -0.1
v -0.2 0.4 -0.1
v -0.3 0.4 -0.2
v -0.2 0.4 -0.2
v -0.1 0.4 -0.2
v -0.2 0.4 -0.3
v -0.1 0.4 -0.3
v 0 0.4 -0.3
v 0.1 0.4 -0.3
v 0.2 0.4 -0.3
v 0.3 0.4 -0.3
v 0 0.4 -0.4
v 0.1 0.4 -0.4
v 0.2 0.4 -0.4
v 0.3 0.4 -0.4
v 0.1 0.5 0.3
v 0.2 0.5 0.3
v -0.1 0.5 0.2
v 0.1 0.5 0.2
v 0.2 0.5 0.2
v 0.4 0.5 0.2
v -0.2 0.5 0.1
v -0.1 0.5 0.1
v 0.1 0.5 0.1
v 0.2 0.5 0.1
v 0.4 0.5 0.1
v -0.3 0.5 0
v -0.2 0.5 0
v -0.3 0.5 -0.1
v -0.2 0.5 -0.1
v -0.2 0.5 -0.2
v -0.1 0.5 -0.2
v 0.1 0.5 -0.2
v 0.2 0.5 -0.2
v 0.4 0.5 -0.2
v -0.1 0.5 -0.3
v 0.1 0.5 -0.3
v 0.2 0.5 -0.3
v 0.4 0.5 -0.3
v 0.1 0.5 -0.4
v 0.2 0.5 -0.4
v 0.1 0.6 0.2
v 0.2 0.6 0.2
v -0.1 0.6 0.1
v 0.1 0.6 0.1
v 0.2 0.6 0.1
v 0.4 0.6 0.1
v -0.1 0.6 -0.2
v 0.1 0.6 -0.2
v 0.2 0.6 -0.2
v 0.4 0.6 -0.2
v 0.1 0.6 -0.3
v 0.2 0.6 -0.3

# faces
f 3/3/1 2/3/1 1/3/1
f 4/3/1 2/3/1 3/3/1
f 5/3/1 2/3/1 4/3/1
f 6/3/1 2/3/1 5/3/1
f 7/3/1 5/3/1 4/3/1
f 8/3/1 5/3/1 7/3/1
f 12/3/1 10/3/1 9/3/1
f 13/3/1 10/3/1 12/3/1
f 15/3/1 12/3/1 11/3/1
f 16/3/1 12/3/1 15/3/1
f 19/3/1 14/3/1 13/3/1
f 20/3/1 14/3/1 19/3/1
f 21/3/1 17/3/1 16/3/1
f 22/3/1 17/3/1 21/3/1
f 23/3/1 19/3/1 18/3/1
f 24/3/1 19/3/1 23/3/1
f 27/3/1 26/3/1 25/3/1
f 28/3/1 26/3/1 27/3/1
f 29/3/1 26/3/1 28/3/1
f 30/3/1 26/3/1 29/3/1
f 31/3/1 29/3/1 28/3/1
f 32/3/1 29/3/1 31/3/1
f 37/3/1 34/3/1 33/3/1
f 38/3/1 34/3/1 37/3/1
f 39/3/1 36/3/1 35/3/1
f 40/3/1 36/3/1 39/3/1
f 45/3/1 42/3/1 41/3/1
f 46/3/1 42/3/1 45/3/1
f 47/3/1 44/3/1 43/3/1
f 48/3/1 44/3/1 47/3/1
f 53/3/1 50/3/1 49/3/1
f 54/3/1 50/3/1 53/3/1
f 55/3/1 52/3/1 51/3/1
f 56/3/1 52/3/1 55/3/1
f 57/3/1 55/3/1 54/3/1
f 58/3/1 55/3/1 57/3/1
f 63/3/1 60/3/1 59/3/1
f 66/3/1 62/3/1 61/3/1
f 67/3/1 64/3/1 63/3/1
f 67/3/1 63/3/1 59/3/1
f 68/3/1 64/3/1 67/3/1
f 69/3/1 64/3/1 68/3/1
f 70/3/1 66/3/1 65/3/1
f 71/3/1 62/3/1 66/3/1
f 71/3/1 66/3/1 70/3/1
f 72/3/1 62/3/1 71/3/1
f 73/4/1 69/4/1 68/4/1
f 73/4/1 70/4/1 69/4/1
f 73/4/1 71/4/1 70/4/1
f 74/4/1 71/4/1 73/4/1
f 79/3/1 76/3/1 75/3/1
f 80/3/1 76/3/1 79/3/1
f 81/3/1 78/3/1 77/3/1
f 82/3/1 78/3/1 81/3/1
f 87/3/1 84/3/1 83/3/1
f 88/3/1 84/3/1 87/3/1
f 89/3/1 86/3/1 85/3/1
f 90/3/1 86/3/1 89/3/1
f 95/4/1 92/4/1 91/4/1
f 96/4/1 92/4/1 95/4/1
f 97/4/1 94/4/1 93/4/1
f 98/4/1 94/4/1 97/4/1
f 103/4/1 100/4/1 99/4/1
f 104/4/1 100/4/1 103/4/1
f 105/4/1 102/4/1 101/4/1
f 106/4/1 102/4/1 105/4/1
f 111/3/1 108/3/1 107/3/1
f 112/3/1 108/3/1 111/3/1
f 115/3/1 110/3/1 109/3/1
f 116/3/1 110/3/1 115/3/1
f 117/3/1 113/3/1 112/3/1
f 118/3/1 113/3/1 117/3/1
f 119/3/1 115/3/1 114/3/1
f 120/3/1 115/3/1 119/3/1
f 121/4/2 122/4/2 125/4/2
f 125/4/2 122/4/2 126/4/2
f 123/4/2 124/4/2 127/4/2
f 127/4/2 124/4/2 128/4/2
f 129/3/2 130/3/2 133/3/2
f 133/3/2 130/3/2 134/3/2
f 131/3/2 132/3/2 137/3/2
f 137/3/2 132/3/2 138/3/2
f 134/3/2 135/3/2 139/3/2
f 139/3/2 135/3/2 140/3/2
f 136/3/2 137/3/2 141/3/2
f 141/3/2 137/3/2 142/3/2
f 143/3/2 144/3/2 147/3/2
f 147/3/2 144/3/2 148/3/2
f 145/3/2 146/3/2 149/3/2
f 149/3/2 146/3/2 150/3/2
f 151/3/2 152/3/2 155/3/2
f 155/3/2 152/3/2 156/3/2
f 153/3/2 154/3/2 157/3/2
f 157/3/2 154/3/2 158/3/2
f 156/4/2 157/4/2 160/4/2
f 160/4/2 157/4/2 161/4/2
f 159/3/2 160/3/2 164/3/2
f 164/3/2 160/3/2 165/3/2
f 161/3/2 162/3/2 166/3/2
f 166/3/2 162/3/2 167/3/2
f 163/3/2 164/3/2 169/3/2
f 169/3/2 164/3/2 170/3/2
f 167/3/2 168/3/2 171/3/2
f 171/3/2 168/3/2 172/3/2
f 173/4/2 174/4/2 177/4/2
f 177/4/2 174/4/2 178/4/2
f 175/4/2 176/4/2 179/4/2
f 179/4/2 176/4/2 180/4/2
f 177/3/2 178/3/2 182/3/2
f 178/3/2 179/3/2 182/3/2
f 179/3/2 180/3/2 182/3/2
f 182/3/2 180/3/2 183/3/2
f 182/3/2 183/3/2 185/3/2
f 183/3/2 184/3/2 185/3/2
f 181/3/2 182/3/2 185/3/2
f 185/3/2 184/3/2 186/3/2
f 186/3/2 184/3/2 187/3/2
f 187/3/2 184/3/2 188/3/2
f 186/3/2 187/3/2 189/3/2
f 189/3/2 187/3/2 190/3/2
f 191/4/2 192/4/2 194/4/2
f 194/4/2 192/4/2 195/4/2
f 194/4/2 195/4/2 197/4/2
f 195/4/2 196/4/2 197/4/2
f 193/4/2 194/4/2 197/4/2
f 197/4/2 196/4/2 198/4/2
f 198/4/2 196/4/2 199/4/2
f 199/4/2 196/4/2 200/4/2
f 193/4/2 197/4/2 201/4/2
f 197/1/2 198/1/2 202/1/2
f 201/4/2 197/4/2 202/4/2
f 198/4/2 199/4/2 203/4/2
f 202/1/2 198/1/2 203/1/2
f 199/1/2 200/1/2 204/1/2
f 203/4/2 199/4/2 204/4/2
f 200/4/2 196/4/2 205/4/2
f 204/1/2 200/1/2 205/1/2
f 205/4/2 196/4/2 206/4/2
f 201/3/2 202/3/2 207/3/2
f 203/4/2 204/4/2 208/4/2
f 207/3/2 202/3/2 208/3/2
f 202/4/2 203/4/2 208/4/2
f 204/4/2 205/4/2 208/4/2
f 205/3/2 206/3/2 209/3/2
f 208/4/2 205/4/2 209/4/2
f 209/3/2 206/3/2 210/3/2
f 208/3/2 209/3/2 211/3/2
f 211/3/2 209/3/2 212/3/2
f 216/3/3 214/3/3 213/3/3
f 217/3/3 214/3/3 216/3/3
f 221/3/3 216/3/3 215/3/3
f 221/3/3 217/3/3 216/3/3
f 221/3/3 218/3/3 217/3/3
f 223/4/3 220/4/3 219/4/3
f 224/4/3 220/4/3 223/4/3
f 225/3/3 222/3/3 221/3/3
f 225/3/3 221/3/3 215/3/3
f 226/3/3 222/3/3 225/3/3
f 227/3/3 225/3/3 215/3/3
f 228/3/3 225/3/3 227/3/3
f 232/3/3 230/3/3 229/3/3
f 233/3/3 230/3/3 232/3/3
f 234/3/3 230/3/3 233/3/3
f 235/3/3 230/3/3 234/3/3
f 239/3/3 232/3/3 231/3/3
f 239/3/3 233/3/3 232/3/3
f 240/3/3 233/3/3 239/3/3
f 241/3/3 235/3/3 234/3/3
f 241/3/3 236/3/3 235/3/3
f 242/3/3 236/3/3 241/3/3
f 243/3/3 238/3/3 237/3/3
f 244/3/3 238/3/3 243/3/3
f 245/3/3 236/3/3 242/3/3
f 246/3/3 236/3/3 245/3/3
f 248/3/3 243/3/3 237/3/3
f 249/3/3 238/3/3 244/3/3
f 251/3/3 247/3/3 246/3/3
f 252/3/3 247/3/3 251/3/3
f 253/3/3 248/3/3 237/3/3
f 253/3/3 249/3/3 248/3/3
f 254/3/3 249/3/3 253/3/3
f 255/3/3 238/3/3 249/3/3
f 255/3/3 249/3/3 254/3/3
f 256/3/3 238/3/3 255/3/3
f 257/3/3 239/3/3 231/3/3
f 258/3/3 239/3/3 257/3/3
f 259/3/3 251/3/3 250/3/3
f 260/3/3 255/3/3 254/3/3
f 261/3/3 255/3/3 260/3/3
f 262/4/3 259/4/3 258/4/3
f 263/3/3 251/3/3 259/3/3
f 263/4/3 259/4/3 262/4/3
f 264/3/3 251/3/3 263/3/3
f 268/3/3 266/3/3 265/3/3
f 269/3/3 266/3/3 268/3/3
f 273/3/3 268/3/3 267/3/3
f 274/3/3 268/3/3 273/3/3
f 275/3/3 270/3/3 269/3/3
f 276/3/3 270/3/3 275/3/3
f 278/3/3 272/3/3 271/3/3
f 279/3/3 272/3/3 278/3/3
f 284/3/3 277/3/3 276/3/3
f 285/3/3 277/3/3 284/3/3
f 288/4/3 283/4/3 282/4/3
f 291/4/3 281/4/3 280/4/3
f 292/4/3 281/4/3 291/4/3
f 294/4/3 288/4/3 282/4/3
f 295/3/3 289/3/3 288/3/3
f 295/4/3 288/4/3 294/4/3
f 296/3/3 289/3/3 295/3/3
f 297/3/3 291/3/3 290/3/3
f 298/3/3 291/3/3 297/3/3
f 299/4/3 293/4/3 292/4/3
f 300/4/3 293/4/3 299/4/3
f 301/3/3 287/3/3 286/3/3
f 302/3/3 287/3/3 301/3/3
f 305/3/3 304/3/3 303/3/3
f 306/3/3 304/3/3 305/3/3
f 309/3/3 308/3/3 307/3/3
f 310/3/3 308/3/3 309/3/3
f 313/4/3 312/4/3 311/4/3
f 314/4/3 312/4/3 313/4/3
f 315/4/4 316/4/4 317/4/4
f 317/4/4 316/4/4 318/4/4
f 319/3/4 320/3/4 321/3/4
f 321/3/4 320/3/4 322/3/4
f 323/3/4 324/3/4 325/3/4
f 325/3/4 324/3/4 326/3/4
f 327/3/4 328/3/4 330/3/4
f 330/3/4 328/3/4 331/3/4
f 329/3/4 330/3/4 335/3/4
f 335/3/4 330/3/4 336/3/4
f 331/3/4 332/3/4 337/3/4
f 337/3/4 332/3/4 338/3/4
f 333/3/4 334/3/4 340/3/4
f 340/3/4 334/3/4 341/3/4
f 338/3/4 339/3/4 346/3/4
f 346/3/4 339/3/4 347/3/4
f 344/4/4 345/4/4 350/4/4
f 342/4/4 343/4/4 353/4/4
f 353/4/4 343/4/4 354/4/4
f 344/4/4 350/4/4 356/4/4
f 350/3/4 351/3/4 357/3/4
f 356/4/4 350/4/4 357/4/4
f 357/3/4 351/3/4 358/3/4
f 352/3/4 353/3/4 359/3/4
f 359/3/4 353/3/4 360/3/4
f 354/4/4 355/4/4 361/4/4
f 361/4/4 355/4/4 362/4/4
f 348/3/4 349/3/4 363/3/4
f 363/3/4 349/3/4 364/3/4
f 365/3/4 366/3/4 368/3/4
f 368/3/4 366/3/4 369/3/4
f 369/3/4 366/3/4 370/3/4
f 370/3/4 366/3/4 371/3/4
f 367/3/4 368/3/4 375/3/4
f 368/3/4 369/3/4 375/3/4
f 375/3/4 369/3/4 376/3/4
f 370/3/4 371/3/4 377/3/4
f 371/3/4 372/3/4 377/3/4
f 377/3/4 372/3/4 378/3/4
f 373/3/4 374/3/4 379/3/4
f 379/3/4 374/3/4 380/3/4
f 378/3/4 372/3/4 381/3/4
f 381/3/4 372/3/4 382/3/4
f 373/3/4 379/3/4 384/3/4
f 380/3/4 374/3/4 385/3/4
f 382/3/4 383/3/4 387/3/4
f 387/3/4 383/3/4 388/3/4
f 373/3/4 384/3/4 389/3/4
f 384/3/4 385/3/4 389/3/4
f 389/3/4 385/3/4 390/3/4
f 385/3/4 374/3/4 391/3/4
f 390/3/4 385/3/4 391/3/4
f 391/3/4 374/3/4 392/3/4
f 367/3/4 375/3/4 393/3/4
f 393/3/4 375/3/4 394/3/4
f 386/3/4 387/3/4 395/3/4
f 390/3/4 391/3/4 396/3/4
f 396/3/4 391/3/4 397/3/4
f 394/4/4 395/4/4 398/4/4
f 395/3/4 387/3/4 399/3/4
f 398/4/4 395/4/4 399/4/4
f 399/3/4 387/3/4 400/3/4
f 401/3/4 402/3/4 404/3/4
f 404/3/4 402/3/4 405/3/4
f 403/3/4 404/3/4 409/3/4
f 404/3/4 405/3/4 409/3/4
f 405/3/4 406/3/4 409/3/4
f 407/4/4 408/4/4 411/4/4
f 411/4/4 408/4/4 412/4/4
f 409/3/4 410/3/4 413/3/4
f 403/3/4 409/3/4 413/3/4
f 413/3/4 410/3/4 414/3/4
f 403/3/4 413/3/4 415/3/4
f 415/3/4 413/3/4 416/3/4
f 419/4/5 418/4/5 417/4/5
f 420/4/5 418/4/5 419/4/5
f 423/4/5 422/4/5 421/4/5
f 424/4/5 422/4/5 423/4/5
f 428/3/5 426/3/5 425/3/5
f 429/3/5 426/3/5 428/3/5
f 430/3/5 426/3/5 429/3/5
f 431/3/5 428/3/5 427/3/5
f 431/3/5 429/3/5 428/3/5
f 433/3/5 431/3/5 427/3/5
f 433/3/5 432/3/5 431/3/5
f 434/3/5 432/3/5 433/3/5
f 435/3/5 433/3/5 427/3/5
f 436/3/5 433/3/5 435/3/5
f 437/3/5 433/3/5 436/3/5
f 439/3/5 438/3/5 437/3/5
f 439/3/5 437/3/5 436/3/5
f 440/3/5 438/3/5 439/3/5
f 443/4/5 442/4/5 441/4/5
f 444/4/5 442/4/5 443/4/5
f 447/3/5 446/3/5 445/3/5
f 448/3/5 446/3/5 447/3/5
f 453/3/5 450/3/5 449/3/5
f 454/3/5 450/3/5 453/3/5
f 455/4/5 452/4/5 451/4/5
f 456/4/5 452/4/5 455/4/5
f 460/3/5 458/3/5 457/3/5
f 461/3/5 458/3/5 460/3/5
f 462/3/5 458/3/5 461/3/5
f 464/3/5 460/3/5 459/3/5
f 464/3/5 461/3/5 460/3/5
f 465/3/5 461/3/5 464/3/5
f 466/3/5 461/3/5 465/3/5
f 467/4/5 463/4/5 462/4/5
f 468/4/5 463/4/5 467/4/5
f 469/3/5 466/3/5 465/3/5
f 469/3/5 467/3/5 466/3/5
f 470/3/5 467/3/5 469/3/5
f 475/3/5 472/3/5 471/3/5
f 476/3/5 472/3/5 475/3/5
f 479/3/5 474/3/5 473/3/5
f 480/3/5 474/3/5 479/3/5
f 481/4/5 477/4/5 476/4/5
f 482/4/5 477/4/5 481/4/5
f 483/3/5 479/3/5 478/3/5
f 484/3/5 479/3/5 483/3/5
f 488/3/5 485/3/5 484/3/5
f 489/3/5 485/3/5 488/3/5
f 491/4/5 487/4/5 486/4/5
f 492/4/5 487/4/5 491/4/5
f 493/3/5 491/3/5 490/3/5
f 494/3/5 491/3/5 493/3/5
f 497/3/5 496/3/5 495/3/5
f 498/3/5 496/3/5 497/3/5
f 501/3/5 500/3/5 499/3/5
f 502/3/5 500/3/5 501/3/5
f 503/4/6 504/4/6 505/4/6
f 505/4/6 504/4/6 506/4/6
f 507/3/6 508/3/6 511/3/6
f 511/3/6 508/3/6 512/3/6
f 509/3/6 510/3/6 513/3/6
f 513/3/6 510/3/6 514/3/6
f 515/3/6 516/3/6 517/3/6
f 517/3/6 516/3/6 518/3/6
f 519/3/6 520/3/6 523/3/6
f 523/3/6 520/3/6 524/3/6
f 521/4/6 522/4/6 525/4/6
f 525/4/6 522/4/6 526/4/6
f 527/3/6 528/3/6 529/3/6
f 529/3/6 528/3/6 530/3/6
f 532/3/6 533/3/6 534/3/6
f 534/3/6 533/3/6 535/3/6
f 530/3/6 531/3/6 537/3/6
f 537/3/6 531/3/6 538/3/6
f 536/3/6 537/3/6 539/3/6
f 539/3/6 537/3/6 540/3/6
f 541/3/6 542/3/6 543/3/6
f 543/3/6 542/3/6 544/3/6
f 545/3/6 546/3/6 547/3/6
f 547/3/6 546/3/6 548/3/6
f 549/3/6 550/3/6 555/3/6
f 555/3/6 550/3/6 556/3/6
f 551/3/6 552/3/6 557/3/6
f 557/3/6 552/3/6 558/3/6
f 553/3/6 554/3/6 560/3/6
f 560/3/6 554/3/6 561/3/6
f 559/3/6 560/3/6 562/3/6
f 562/3/6 560/3/6 563/3/6
f 564/3/6 565/3/6 566/3/6
f 566/3/6 565/3/6 567/3/6
f 567/3/6 568/3/6 569/3/6
f 569/3/6 568/3/6 570/3/6
f 571/3/6 572/3/6 575/3/6
f 575/3/6 572/3/6 576/3/6
f 573/3/6 574/3/6 577/3/6
f 577/3/6 574/3/6 578/3/6
f 579/3/6 580/3/6 582/3/6
f 582/3/6 580/3/6 583/3/6
f 581/3/6 582/3/6 586/3/6
f 586/3/6 582/3/6 587/3/6
f 583/3/6 584/3/6 588/3/6
f 588/3/6 584/3/6 589/3/6
f 585/3/6 586/3/6 591/3/6
f 590/3/6 591/3/6 592/3/6
f 591/3/6 586/3/6 593/3/6
f 592/3/6 591/3/6 593/3/6
f 593/3/6 586/3/6 594/3/6
f 594/3/6 586/3/6 595/3/6
f 595/3/6 596/3/6 599/3/6
f 599/3/6 596/3/6 600/3/6
f 597/3/6 598/3/6 601/3/6
f 601/3/6 598/3/6 602/3/6
f 600/3/6 601/3/6 603/3/6
f 603/3/6 601/3/6 604/3/6
f 605/3/6 606/3/6 608/3/6
f 608/3/6 606/3/6 609/3/6
f 607/3/6 608/3/6 611/3/6
f 609/3/6 610/3/6 611/3/6
f 608/3/6 609/3/6 611/3/6
f 611/3/6 610/3/6 612/3/6
f 612/3/6 610/3/6 613/3/6
f 613/3/6 610/3/6 614/3/6
f 612/3/6 613/3/6 615/3/6
f 615/3/6 613/3/6 616/3/6
