# MagicaVoxel @ Ephtracy

# group
o 

# material
mtllib archerG.mtl
usemtl palette

# normals
vn -1 0 0
vn 1 0 0
vn 0 0 1
vn 0 0 -1
vn 0 -1 0
vn 0 1 0

# texcoords
vt 0.146484 0.5
vt 0.306641 0.5
vt 0.427734 0.5
vt 0.583984 0.5
vt 0.994141 0.5

# verts
v -0.3 0.1 0.1
v -0.3 0.1 -0.2
v -0.3 0.4 0.1
v -0.3 0.4 0
v -0.3 0.4 -0.1
v -0.3 0.4 -0.2
v -0.3 0.5 0
v -0.3 0.5 -0.1
v -0.2 -5.96046e-08 0.1
v -0.2 -5.96046e-08 -0.2
v -0.2 0.1 0.2
v -0.2 0.1 0.1
v -0.2 0.1 -0.2
v -0.2 0.1 -0.3
v -0.2 0.4 0.2
v -0.2 0.4 0.1
v -0.2 0.4 0
v -0.2 0.4 -0.1
v -0.2 0.4 -0.2
v -0.2 0.4 -0.3
v -0.2 0.5 0.1
v -0.2 0.5 0
v -0.2 0.5 -0.1
v -0.2 0.5 -0.2
v -0.1 -0.5 0.1
v -0.1 -0.5 -0.2
v -0.1 -0.2 0.1
v -0.1 -0.2 0
v -0.1 -0.2 -0.1
v -0.1 -0.2 -0.2
v -0.1 -0.1 0
v -0.1 -0.1 -0.1
v -0.1 -5.96046e-08 0.2
v -0.1 -5.96046e-08 0.1
v -0.1 -5.96046e-08 -0.2
v -0.1 -5.96046e-08 -0.3
v -0.1 0.1 0.2
v -0.1 0.1 0.1
v -0.1 0.1 -0.2
v -0.1 0.1 -0.3
v -0.1 0.2 0.3
v -0.1 0.2 0.2
v -0.1 0.2 -0.3
v -0.1 0.2 -0.4
v -0.1 0.3 0.3
v -0.1 0.3 0.2
v -0.1 0.3 -0.3
v -0.1 0.3 -0.4
v -0.1 0.4 0.2
v -0.1 0.4 0.1
v -0.1 0.4 -0.2
v -0.1 0.4 -0.3
v -0.1 0.5 0.2
v -0.1 0.5 0.1
v -0.1 0.5 -0.2
v -0.1 0.5 -0.3
v -0.1 0.6 0.1
v -0.1 0.6 -0.2
v 0 -0.5 0.2
v 0 -0.5 0.1
v 0 -0.5 -0.2
v 0 -0.5 -0.3
v 0 -0.2 0.1
v 0 -0.2 0
v 0 -0.2 -0.1
v 0 -0.2 -0.2
v 0 -0.1 0.2
v 0 -0.1 0.1
v 0 -0.1 0
v 0 -0.1 -0.1
v 0 -0.1 -0.2
v 0 -0.1 -0.3
v 0 -5.96046e-08 0.1
v 0 -5.96046e-08 -0.2
v 0 0.1 0.3
v 0 0.1 0.2
v 0 0.1 -0.3
v 0 0.1 -0.4
v 0 0.2 0.3
v 0 0.2 0.2
v 0 0.2 -0.3
v 0 0.2 -0.4
v 0 0.3 0.3
v 0 0.3 0.2
v 0 0.3 -0.3
v 0 0.3 -0.4
v 0 0.4 0.3
v 0 0.4 0.2
v 0 0.4 -0.3
v 0 0.4 -0.4
v 0.1 -0.6 0.1
v 0.1 -0.6 0
v 0.1 -0.6 -0.1
v 0.1 -0.6 -0.2
v 0.1 -0.5 0.1
v 0.1 -0.5 0
v 0.1 -0.5 -0.1
v 0.1 -0.5 -0.2
v 0.1 -0.4 0.3
v 0.1 -0.4 0.2
v 0.1 -0.4 -0.3
v 0.1 -0.4 -0.4
v 0.1 -0.2 0.3
v 0.1 -0.2 0.2
v 0.1 -0.2 -0.3
v 0.1 -0.2 -0.4
v 0.1 0.4 0.3
v 0.1 0.4 0.2
v 0.1 0.4 -0.3
v 0.1 0.4 -0.4
v 0.1 0.5 0.3
v 0.1 0.5 0.2
v 0.1 0.5 0.1
v 0.1 0.5 -0.2
v 0.1 0.5 -0.3
v 0.1 0.5 -0.4
v 0.1 0.6 0.2
v 0.1 0.6 0.1
v 0.1 0.6 -0.2
v 0.1 0.6 -0.3
v 0.2 -0.4 0.3
v 0.2 -0.4 0.2
v 0.2 -0.4 -0.3
v 0.2 -0.4 -0.4
v 0.2 -0.2 0.3
v 0.2 -0.2 0.2
v 0.2 -0.2 -0.3
v 0.2 -0.2 -0.4
v 0.2 0.4 0.3
v 0.2 0.4 0.2
v 0.2 0.4 -0.3
v 0.2 0.4 -0.4
v 0.2 0.5 0.3
v 0.2 0.5 0.2
v 0.2 0.5 0.1
v 0.2 0.5 -0.2
v 0.2 0.5 -0.3
v 0.2 0.5 -0.4
v 0.2 0.6 0.2
v 0.2 0.6 0.1
v 0.2 0.6 -0.2
v 0.2 0.6 -0.3
v 0.3 -0.5 0.2
v 0.3 -0.5 0.1
v 0.3 -0.5 -0.2
v 0.3 -0.5 -0.3
v 0.3 -0.4 0.2
v 0.3 -0.4 0.1
v 0.3 -0.4 -0.2
v 0.3 -0.4 -0.3
v 0.3 -0.2 0.2
v 0.3 -0.2 0.1
v 0.3 -0.2 -0.2
v 0.3 -0.2 -0.3
v 0.3 -0.1 0.2
v 0.3 -0.1 0.1
v 0.3 -0.1 -0.2
v 0.3 -0.1 -0.3
v 0.3 -5.96046e-08 0.2
v 0.3 -5.96046e-08 0.1
v 0.3 -5.96046e-08 -0.2
v 0.3 -5.96046e-08 -0.3
v 0.3 0.1 0.3
v 0.3 0.1 0.2
v 0.3 0.1 0.1
v 0.3 0.1 -0.2
v 0.3 0.1 -0.3
v 0.3 0.1 -0.4
v 0.3 0.4 0.3
v 0.3 0.4 0.2
v 0.3 0.4 -0.3
v 0.3 0.4 -0.4
v 0.4 -0.6 0.1
v 0.4 -0.6 0
v 0.4 -0.6 -0.1
v 0.4 -0.6 -0.2
v 0.4 -0.5 0.1
v 0.4 -0.5 0
v 0.4 -0.5 -0.1
v 0.4 -0.5 -0.2
v 0.4 -0.4 0.2
v 0.4 -0.4 0.1
v 0.4 -0.4 -0.2
v 0.4 -0.4 -0.3
v 0.4 -0.2 0.2
v 0.4 -0.2 0.1
v 0.4 -0.2 -0.2
v 0.4 -0.2 -0.3
v 0.4 -0.1 0.1
v 0.4 -0.1 -0.2
v 0.4 -5.96046e-08 0.1
v 0.4 -5.96046e-08 -0.2
v 0.4 0.1 0.2
v 0.4 0.1 0.1
v 0.4 0.1 -0.2
v 0.4 0.1 -0.3
v 0.4 0.3 0.1
v 0.4 0.3 0
v 0.4 0.3 -0.1
v 0.4 0.3 -0.2
v 0.4 0.4 0.2
v 0.4 0.4 0.1
v 0.4 0.4 0
v 0.4 0.4 -0.1
v 0.4 0.4 -0.2
v 0.4 0.4 -0.3
v 0.4 0.5 0.2
v 0.4 0.5 0.1
v 0.4 0.5 -0.2
v 0.4 0.5 -0.3
v 0.4 0.6 0.1
v 0.4 0.6 -0.2
v -0.1 0.2 0.3
v -0.1 0.3 0.3
v 0 0.1 0.3
v 0 0.2 0.3
v 0 0.3 0.3
v 0 0.4 0.3
v 0.1 -0.4 0.3
v 0.1 -0.2 0.3
v 0.1 0.4 0.3
v 0.1 0.5 0.3
v 0.2 -0.4 0.3
v 0.2 -0.2 0.3
v 0.2 0.4 0.3
v 0.2 0.5 0.3
v 0.3 0.1 0.3
v 0.3 0.4 0.3
v -0.2 0.1 0.2
v -0.2 0.4 0.2
v -0.1 -5.96046e-08 0.2
v -0.1 0.1 0.2
v -0.1 0.2 0.2
v -0.1 0.3 0.2
v -0.1 0.4 0.2
v -0.1 0.5 0.2
v 0 -0.5 0.2
v 0 -0.1 0.2
v 0 0.1 0.2
v 0 0.2 0.2
v 0 0.3 0.2
v 0 0.4 0.2
v 0.1 -0.4 0.2
v 0.1 -0.2 0.2
v 0.1 0.4 0.2
v 0.1 0.5 0.2
v 0.1 0.6 0.2
v 0.2 -0.4 0.2
v 0.2 -0.2 0.2
v 0.2 0.4 0.2
v 0.2 0.5 0.2
v 0.2 0.6 0.2
v 0.3 -0.5 0.2
v 0.3 -0.4 0.2
v 0.3 -0.2 0.2
v 0.3 -0.1 0.2
v 0.3 -5.96046e-08 0.2
v 0.3 0.1 0.2
v 0.3 0.4 0.2
v 0.4 -0.4 0.2
v 0.4 -0.2 0.2
v 0.4 0.1 0.2
v 0.4 0.4 0.2
v 0.4 0.5 0.2
v -0.3 0.1 0.1
v -0.3 0.4 0.1
v -0.2 -5.96046e-08 0.1
v -0.2 0.1 0.1
v -0.2 0.4 0.1
v -0.2 0.5 0.1
v -0.1 -0.5 0.1
v -0.1 -0.2 0.1
v -0.1 -5.96046e-08 0.1
v -0.1 0.1 0.1
v -0.1 0.4 0.1
v -0.1 0.5 0.1
v -0.1 0.6 0.1
v 0 -0.5 0.1
v 0 -0.2 0.1
v 0 -0.1 0.1
v 0 -5.96046e-08 0.1
v 0.1 -0.6 0.1
v 0.1 -0.5 0.1
v 0.1 0.5 0.1
v 0.1 0.6 0.1
v 0.2 0.5 0.1
v 0.2 0.6 0.1
v 0.3 -0.5 0.1
v 0.3 -0.4 0.1
v 0.3 -0.2 0.1
v 0.3 -0.1 0.1
v 0.3 -5.96046e-08 0.1
v 0.3 0.1 0.1
v 0.4 -0.6 0.1
v 0.4 -0.5 0.1
v 0.4 -0.4 0.1
v 0.4 -0.2 0.1
v 0.4 -0.1 0.1
v 0.4 -5.96046e-08 0.1
v 0.4 0.1 0.1
v 0.4 0.5 0.1
v 0.4 0.6 0.1
v -0.3 0.4 0
v -0.3 0.5 0
v -0.2 0.4 0
v -0.2 0.5 0
v -0.1 -0.2 0
v -0.1 -0.1 0
v 0 -0.2 0
v 0 -0.1 0
v 0.1 -0.6 -0.1
v 0.1 -0.5 -0.1
v 0.4 -0.6 -0.1
v 0.4 -0.5 -0.1
v 0.1 -0.6 0
v 0.1 -0.5 0
v 0.4 -0.6 0
v 0.4 -0.5 0
v -0.3 0.4 -0.1
v -0.3 0.5 -0.1
v -0.2 0.4 -0.1
v -0.2 0.5 -0.1
v -0.1 -0.2 -0.1
v -0.1 -0.1 -0.1
v 0 -0.2 -0.1
v 0 -0.1 -0.1
v -0.3 0.1 -0.2
v -0.3 0.4 -0.2
v -0.2 -5.96046e-08 -0.2
v -0.2 0.1 -0.2
v -0.2 0.4 -0.2
v -0.2 0.5 -0.2
v -0.1 -0.5 -0.2
v -0.1 -0.2 -0.2
v -0.1 -5.96046e-08 -0.2
v -0.1 0.1 -0.2
v -0.1 0.4 -0.2
v -0.1 0.5 -0.2
v -0.1 0.6 -0.2
v 0 -0.5 -0.2
v 0 -0.2 -0.2
v 0 -0.1 -0.2
v 0 -5.96046e-08 -0.2
v 0.1 -0.6 -0.2
v 0.1 -0.5 -0.2
v 0.1 0.5 -0.2
v 0.1 0.6 -0.2
v 0.2 0.5 -0.2
v 0.2 0.6 -0.2
v 0.3 -0.5 -0.2
v 0.3 -0.4 -0.2
v 0.3 -0.2 -0.2
v 0.3 -0.1 -0.2
v 0.3 -5.96046e-08 -0.2
v 0.3 0.1 -0.2
v 0.4 -0.6 -0.2
v 0.4 -0.5 -0.2
v 0.4 -0.4 -0.2
v 0.4 -0.2 -0.2
v 0.4 -0.1 -0.2
v 0.4 -5.96046e-08 -0.2
v 0.4 0.1 -0.2
v 0.4 0.5 -0.2
v 0.4 0.6 -0.2
v -0.2 0.1 -0.3
v -0.2 0.4 -0.3
v -0.1 -5.96046e-08 -0.3
v -0.1 0.1 -0.3
v -0.1 0.2 -0.3
v -0.1 0.3 -0.3
v -0.1 0.4 -0.3
v -0.1 0.5 -0.3
v 0 -0.5 -0.3
v 0 -0.1 -0.3
v 0 0.1 -0.3
v 0 0.2 -0.3
v 0 0.3 -0.3
v 0 0.4 -0.3
v 0.1 -0.4 -0.3
v 0.1 -0.2 -0.3
v 0.1 0.4 -0.3
v 0.1 0.5 -0.3
v 0.1 0.6 -0.3
v 0.2 -0.4 -0.3
v 0.2 -0.2 -0.3
v 0.2 0.4 -0.3
v 0.2 0.5 -0.3
v 0.2 0.6 -0.3
v 0.3 -0.5 -0.3
v 0.3 -0.4 -0.3
v 0.3 -0.2 -0.3
v 0.3 -0.1 -0.3
v 0.3 -5.96046e-08 -0.3
v 0.3 0.1 -0.3
v 0.3 0.4 -0.3
v 0.4 -0.4 -0.3
v 0.4 -0.2 -0.3
v 0.4 0.1 -0.3
v 0.4 0.4 -0.3
v 0.4 0.5 -0.3
v -0.1 0.2 -0.4
v -0.1 0.3 -0.4
v 0 0.1 -0.4
v 0 0.2 -0.4
v 0 0.3 -0.4
v 0 0.4 -0.4
v 0.1 -0.4 -0.4
v 0.1 -0.2 -0.4
v 0.1 0.4 -0.4
v 0.1 0.5 -0.4
v 0.2 -0.4 -0.4
v 0.2 -0.2 -0.4
v 0.2 0.4 -0.4
v 0.2 0.5 -0.4
v 0.3 0.1 -0.4
v 0.3 0.4 -0.4
v 0.1 -0.6 0.1
v 0.4 -0.6 0.1
v 0.1 -0.6 0
v 0.4 -0.6 0
v 0.1 -0.6 -0.1
v 0.4 -0.6 -0.1
v 0.1 -0.6 -0.2
v 0.4 -0.6 -0.2
v 0 -0.5 0.2
v 0.3 -0.5 0.2
v -0.1 -0.5 0.1
v 0 -0.5 0.1
v 0.1 -0.5 0.1
v 0.3 -0.5 0.1
v 0.1 -0.5 0
v 0.4 -0.5 0
v 0.1 -0.5 -0.1
v 0.4 -0.5 -0.1
v -0.1 -0.5 -0.2
v 0 -0.5 -0.2
v 0.1 -0.5 -0.2
v 0.3 -0.5 -0.2
v 0 -0.5 -0.3
v 0.3 -0.5 -0.3
v 0.1 -0.4 0.3
v 0.2 -0.4 0.3
v 0.1 -0.4 0.2
v 0.2 -0.4 0.2
v 0.3 -0.4 0.2
v 0.4 -0.4 0.2
v 0.3 -0.4 0.1
v 0.4 -0.4 0.1
v 0.3 -0.4 -0.2
v 0.4 -0.4 -0.2
v 0.1 -0.4 -0.3
v 0.2 -0.4 -0.3
v 0.3 -0.4 -0.3
v 0.4 -0.4 -0.3
v 0.1 -0.4 -0.4
v 0.2 -0.4 -0.4
v -0.1 -5.96046e-08 0.2
v 0.3 -5.96046e-08 0.2
v -0.2 -5.96046e-08 0.1
v -0.1 -5.96046e-08 0.1
v 0 -5.96046e-08 0.1
v 0.3 -5.96046e-08 0.1
v 0.4 -5.96046e-08 0.1
v -0.2 -5.96046e-08 -0.2
v -0.1 -5.96046e-08 -0.2
v 0 -5.96046e-08 -0.2
v 0.3 -5.96046e-08 -0.2
v 0.4 -5.96046e-08 -0.2
v -0.1 -5.96046e-08 -0.3
v 0.3 -5.96046e-08 -0.3
v 0 0.1 0.3
v 0.3 0.1 0.3
v -0.2 0.1 0.2
v -0.1 0.1 0.2
v 0 0.1 0.2
v 0.3 0.1 0.2
v 0.4 0.1 0.2
v -0.3 0.1 0.1
v -0.2 0.1 0.1
v -0.1 0.1 0.1
v 0.3 0.1 0.1
v 0.4 0.1 0.1
v -0.3 0.1 -0.2
v -0.2 0.1 -0.2
v -0.1 0.1 -0.2
v 0.3 0.1 -0.2
v 0.4 0.1 -0.2
v -0.2 0.1 -0.3
v -0.1 0.1 -0.3
v 0 0.1 -0.3
v 0.3 0.1 -0.3
v 0.4 0.1 -0.3
v 0 0.1 -0.4
v 0.3 0.1 -0.4
v -0.1 0.2 0.3
v 0 0.2 0.3
v -0.1 0.2 0.2
v 0 0.2 0.2
v -0.1 0.2 -0.3
v 0 0.2 -0.3
v -0.1 0.2 -0.4
v 0 0.2 -0.4
v 0.1 -0.2 0.3
v 0.2 -0.2 0.3
v 0.1 -0.2 0.2
v 0.2 -0.2 0.2
v 0.3 -0.2 0.2
v 0.4 -0.2 0.2
v -0.1 -0.2 0.1
v 0 -0.2 0.1
v 0.3 -0.2 0.1
v 0.4 -0.2 0.1
v -0.1 -0.2 0
v 0 -0.2 0
v -0.1 -0.2 -0.1
v 0 -0.2 -0.1
v -0.1 -0.2 -0.2
v 0 -0.2 -0.2
v 0.3 -0.2 -0.2
v 0.4 -0.2 -0.2
v 0.1 -0.2 -0.3
v 0.2 -0.2 -0.3
v 0.3 -0.2 -0.3
v 0.4 -0.2 -0.3
v 0.1 -0.2 -0.4
v 0.2 -0.2 -0.4
v 0 -0.1 0.2
v 0.3 -0.1 0.2
v 0 -0.1 0.1
v 0.3 -0.1 0.1
v 0.4 -0.1 0.1
v -0.1 -0.1 0
v 0 -0.1 0
v -0.1 -0.1 -0.1
v 0 -0.1 -0.1
v 0 -0.1 -0.2
v 0.3 -0.1 -0.2
v 0.4 -0.1 -0.2
v 0 -0.1 -0.3
v 0.3 -0.1 -0.3
v -0.1 0.3 0.3
v 0 0.3 0.3
v -0.1 0.3 0.2
v 0 0.3 0.2
v -0.1 0.3 -0.3
v 0 0.3 -0.3
v -0.1 0.3 -0.4
v 0 0.3 -0.4
v 0 0.4 0.3
v 0.1 0.4 0.3
v 0.2 0.4 0.3
v 0.3 0.4 0.3
v -0.2 0.4 0.2
v -0.1 0.4 0.2
v 0 0.4 0.2
v 0.1 0.4 0.2
v 0.2 0.4 0.2
v 0.3 0.4 0.2
v -0.3 0.4 0.1
v -0.2 0.4 0.1
v -0.1 0.4 0.1
v -0.3 0.4 0
v -0.2 0.4 0
v -0.3 0.4 -0.1
v -0.2 0.4 -0.1
v -0.3 0.4 -0.2
v -0.2 0.4 -0.2
v -0.1 0.4 -0.2
v -0.2 0.4 -0.3
v -0.1 0.4 -0.3
v 0 0.4 -0.3
v 0.1 0.4 -0.3
v 0.2 0.4 -0.3
v 0.3 0.4 -0.3
v 0 0.4 -0.4
v 0.1 0.4 -0.4
v 0.2 0.4 -0.4
v 0.3 0.4 -0.4
v 0.1 0.5 0.3
v 0.2 0.5 0.3
v -0.1 0.5 0.2
v 0.1 0.5 0.2
v 0.2 0.5 0.2
v 0.4 0.5 0.2
v -0.2 0.5 0.1
v -0.1 0.5 0.1
v 0.1 0.5 0.1
v 0.2 0.5 0.1
v 0.4 0.5 0.1
v -0.3 0.5 0
v -0.2 0.5 0
v -0.3 0.5 -0.1
v -0.2 0.5 -0.1
v -0.2 0.5 -0.2
v -0.1 0.5 -0.2
v 0.1 0.5 -0.2
v 0.2 0.5 -0.2
v 0.4 0.5 -0.2
v -0.1 0.5 -0.3
v 0.1 0.5 -0.3
v 0.2 0.5 -0.3
v 0.4 0.5 -0.3
v 0.1 0.5 -0.4
v 0.2 0.5 -0.4
v 0.1 0.6 0.2
v 0.2 0.6 0.2
v -0.1 0.6 0.1
v 0.1 0.6 0.1
v 0.2 0.6 0.1
v 0.4 0.6 0.1
v -0.1 0.6 -0.2
v 0.1 0.6 -0.2
v 0.2 0.6 -0.2
v 0.4 0.6 -0.2
v 0.1 0.6 -0.3
v 0.2 0.6 -0.3

# faces
f 3/4/1 2/4/1 1/4/1
f 4/4/1 2/4/1 3/4/1
f 5/4/1 2/4/1 4/4/1
f 6/4/1 2/4/1 5/4/1
f 7/4/1 5/4/1 4/4/1
f 8/4/1 5/4/1 7/4/1
f 12/4/1 10/4/1 9/4/1
f 13/4/1 10/4/1 12/4/1
f 15/4/1 12/4/1 11/4/1
f 16/4/1 12/4/1 15/4/1
f 19/4/1 14/4/1 13/4/1
f 20/4/1 14/4/1 19/4/1
f 21/4/1 17/4/1 16/4/1
f 22/4/1 17/4/1 21/4/1
f 23/4/1 19/4/1 18/4/1
f 24/4/1 19/4/1 23/4/1
f 27/4/1 26/4/1 25/4/1
f 28/4/1 26/4/1 27/4/1
f 29/4/1 26/4/1 28/4/1
f 30/4/1 26/4/1 29/4/1
f 31/4/1 29/4/1 28/4/1
f 32/4/1 29/4/1 31/4/1
f 37/4/1 34/4/1 33/4/1
f 38/4/1 34/4/1 37/4/1
f 39/4/1 36/4/1 35/4/1
f 40/4/1 36/4/1 39/4/1
f 45/4/1 42/4/1 41/4/1
f 46/4/1 42/4/1 45/4/1
f 47/4/1 44/4/1 43/4/1
f 48/4/1 44/4/1 47/4/1
f 53/4/1 50/4/1 49/4/1
f 54/4/1 50/4/1 53/4/1
f 55/4/1 52/4/1 51/4/1
f 56/4/1 52/4/1 55/4/1
f 57/4/1 55/4/1 54/4/1
f 58/4/1 55/4/1 57/4/1
f 63/4/1 60/4/1 59/4/1
f 66/4/1 62/4/1 61/4/1
f 67/4/1 64/4/1 63/4/1
f 67/4/1 63/4/1 59/4/1
f 68/4/1 64/4/1 67/4/1
f 69/4/1 64/4/1 68/4/1
f 70/4/1 66/4/1 65/4/1
f 71/4/1 62/4/1 66/4/1
f 71/4/1 66/4/1 70/4/1
f 72/4/1 62/4/1 71/4/1
f 73/5/1 69/5/1 68/5/1
f 73/5/1 70/5/1 69/5/1
f 73/5/1 71/5/1 70/5/1
f 74/5/1 71/5/1 73/5/1
f 79/4/1 76/4/1 75/4/1
f 80/4/1 76/4/1 79/4/1
f 81/4/1 78/4/1 77/4/1
f 82/4/1 78/4/1 81/4/1
f 87/4/1 84/4/1 83/4/1
f 88/4/1 84/4/1 87/4/1
f 89/4/1 86/4/1 85/4/1
f 90/4/1 86/4/1 89/4/1
f 95/5/1 92/5/1 91/5/1
f 96/5/1 92/5/1 95/5/1
f 97/5/1 94/5/1 93/5/1
f 98/5/1 94/5/1 97/5/1
f 103/5/1 100/5/1 99/5/1
f 104/5/1 100/5/1 103/5/1
f 105/5/1 102/5/1 101/5/1
f 106/5/1 102/5/1 105/5/1
f 111/4/1 108/4/1 107/4/1
f 112/4/1 108/4/1 111/4/1
f 115/4/1 110/4/1 109/4/1
f 116/4/1 110/4/1 115/4/1
f 117/4/1 113/4/1 112/4/1
f 118/4/1 113/4/1 117/4/1
f 119/4/1 115/4/1 114/4/1
f 120/4/1 115/4/1 119/4/1
f 121/5/2 122/5/2 125/5/2
f 125/5/2 122/5/2 126/5/2
f 123/5/2 124/5/2 127/5/2
f 127/5/2 124/5/2 128/5/2
f 129/4/2 130/4/2 133/4/2
f 133/4/2 130/4/2 134/4/2
f 131/4/2 132/4/2 137/4/2
f 137/4/2 132/4/2 138/4/2
f 134/4/2 135/4/2 139/4/2
f 139/4/2 135/4/2 140/4/2
f 136/4/2 137/4/2 141/4/2
f 141/4/2 137/4/2 142/4/2
f 143/4/2 144/4/2 147/4/2
f 147/4/2 144/4/2 148/4/2
f 145/4/2 146/4/2 149/4/2
f 149/4/2 146/4/2 150/4/2
f 151/4/2 152/4/2 155/4/2
f 155/4/2 152/4/2 156/4/2
f 153/4/2 154/4/2 157/4/2
f 157/4/2 154/4/2 158/4/2
f 156/5/2 157/5/2 160/5/2
f 160/5/2 157/5/2 161/5/2
f 159/4/2 160/4/2 164/4/2
f 164/4/2 160/4/2 165/4/2
f 161/4/2 162/4/2 166/4/2
f 166/4/2 162/4/2 167/4/2
f 163/4/2 164/4/2 169/4/2
f 169/4/2 164/4/2 170/4/2
f 167/4/2 168/4/2 171/4/2
f 171/4/2 168/4/2 172/4/2
f 173/5/2 174/5/2 177/5/2
f 177/5/2 174/5/2 178/5/2
f 175/5/2 176/5/2 179/5/2
f 179/5/2 176/5/2 180/5/2
f 177/4/2 178/4/2 182/4/2
f 178/4/2 179/4/2 182/4/2
f 179/4/2 180/4/2 182/4/2
f 182/4/2 180/4/2 183/4/2
f 182/4/2 183/4/2 185/4/2
f 183/4/2 184/4/2 185/4/2
f 181/4/2 182/4/2 185/4/2
f 185/4/2 184/4/2 186/4/2
f 186/4/2 184/4/2 187/4/2
f 187/4/2 184/4/2 188/4/2
f 186/4/2 187/4/2 189/4/2
f 189/4/2 187/4/2 190/4/2
f 191/5/2 192/5/2 194/5/2
f 194/5/2 192/5/2 195/5/2
f 194/5/2 195/5/2 197/5/2
f 195/5/2 196/5/2 197/5/2
f 193/5/2 194/5/2 197/5/2
f 197/5/2 196/5/2 198/5/2
f 198/5/2 196/5/2 199/5/2
f 199/5/2 196/5/2 200/5/2
f 193/5/2 197/5/2 201/5/2
f 197/1/2 198/1/2 202/1/2
f 201/5/2 197/5/2 202/5/2
f 198/5/2 199/5/2 203/5/2
f 202/1/2 198/1/2 203/1/2
f 199/1/2 200/1/2 204/1/2
f 203/5/2 199/5/2 204/5/2
f 200/5/2 196/5/2 205/5/2
f 204/1/2 200/1/2 205/1/2
f 205/5/2 196/5/2 206/5/2
f 201/4/2 202/4/2 207/4/2
f 203/5/2 204/5/2 208/5/2
f 207/4/2 202/4/2 208/4/2
f 202/5/2 203/5/2 208/5/2
f 204/5/2 205/5/2 208/5/2
f 205/4/2 206/4/2 209/4/2
f 208/5/2 205/5/2 209/5/2
f 209/4/2 206/4/2 210/4/2
f 208/4/2 209/4/2 211/4/2
f 211/4/2 209/4/2 212/4/2
f 216/4/3 214/4/3 213/4/3
f 217/4/3 214/4/3 216/4/3
f 221/4/3 216/4/3 215/4/3
f 221/4/3 217/4/3 216/4/3
f 221/4/3 218/4/3 217/4/3
f 223/5/3 220/5/3 219/5/3
f 224/5/3 220/5/3 223/5/3
f 225/4/3 222/4/3 221/4/3
f 225/4/3 221/4/3 215/4/3
f 226/4/3 222/4/3 225/4/3
f 227/4/3 225/4/3 215/4/3
f 228/4/3 225/4/3 227/4/3
f 232/4/3 230/4/3 229/4/3
f 233/4/3 230/4/3 232/4/3
f 234/4/3 230/4/3 233/4/3
f 235/4/3 230/4/3 234/4/3
f 239/4/3 232/4/3 231/4/3
f 239/4/3 233/4/3 232/4/3
f 240/4/3 233/4/3 239/4/3
f 241/4/3 235/4/3 234/4/3
f 241/4/3 236/4/3 235/4/3
f 242/4/3 236/4/3 241/4/3
f 243/4/3 238/4/3 237/4/3
f 244/4/3 238/4/3 243/4/3
f 245/4/3 236/4/3 242/4/3
f 246/4/3 236/4/3 245/4/3
f 248/4/3 243/4/3 237/4/3
f 249/4/3 238/4/3 244/4/3
f 251/4/3 247/4/3 246/4/3
f 252/4/3 247/4/3 251/4/3
f 253/4/3 248/4/3 237/4/3
f 253/4/3 249/4/3 248/4/3
f 254/4/3 249/4/3 253/4/3
f 255/4/3 238/4/3 249/4/3
f 255/4/3 249/4/3 254/4/3
f 256/4/3 238/4/3 255/4/3
f 257/4/3 239/4/3 231/4/3
f 258/4/3 239/4/3 257/4/3
f 259/4/3 251/4/3 250/4/3
f 260/4/3 255/4/3 254/4/3
f 261/4/3 255/4/3 260/4/3
f 262/5/3 259/5/3 258/5/3
f 263/4/3 251/4/3 259/4/3
f 263/5/3 259/5/3 262/5/3
f 264/4/3 251/4/3 263/4/3
f 268/4/3 266/4/3 265/4/3
f 269/4/3 266/4/3 268/4/3
f 273/4/3 268/4/3 267/4/3
f 274/4/3 268/4/3 273/4/3
f 275/4/3 270/4/3 269/4/3
f 276/4/3 270/4/3 275/4/3
f 278/4/3 272/4/3 271/4/3
f 279/4/3 272/4/3 278/4/3
f 284/4/3 277/4/3 276/4/3
f 285/4/3 277/4/3 284/4/3
f 288/5/3 283/5/3 282/5/3
f 291/5/3 281/5/3 280/5/3
f 292/5/3 281/5/3 291/5/3
f 294/5/3 288/5/3 282/5/3
f 295/4/3 289/4/3 288/4/3
f 295/5/3 288/5/3 294/5/3
f 296/4/3 289/4/3 295/4/3
f 297/4/3 291/4/3 290/4/3
f 298/4/3 291/4/3 297/4/3
f 299/5/3 293/5/3 292/5/3
f 300/5/3 293/5/3 299/5/3
f 301/4/3 287/4/3 286/4/3
f 302/4/3 287/4/3 301/4/3
f 305/4/3 304/4/3 303/4/3
f 306/4/3 304/4/3 305/4/3
f 309/4/3 308/4/3 307/4/3
f 310/4/3 308/4/3 309/4/3
f 313/5/3 312/5/3 311/5/3
f 314/5/3 312/5/3 313/5/3
f 315/5/4 316/5/4 317/5/4
f 317/5/4 316/5/4 318/5/4
f 319/4/4 320/4/4 321/4/4
f 321/4/4 320/4/4 322/4/4
f 323/4/4 324/4/4 325/4/4
f 325/4/4 324/4/4 326/4/4
f 327/4/4 328/4/4 330/4/4
f 330/4/4 328/4/4 331/4/4
f 329/4/4 330/4/4 335/4/4
f 335/4/4 330/4/4 336/4/4
f 331/4/4 332/4/4 337/4/4
f 337/4/4 332/4/4 338/4/4
f 333/4/4 334/4/4 340/4/4
f 340/4/4 334/4/4 341/4/4
f 338/4/4 339/4/4 346/4/4
f 346/4/4 339/4/4 347/4/4
f 344/5/4 345/5/4 350/5/4
f 342/5/4 343/5/4 353/5/4
f 353/5/4 343/5/4 354/5/4
f 344/5/4 350/5/4 356/5/4
f 350/4/4 351/4/4 357/4/4
f 356/5/4 350/5/4 357/5/4
f 357/4/4 351/4/4 358/4/4
f 352/4/4 353/4/4 359/4/4
f 359/4/4 353/4/4 360/4/4
f 354/5/4 355/5/4 361/5/4
f 361/5/4 355/5/4 362/5/4
f 348/4/4 349/4/4 363/4/4
f 363/4/4 349/4/4 364/4/4
f 365/4/4 366/4/4 368/4/4
f 368/4/4 366/4/4 369/4/4
f 369/4/4 366/4/4 370/4/4
f 370/4/4 366/4/4 371/4/4
f 367/4/4 368/4/4 375/4/4
f 368/4/4 369/4/4 375/4/4
f 375/4/4 369/4/4 376/4/4
f 370/4/4 371/4/4 377/4/4
f 371/4/4 372/4/4 377/4/4
f 377/4/4 372/4/4 378/4/4
f 373/4/4 374/4/4 379/4/4
f 379/4/4 374/4/4 380/4/4
f 378/4/4 372/4/4 381/4/4
f 381/4/4 372/4/4 382/4/4
f 373/4/4 379/4/4 384/4/4
f 380/4/4 374/4/4 385/4/4
f 382/4/4 383/4/4 387/4/4
f 387/4/4 383/4/4 388/4/4
f 373/4/4 384/4/4 389/4/4
f 384/4/4 385/4/4 389/4/4
f 389/4/4 385/4/4 390/4/4
f 385/4/4 374/4/4 391/4/4
f 390/4/4 385/4/4 391/4/4
f 391/4/4 374/4/4 392/4/4
f 367/4/4 375/4/4 393/4/4
f 393/4/4 375/4/4 394/4/4
f 386/4/4 387/4/4 395/4/4
f 390/4/4 391/4/4 396/4/4
f 396/4/4 391/4/4 397/4/4
f 394/5/4 395/5/4 398/5/4
f 395/4/4 387/4/4 399/4/4
f 398/5/4 395/5/4 399/5/4
f 399/4/4 387/4/4 400/4/4
f 401/4/4 402/4/4 404/4/4
f 404/4/4 402/4/4 405/4/4
f 403/4/4 404/4/4 409/4/4
f 404/4/4 405/4/4 409/4/4
f 405/4/4 406/4/4 409/4/4
f 407/5/4 408/5/4 411/5/4
f 411/5/4 408/5/4 412/5/4
f 409/4/4 410/4/4 413/4/4
f 403/4/4 409/4/4 413/4/4
f 413/4/4 410/4/4 414/4/4
f 403/4/4 413/4/4 415/4/4
f 415/4/4 413/4/4 416/4/4
f 419/5/5 418/5/5 417/5/5
f 420/5/5 418/5/5 419/5/5
f 423/5/5 422/5/5 421/5/5
f 424/5/5 422/5/5 423/5/5
f 428/4/5 426/4/5 425/4/5
f 429/4/5 426/4/5 428/4/5
f 430/4/5 426/4/5 429/4/5
f 431/4/5 428/4/5 427/4/5
f 431/4/5 429/4/5 428/4/5
f 433/4/5 431/4/5 427/4/5
f 433/4/5 432/4/5 431/4/5
f 434/4/5 432/4/5 433/4/5
f 435/4/5 433/4/5 427/4/5
f 436/4/5 433/4/5 435/4/5
f 437/4/5 433/4/5 436/4/5
f 439/4/5 438/4/5 437/4/5
f 439/4/5 437/4/5 436/4/5
f 440/4/5 438/4/5 439/4/5
f 443/5/5 442/5/5 441/5/5
f 444/5/5 442/5/5 443/5/5
f 447/4/5 446/4/5 445/4/5
f 448/4/5 446/4/5 447/4/5
f 453/4/5 450/4/5 449/4/5
f 454/4/5 450/4/5 453/4/5
f 455/5/5 452/5/5 451/5/5
f 456/5/5 452/5/5 455/5/5
f 460/4/5 458/4/5 457/4/5
f 461/4/5 458/4/5 460/4/5
f 462/4/5 458/4/5 461/4/5
f 464/4/5 460/4/5 459/4/5
f 464/4/5 461/4/5 460/4/5
f 465/4/5 461/4/5 464/4/5
f 466/4/5 461/4/5 465/4/5
f 467/5/5 463/5/5 462/5/5
f 468/5/5 463/5/5 467/5/5
f 469/4/5 466/4/5 465/4/5
f 469/4/5 467/4/5 466/4/5
f 470/4/5 467/4/5 469/4/5
f 475/4/5 472/4/5 471/4/5
f 476/4/5 472/4/5 475/4/5
f 479/4/5 474/4/5 473/4/5
f 480/4/5 474/4/5 479/4/5
f 481/5/5 477/5/5 476/5/5
f 482/5/5 477/5/5 481/5/5
f 483/4/5 479/4/5 478/4/5
f 484/4/5 479/4/5 483/4/5
f 488/4/5 485/4/5 484/4/5
f 489/4/5 485/4/5 488/4/5
f 491/5/5 487/5/5 486/5/5
f 492/5/5 487/5/5 491/5/5
f 493/4/5 491/4/5 490/4/5
f 494/4/5 491/4/5 493/4/5
f 497/4/5 496/4/5 495/4/5
f 498/4/5 496/4/5 497/4/5
f 501/4/5 500/4/5 499/4/5
f 502/4/5 500/4/5 501/4/5
f 503/5/6 504/5/6 505/5/6
f 505/5/6 504/5/6 506/5/6
f 507/4/6 508/4/6 511/4/6
f 511/4/6 508/4/6 512/4/6
f 509/4/6 510/4/6 513/4/6
f 513/4/6 510/4/6 514/4/6
f 515/4/6 516/4/6 517/4/6
f 517/4/6 516/4/6 518/4/6
f 519/4/6 520/4/6 523/4/6
f 523/4/6 520/4/6 524/4/6
f 521/5/6 522/5/6 525/5/6
f 525/5/6 522/5/6 526/5/6
f 527/4/6 528/4/6 529/4/6
f 529/4/6 528/4/6 530/4/6
f 532/4/6 533/4/6 534/4/6
f 534/4/6 533/4/6 535/4/6
f 530/4/6 531/4/6 537/4/6
f 537/4/6 531/4/6 538/4/6
f 536/4/6 537/4/6 539/4/6
f 539/4/6 537/4/6 540/4/6
f 541/4/6 542/4/6 543/4/6
f 543/4/6 542/4/6 544/4/6
f 545/4/6 546/4/6 547/4/6
f 547/4/6 546/4/6 548/4/6
f 549/4/6 550/4/6 555/4/6
f 555/4/6 550/4/6 556/4/6
f 551/4/6 552/4/6 557/4/6
f 557/4/6 552/4/6 558/4/6
f 553/4/6 554/4/6 560/4/6
f 560/4/6 554/4/6 561/4/6
f 559/4/6 560/4/6 562/4/6
f 562/4/6 560/4/6 563/4/6
f 564/4/6 565/4/6 566/4/6
f 566/4/6 565/4/6 567/4/6
f 567/4/6 568/4/6 569/4/6
f 569/4/6 568/4/6 570/4/6
f 571/4/6 572/4/6 575/4/6
f 575/4/6 572/4/6 576/4/6
f 573/4/6 574/4/6 577/4/6
f 577/4/6 574/4/6 578/4/6
f 579/4/6 580/4/6 582/4/6
f 582/4/6 580/4/6 583/4/6
f 581/4/6 582/4/6 586/4/6
f 586/4/6 582/4/6 587/4/6
f 583/4/6 584/4/6 588/4/6
f 588/4/6 584/4/6 589/4/6
f 585/4/6 586/4/6 591/4/6
f 590/4/6 591/4/6 592/4/6
f 591/4/6 586/4/6 593/4/6
f 592/4/6 591/4/6 593/4/6
f 593/4/6 586/4/6 594/4/6
f 594/4/6 586/4/6 595/4/6
f 595/4/6 596/4/6 599/4/6
f 599/4/6 596/4/6 600/4/6
f 597/4/6 598/4/6 601/4/6
f 601/4/6 598/4/6 602/4/6
f 600/4/6 601/4/6 603/4/6
f 603/4/6 601/4/6 604/4/6
f 605/4/6 606/4/6 608/4/6
f 608/4/6 606/4/6 609/4/6
f 607/4/6 608/4/6 611/4/6
f 609/4/6 610/4/6 611/4/6
f 608/4/6 609/4/6 611/4/6
f 611/4/6 610/4/6 612/4/6
f 612/4/6 610/4/6 613/4/6
f 613/4/6 610/4/6 614/4/6
f 612/4/6 613/4/6 615/4/6
f 615/4/6 613/4/6 616/4/6
