# MagicaVoxel @ Ephtracy

# group
o 

# material
mtllib SimpleOgre.mtl
usemtl palette

# normals
vn -1 0 0
vn 1 0 0
vn 0 0 1
vn 0 0 -1
vn 0 -1 0
vn 0 1 0

# texcoords
vt 0.533203 0.5
vt 0.583984 0.5
vt 0.591797 0.5
vt 0.962891 0.5
vt 0.990234 0.5
vt 0.994141 0.5

# verts
v -0.6 0.7 0
v -0.6 0.7 -0.2
v -0.6 1 0
v -0.6 1 -0.2
v -0.5 1 0
v -0.5 1 -0.2
v -0.5 1.1 0
v -0.5 1.1 -0.2
v -0.4 1.1 0
v -0.4 1.1 -0.2
v -0.4 1.2 0
v -0.4 1.2 -0.2
v -0.3 0 0.1
v -0.3 0 -0.2
v -0.3 0.1 0.1
v -0.3 0.1 0
v -0.3 0.3 0
v -0.3 0.3 -0.2
v -0.3 0.7 0
v -0.3 0.7 -0.2
v -0.3 1 0
v -0.3 1 -0.2
v -0.3 1.4 0.1
v -0.3 1.4 -0.4
v -0.3 1.7 0.1
v -0.3 1.7 0
v -0.3 1.8 0.1
v -0.3 1.8 0
v -0.3 1.8 -0.4
v -0.2 0.3 0.1
v -0.2 0.3 0
v -0.2 0.3 -0.2
v -0.2 0.3 -0.3
v -0.2 0.7 0.1
v -0.2 0.7 0
v -0.2 0.7 -0.2
v -0.2 0.7 -0.3
v -0.2 1.2 0
v -0.2 1.2 -0.2
v -0.2 1.3 0.2
v -0.2 1.3 0.1
v -0.2 1.3 0
v -0.2 1.3 -0.2
v -0.2 1.3 -0.4
v -0.2 1.4 0.2
v -0.2 1.4 0.1
v -0.2 1.4 -0.4
v -0.2 1.8 0
v -0.2 1.8 -0.3
v -0.2 1.9 0
v -0.2 1.9 -0.3
v 0.1 0 0.1
v 0.1 0 -0.2
v 0.1 0.1 0.1
v 0.1 0.1 0
v 0.1 0.3 0
v 0.1 0.3 -0.2
v 0.1 1.3 0.2
v 0.1 1.3 0.1
v 0.1 1.4 0.2
v 0.1 1.4 0.1
v 0.4 0.7 0
v 0.4 0.7 -0.2
v 0.4 1 0
v 0.4 1 -0.2
v -0.4 0.7 0
v -0.4 0.7 -0.2
v -0.4 1 0
v -0.4 1 -0.2
v -0.1 0 0.1
v -0.1 0 -0.2
v -0.1 0.1 0.1
v -0.1 0.1 0
v -0.1 0.3 0
v -0.1 0.3 -0.2
v -0.1 1.3 0.2
v -0.1 1.3 0.1
v -0.1 1.4 0.2
v -0.1 1.4 0.1
v 0.2 0.3 0.1
v 0.2 0.3 0
v 0.2 0.3 -0.2
v 0.2 0.3 -0.3
v 0.2 0.7 0.1
v 0.2 0.7 0
v 0.2 0.7 -0.2
v 0.2 0.7 -0.3
v 0.2 1.2 0
v 0.2 1.2 -0.2
v 0.2 1.3 0.2
v 0.2 1.3 0.1
v 0.2 1.3 0
v 0.2 1.3 -0.2
v 0.2 1.3 -0.4
v 0.2 1.4 0.2
v 0.2 1.4 0.1
v 0.2 1.4 -0.4
v 0.2 1.8 0
v 0.2 1.8 -0.3
v 0.2 1.9 0
v 0.2 1.9 -0.3
v 0.3 0 0.1
v 0.3 0 -0.2
v 0.3 0.1 0.1
v 0.3 0.1 0
v 0.3 0.3 0
v 0.3 0.3 -0.2
v 0.3 0.7 0
v 0.3 0.7 -0.2
v 0.3 1 0
v 0.3 1 -0.2
v 0.3 1.4 0.1
v 0.3 1.4 -0.4
v 0.3 1.7 0.1
v 0.3 1.7 0
v 0.3 1.8 0.1
v 0.3 1.8 0
v 0.3 1.8 -0.4
v 0.4 1.1 0
v 0.4 1.1 -0.2
v 0.4 1.2 0
v 0.4 1.2 -0.2
v 0.5 1 0
v 0.5 1 -0.2
v 0.5 1.1 0
v 0.5 1.1 -0.2
v 0.6 0.7 0
v 0.6 0.7 -0.2
v 0.6 1 0
v 0.6 1 -0.2
v -0.2 1.3 0.2
v -0.2 1.4 0.2
v -0.1 1.3 0.2
v -0.1 1.4 0.2
v 0.1 1.3 0.2
v 0.1 1.4 0.2
v 0.2 1.3 0.2
v 0.2 1.4 0.2
v -0.3 0 0.1
v -0.3 0.1 0.1
v -0.3 1.4 0.1
v -0.3 1.7 0.1
v -0.3 1.8 0.1
v -0.2 0.3 0.1
v -0.2 0.7 0.1
v -0.2 1.4 0.1
v -0.2 1.6 0.1
v -0.2 1.7 0.1
v -0.1 0 0.1
v -0.1 0.1 0.1
v -0.1 1.3 0.1
v -0.1 1.4 0.1
v -0.1 1.6 0.1
v -0.1 1.7 0.1
v -0.1 1.8 0.1
v 0.1 0 0.1
v 0.1 0.1 0.1
v 0.1 1.3 0.1
v 0.1 1.4 0.1
v 0.1 1.6 0.1
v 0.1 1.7 0.1
v 0.1 1.8 0.1
v 0.2 0.3 0.1
v 0.2 0.7 0.1
v 0.2 1.4 0.1
v 0.2 1.6 0.1
v 0.2 1.7 0.1
v 0.3 0 0.1
v 0.3 0.1 0.1
v 0.3 1.4 0.1
v 0.3 1.7 0.1
v 0.3 1.8 0.1
v -0.6 0.7 0
v -0.6 1 0
v -0.5 1 0
v -0.5 1.1 0
v -0.4 0.7 0
v -0.4 1 0
v -0.4 1.1 0
v -0.4 1.2 0
v -0.3 0.1 0
v -0.3 0.3 0
v -0.3 0.7 0
v -0.3 1 0
v -0.2 0.3 0
v -0.2 0.7 0
v -0.2 1.2 0
v -0.2 1.3 0
v -0.2 1.8 0
v -0.2 1.9 0
v -0.1 0.1 0
v -0.1 0.3 0
v -0.1 1.8 0
v 0.1 0.1 0
v 0.1 0.3 0
v 0.1 1.8 0
v 0.2 0.3 0
v 0.2 0.7 0
v 0.2 1.2 0
v 0.2 1.3 0
v 0.2 1.8 0
v 0.2 1.9 0
v 0.3 0.1 0
v 0.3 0.3 0
v 0.3 0.7 0
v 0.3 1 0
v 0.4 0.7 0
v 0.4 1 0
v 0.4 1.1 0
v 0.4 1.2 0
v 0.5 1 0
v 0.5 1.1 0
v 0.6 0.7 0
v 0.6 1 0
v -0.6 0.7 -0.2
v -0.6 1 -0.2
v -0.5 1 -0.2
v -0.5 1.1 -0.2
v -0.4 0.7 -0.2
v -0.4 1 -0.2
v -0.4 1.1 -0.2
v -0.4 1.2 -0.2
v -0.3 0 -0.2
v -0.3 0.3 -0.2
v -0.3 0.7 -0.2
v -0.3 1 -0.2
v -0.2 0.3 -0.2
v -0.2 0.7 -0.2
v -0.2 1.2 -0.2
v -0.2 1.3 -0.2
v -0.1 0 -0.2
v -0.1 0.3 -0.2
v 0.1 0 -0.2
v 0.1 0.3 -0.2
v 0.2 0.3 -0.2
v 0.2 0.7 -0.2
v 0.2 1.2 -0.2
v 0.2 1.3 -0.2
v 0.3 0 -0.2
v 0.3 0.3 -0.2
v 0.3 0.7 -0.2
v 0.3 1 -0.2
v 0.4 0.7 -0.2
v 0.4 1 -0.2
v 0.4 1.1 -0.2
v 0.4 1.2 -0.2
v 0.5 1 -0.2
v 0.5 1.1 -0.2
v 0.6 0.7 -0.2
v 0.6 1 -0.2
v -0.2 0.3 -0.3
v -0.2 0.7 -0.3
v -0.2 1.8 -0.3
v -0.2 1.9 -0.3
v 0.2 0.3 -0.3
v 0.2 0.7 -0.3
v 0.2 1.8 -0.3
v 0.2 1.9 -0.3
v -0.3 1.4 -0.4
v -0.3 1.8 -0.4
v -0.2 1.3 -0.4
v -0.2 1.4 -0.4
v 0.2 1.3 -0.4
v 0.2 1.4 -0.4
v 0.3 1.4 -0.4
v 0.3 1.8 -0.4
v -0.3 0 0.1
v -0.1 0 0.1
v 0.1 0 0.1
v 0.3 0 0.1
v -0.3 0 -0.2
v -0.1 0 -0.2
v 0.1 0 -0.2
v 0.3 0 -0.2
v -0.2 0.3 0.1
v 0.2 0.3 0.1
v -0.2 0.3 0
v -0.1 0.3 0
v 0.1 0.3 0
v 0.2 0.3 0
v -0.2 0.3 -0.2
v -0.1 0.3 -0.2
v 0.1 0.3 -0.2
v 0.2 0.3 -0.2
v -0.2 0.3 -0.3
v 0.2 0.3 -0.3
v -0.6 0.7 0
v -0.4 0.7 0
v 0.4 0.7 0
v 0.6 0.7 0
v -0.6 0.7 -0.2
v -0.4 0.7 -0.2
v 0.4 0.7 -0.2
v 0.6 0.7 -0.2
v -0.4 1 0
v -0.3 1 0
v 0.3 1 0
v 0.4 1 0
v -0.4 1 -0.2
v -0.3 1 -0.2
v 0.3 1 -0.2
v 0.4 1 -0.2
v -0.2 1.3 0.2
v -0.1 1.3 0.2
v 0.1 1.3 0.2
v 0.2 1.3 0.2
v -0.2 1.3 0.1
v -0.1 1.3 0.1
v 0.1 1.3 0.1
v 0.2 1.3 0.1
v -0.2 1.3 0
v 0.2 1.3 0
v -0.2 1.3 -0.2
v 0.2 1.3 -0.2
v -0.2 1.3 -0.4
v 0.2 1.3 -0.4
v -0.3 1.4 0.1
v -0.2 1.4 0.1
v 0.2 1.4 0.1
v 0.3 1.4 0.1
v -0.3 1.4 -0.4
v -0.2 1.4 -0.4
v 0.2 1.4 -0.4
v 0.3 1.4 -0.4
v -0.3 0.1 0.1
v -0.1 0.1 0.1
v 0.1 0.1 0.1
v 0.3 0.1 0.1
v -0.3 0.1 0
v -0.1 0.1 0
v 0.1 0.1 0
v 0.3 0.1 0
v -0.2 0.7 0.1
v 0.2 0.7 0.1
v -0.2 0.7 0
v 0.2 0.7 0
v -0.2 0.7 -0.2
v 0.2 0.7 -0.2
v -0.2 0.7 -0.3
v 0.2 0.7 -0.3
v -0.6 1 0
v -0.5 1 0
v 0.5 1 0
v 0.6 1 0
v -0.6 1 -0.2
v -0.5 1 -0.2
v 0.5 1 -0.2
v 0.6 1 -0.2
v -0.5 1.1 0
v -0.4 1.1 0
v 0.4 1.1 0
v 0.5 1.1 0
v -0.5 1.1 -0.2
v -0.4 1.1 -0.2
v 0.4 1.1 -0.2
v 0.5 1.1 -0.2
v -0.4 1.2 0
v -0.2 1.2 0
v 0.2 1.2 0
v 0.4 1.2 0
v -0.4 1.2 -0.2
v -0.2 1.2 -0.2
v 0.2 1.2 -0.2
v 0.4 1.2 -0.2
v -0.2 1.4 0.2
v -0.1 1.4 0.2
v 0.1 1.4 0.2
v 0.2 1.4 0.2
v -0.2 1.4 0.1
v -0.1 1.4 0.1
v 0.1 1.4 0.1
v 0.2 1.4 0.1
v -0.3 1.8 0.1
v -0.1 1.8 0.1
v 0.1 1.8 0.1
v 0.3 1.8 0.1
v -0.3 1.8 0
v -0.2 1.8 0
v -0.1 1.8 0
v 0.1 1.8 0
v 0.2 1.8 0
v 0.3 1.8 0
v -0.2 1.8 -0.3
v 0.2 1.8 -0.3
v -0.3 1.8 -0.4
v 0.3 1.8 -0.4
v -0.2 1.9 0
v 0.2 1.9 0
v -0.2 1.9 -0.3
v 0.2 1.9 -0.3

# faces
f 3/2/1 2/2/1 1/2/1
f 4/2/1 2/2/1 3/2/1
f 7/2/1 6/2/1 5/2/1
f 8/2/1 6/2/1 7/2/1
f 11/2/1 10/2/1 9/2/1
f 12/2/1 10/2/1 11/2/1
f 15/2/1 14/2/1 13/2/1
f 16/2/1 14/2/1 15/2/1
f 17/2/1 14/2/1 16/2/1
f 18/2/1 14/2/1 17/2/1
f 19/1/1 18/1/1 17/1/1
f 20/1/1 18/1/1 19/1/1
f 21/2/1 20/2/1 19/2/1
f 22/2/1 20/2/1 21/2/1
f 25/2/1 24/2/1 23/2/1
f 26/2/1 24/2/1 25/2/1
f 27/6/1 26/6/1 25/6/1
f 28/2/1 24/2/1 26/2/1
f 28/6/1 26/6/1 27/6/1
f 29/2/1 24/2/1 28/2/1
f 34/1/1 31/1/1 30/1/1
f 35/1/1 31/1/1 34/1/1
f 36/1/1 33/1/1 32/1/1
f 37/1/1 33/1/1 36/1/1
f 42/2/1 39/2/1 38/2/1
f 43/2/1 39/2/1 42/2/1
f 45/4/1 41/4/1 40/4/1
f 46/2/1 43/2/1 42/2/1
f 46/4/1 41/4/1 45/4/1
f 46/2/1 44/2/1 43/2/1
f 46/2/1 42/2/1 41/2/1
f 47/2/1 44/2/1 46/2/1
f 50/2/1 49/2/1 48/2/1
f 51/2/1 49/2/1 50/2/1
f 54/2/1 53/2/1 52/2/1
f 55/2/1 53/2/1 54/2/1
f 56/2/1 53/2/1 55/2/1
f 57/2/1 53/2/1 56/2/1
f 60/4/1 59/4/1 58/4/1
f 61/4/1 59/4/1 60/4/1
f 64/2/1 63/2/1 62/2/1
f 65/2/1 63/2/1 64/2/1
f 66/2/2 67/2/2 68/2/2
f 68/2/2 67/2/2 69/2/2
f 70/2/2 71/2/2 72/2/2
f 72/2/2 71/2/2 73/2/2
f 73/2/2 71/2/2 74/2/2
f 74/2/2 71/2/2 75/2/2
f 76/4/2 77/4/2 78/4/2
f 78/4/2 77/4/2 79/4/2
f 80/1/2 81/1/2 84/1/2
f 84/1/2 81/1/2 85/1/2
f 82/1/2 83/1/2 86/1/2
f 86/1/2 83/1/2 87/1/2
f 88/2/2 89/2/2 92/2/2
f 92/2/2 89/2/2 93/2/2
f 90/4/2 91/4/2 95/4/2
f 92/2/2 93/2/2 96/2/2
f 95/4/2 91/4/2 96/4/2
f 93/2/2 94/2/2 96/2/2
f 91/2/2 92/2/2 96/2/2
f 96/2/2 94/2/2 97/2/2
f 98/2/2 99/2/2 100/2/2
f 100/2/2 99/2/2 101/2/2
f 102/2/2 103/2/2 104/2/2
f 104/2/2 103/2/2 105/2/2
f 105/2/2 103/2/2 106/2/2
f 106/2/2 103/2/2 107/2/2
f 106/1/2 107/1/2 108/1/2
f 108/1/2 107/1/2 109/1/2
f 108/2/2 109/2/2 110/2/2
f 110/2/2 109/2/2 111/2/2
f 112/2/2 113/2/2 114/2/2
f 114/2/2 113/2/2 115/2/2
f 114/6/2 115/6/2 116/6/2
f 115/2/2 113/2/2 117/2/2
f 116/6/2 115/6/2 117/6/2
f 117/2/2 113/2/2 118/2/2
f 119/2/2 120/2/2 121/2/2
f 121/2/2 120/2/2 122/2/2
f 123/2/2 124/2/2 125/2/2
f 125/2/2 124/2/2 126/2/2
f 127/2/2 128/2/2 129/2/2
f 129/2/2 128/2/2 130/2/2
f 133/4/3 132/4/3 131/4/3
f 134/4/3 132/4/3 133/4/3
f 137/4/3 136/4/3 135/4/3
f 138/4/3 136/4/3 137/4/3
f 146/2/3 142/2/3 141/2/3
f 147/2/3 142/2/3 146/2/3
f 148/6/3 143/6/3 142/6/3
f 148/2/3 142/2/3 147/2/3
f 149/2/3 140/2/3 139/2/3
f 150/2/3 140/2/3 149/2/3
f 152/2/3 147/2/3 146/2/3
f 153/5/3 148/5/3 147/5/3
f 153/2/3 147/2/3 152/2/3
f 154/6/3 143/6/3 148/6/3
f 154/5/3 148/5/3 153/5/3
f 155/6/3 143/6/3 154/6/3
f 158/2/3 153/2/3 152/2/3
f 158/2/3 152/2/3 151/2/3
f 158/2/3 155/2/3 154/2/3
f 158/2/3 154/2/3 153/2/3
f 159/2/3 155/2/3 158/2/3
f 160/2/3 155/2/3 159/2/3
f 161/2/3 155/2/3 160/2/3
f 162/2/3 155/2/3 161/2/3
f 163/1/3 145/1/3 144/1/3
f 164/1/3 145/1/3 163/1/3
f 165/2/3 160/2/3 159/2/3
f 166/5/3 161/5/3 160/5/3
f 166/2/3 160/2/3 165/2/3
f 167/6/3 162/6/3 161/6/3
f 167/5/3 161/5/3 166/5/3
f 168/2/3 157/2/3 156/2/3
f 169/2/3 157/2/3 168/2/3
f 170/2/3 166/2/3 165/2/3
f 170/2/3 167/2/3 166/2/3
f 171/6/3 162/6/3 167/6/3
f 171/2/3 167/2/3 170/2/3
f 172/6/3 162/6/3 171/6/3
f 175/2/3 174/2/3 173/2/3
f 177/2/3 175/2/3 173/2/3
f 177/2/3 176/2/3 175/2/3
f 178/2/3 176/2/3 177/2/3
f 179/2/3 176/2/3 178/2/3
f 184/2/3 180/2/3 179/2/3
f 184/2/3 179/2/3 178/2/3
f 185/1/3 183/1/3 182/1/3
f 185/2/3 182/2/3 181/2/3
f 186/2/3 184/2/3 183/2/3
f 186/1/3 183/1/3 185/1/3
f 187/2/3 180/2/3 184/2/3
f 187/2/3 184/2/3 186/2/3
f 191/2/3 185/2/3 181/2/3
f 192/2/3 185/2/3 191/2/3
f 193/2/3 190/2/3 189/2/3
f 196/2/3 190/2/3 193/2/3
f 197/2/3 195/2/3 194/2/3
f 198/2/3 188/2/3 187/2/3
f 198/2/3 187/2/3 186/2/3
f 199/2/3 188/2/3 198/2/3
f 200/2/3 188/2/3 199/2/3
f 201/2/3 190/2/3 196/2/3
f 202/2/3 190/2/3 201/2/3
f 203/2/3 197/2/3 194/2/3
f 204/1/3 198/1/3 197/1/3
f 204/2/3 197/2/3 203/2/3
f 205/2/3 199/2/3 198/2/3
f 205/1/3 198/1/3 204/1/3
f 206/2/3 199/2/3 205/2/3
f 208/2/3 199/2/3 206/2/3
f 209/2/3 199/2/3 208/2/3
f 210/2/3 199/2/3 209/2/3
f 211/2/3 208/2/3 207/2/3
f 211/2/3 209/2/3 208/2/3
f 212/2/3 209/2/3 211/2/3
f 213/2/3 211/2/3 207/2/3
f 214/2/3 211/2/3 213/2/3
f 215/2/4 216/2/4 217/2/4
f 215/2/4 217/2/4 219/2/4
f 217/2/4 218/2/4 219/2/4
f 219/2/4 218/2/4 220/2/4
f 220/2/4 218/2/4 221/2/4
f 221/2/4 222/2/4 226/2/4
f 220/2/4 221/2/4 226/2/4
f 224/1/4 225/1/4 227/1/4
f 223/2/4 224/2/4 227/2/4
f 225/2/4 226/2/4 228/2/4
f 227/1/4 225/1/4 228/1/4
f 226/2/4 222/2/4 229/2/4
f 228/2/4 226/2/4 229/2/4
f 223/2/4 227/2/4 231/2/4
f 231/2/4 227/2/4 232/2/4
f 233/2/4 234/2/4 235/2/4
f 229/2/4 230/2/4 236/2/4
f 228/2/4 229/2/4 236/2/4
f 236/2/4 230/2/4 237/2/4
f 237/2/4 230/2/4 238/2/4
f 233/2/4 235/2/4 239/2/4
f 235/1/4 236/1/4 240/1/4
f 239/2/4 235/2/4 240/2/4
f 236/2/4 237/2/4 241/2/4
f 240/1/4 236/1/4 241/1/4
f 241/2/4 237/2/4 242/2/4
f 242/2/4 237/2/4 244/2/4
f 244/2/4 237/2/4 245/2/4
f 245/2/4 237/2/4 246/2/4
f 243/2/4 244/2/4 247/2/4
f 244/2/4 245/2/4 247/2/4
f 247/2/4 245/2/4 248/2/4
f 243/2/4 247/2/4 249/2/4
f 249/2/4 247/2/4 250/2/4
f 251/1/4 252/1/4 255/1/4
f 255/1/4 252/1/4 256/1/4
f 253/2/4 254/2/4 257/2/4
f 257/2/4 254/2/4 258/2/4
f 259/2/4 260/2/4 262/2/4
f 261/2/4 262/2/4 263/2/4
f 262/2/4 260/2/4 264/2/4
f 263/2/4 262/2/4 264/2/4
f 264/2/4 260/2/4 265/2/4
f 265/2/4 260/2/4 266/2/4
f 271/2/5 268/2/5 267/2/5
f 272/2/5 268/2/5 271/2/5
f 273/2/5 270/2/5 269/2/5
f 274/2/5 270/2/5 273/2/5
f 277/1/5 276/1/5 275/1/5
f 278/1/5 276/1/5 277/1/5
f 279/1/5 276/1/5 278/1/5
f 280/1/5 276/1/5 279/1/5
f 282/3/5 279/3/5 278/3/5
f 283/3/5 279/3/5 282/3/5
f 285/1/5 282/1/5 281/1/5
f 285/1/5 284/1/5 283/1/5
f 285/1/5 283/1/5 282/1/5
f 286/1/5 284/1/5 285/1/5
f 291/2/5 288/2/5 287/2/5
f 292/2/5 288/2/5 291/2/5
f 293/2/5 290/2/5 289/2/5
f 294/2/5 290/2/5 293/2/5
f 299/2/5 296/2/5 295/2/5
f 300/2/5 296/2/5 299/2/5
f 301/2/5 298/2/5 297/2/5
f 302/2/5 298/2/5 301/2/5
f 307/4/5 304/4/5 303/4/5
f 308/4/5 304/4/5 307/4/5
f 309/4/5 306/4/5 305/4/5
f 310/4/5 306/4/5 309/4/5
f 311/2/5 308/2/5 307/2/5
f 311/2/5 309/2/5 308/2/5
f 311/2/5 310/2/5 309/2/5
f 312/2/5 310/2/5 311/2/5
f 315/2/5 314/2/5 313/2/5
f 316/2/5 314/2/5 315/2/5
f 321/2/5 318/2/5 317/2/5
f 322/2/5 318/2/5 321/2/5
f 323/2/5 320/2/5 319/2/5
f 324/2/5 320/2/5 323/2/5
f 325/2/6 326/2/6 329/2/6
f 329/2/6 326/2/6 330/2/6
f 327/2/6 328/2/6 331/2/6
f 331/2/6 328/2/6 332/2/6
f 333/1/6 334/1/6 335/1/6
f 335/1/6 334/1/6 336/1/6
f 337/1/6 338/1/6 339/1/6
f 339/1/6 338/1/6 340/1/6
f 341/2/6 342/2/6 345/2/6
f 345/2/6 342/2/6 346/2/6
f 343/2/6 344/2/6 347/2/6
f 347/2/6 344/2/6 348/2/6
f 349/2/6 350/2/6 353/2/6
f 353/2/6 350/2/6 354/2/6
f 351/2/6 352/2/6 355/2/6
f 355/2/6 352/2/6 356/2/6
f 357/2/6 358/2/6 361/2/6
f 361/2/6 358/2/6 362/2/6
f 359/2/6 360/2/6 363/2/6
f 363/2/6 360/2/6 364/2/6
f 365/4/6 366/4/6 369/4/6
f 369/4/6 366/4/6 370/4/6
f 367/4/6 368/4/6 371/4/6
f 371/4/6 368/4/6 372/4/6
f 373/6/6 374/6/6 377/6/6
f 377/6/6 374/6/6 378/6/6
f 374/2/6 375/2/6 379/2/6
f 378/6/6 374/6/6 379/6/6
f 375/6/6 376/6/6 380/6/6
f 379/2/6 375/2/6 380/2/6
f 380/6/6 376/6/6 381/6/6
f 381/6/6 376/6/6 382/6/6
f 377/2/6 378/2/6 383/2/6
f 381/2/6 382/2/6 384/2/6
f 377/2/6 383/2/6 385/2/6
f 383/2/6 384/2/6 385/2/6
f 384/2/6 382/2/6 386/2/6
f 385/2/6 384/2/6 386/2/6
f 387/2/6 388/2/6 389/2/6
f 389/2/6 388/2/6 390/2/6
