# MagicaVoxel @ Ephtracy

# group
o 

# material
mtllib massiveOgre.mtl
usemtl palette

# normals
vn -1 0 0
vn 1 0 0
vn 0 0 1
vn 0 0 -1
vn 0 -1 0
vn 0 1 0

# texcoords
vt 0.533203 0.5
vt 0.583984 0.5
vt 0.591797 0.5
vt 0.919922 0.5
vt 0.990234 0.5
vt 0.994141 0.5

# verts
v -0.7 0.6 0
v -0.7 0.6 -0.3
v -0.7 1 0
v -0.7 1 -0.3
v -0.6 0.5 0
v -0.6 0.5 -0.3
v -0.6 0.6 0
v -0.6 0.6 -0.3
v -0.6 1 0
v -0.6 1 -0.3
v -0.6 1.2 0
v -0.6 1.2 -0.3
v -0.5 0.4 0.3
v -0.5 0.4 -0.4
v -0.5 0.5 0
v -0.5 0.5 -0.3
v -0.5 1 0.3
v -0.5 1 0
v -0.5 1 -0.3
v -0.5 1 -0.4
v -0.4 0.3 0.3
v -0.4 0.3 -0.4
v -0.4 0.4 0.4
v -0.4 0.4 0.3
v -0.4 0.4 -0.4
v -0.4 0.4 -0.5
v -0.4 0.9 0.4
v -0.4 0.9 0.3
v -0.4 1 0.2
v -0.4 1 0
v -0.4 1 -0.3
v -0.4 1 -0.4
v -0.4 1 -0.5
v -0.4 1.1 0.2
v -0.4 1.1 0
v -0.4 1.1 -0.3
v -0.4 1.1 -0.4
v -0.3 0 0.1
v -0.3 0 -0.2
v -0.3 0.1 0.1
v -0.3 0.1 0
v -0.3 0.3 0
v -0.3 0.3 -0.2
v -0.3 0.9 0.4
v -0.3 0.9 0.3
v -0.3 1 0.4
v -0.3 1 0.3
v -0.3 1 0.2
v -0.3 1 -0.4
v -0.3 1 -0.5
v -0.3 1.1 0.3
v -0.3 1.1 0.2
v -0.3 1.1 0
v -0.3 1.1 -0.3
v -0.3 1.1 -0.4
v -0.3 1.1 -0.5
v -0.3 1.2 0.2
v -0.3 1.2 0
v -0.3 1.2 -0.3
v -0.3 1.2 -0.4
v -0.3 1.3 0.2
v -0.3 1.3 -0.4
v -0.3 1.4 0.2
v -0.3 1.4 0.1
v -0.3 1.5 0.2
v -0.3 1.5 0.1
v -0.3 1.9 0.1
v -0.3 1.9 0
v -0.3 1.9 -0.4
v -0.3 2 0.1
v -0.3 2 0
v -0.2 0.3 -0.4
v -0.2 0.3 -0.5
v -0.2 0.4 -0.4
v -0.2 0.4 -0.5
v -0.2 1.2 0.1
v -0.2 1.2 -0.3
v -0.2 1.3 0.4
v -0.2 1.3 0.2
v -0.2 1.3 0.1
v -0.2 1.3 -0.3
v -0.2 1.4 0.4
v -0.2 1.4 0.2
v -0.2 1.5 0.3
v -0.2 1.5 0.2
v -0.2 1.6 0.4
v -0.2 1.6 0.3
v -0.2 1.9 0
v -0.2 1.9 -0.3
v -0.2 2 0
v -0.2 2 -0.3
v -0.1 1.6 0.3
v -0.1 1.6 0.1
v -0.1 1.8 0.3
v -0.1 1.8 0.1
v 0.1 0 0.1
v 0.1 0 -0.2
v 0.1 0.1 0.1
v 0.1 0.1 0
v 0.1 0.3 0
v 0.1 0.3 -0.2
v 0.1 1.4 0.4
v 0.1 1.4 0.2
v 0.1 1.5 0.3
v 0.1 1.5 0.2
v 0.1 1.6 0.4
v 0.1 1.6 0.3
v 0.2 1.4 0.2
v 0.2 1.4 0.1
v 0.2 1.5 0.2
v 0.2 1.5 0.1
v -0.2 1.4 0.2
v -0.2 1.4 0.1
v -0.2 1.5 0.2
v -0.2 1.5 0.1
v -0.1 0 0.1
v -0.1 0 -0.2
v -0.1 0.1 0.1
v -0.1 0.1 0
v -0.1 0.3 0
v -0.1 0.3 -0.2
v -0.1 1.4 0.4
v -0.1 1.4 0.2
v -0.1 1.5 0.3
v -0.1 1.5 0.2
v -0.1 1.6 0.4
v -0.1 1.6 0.3
v 0.1 1.6 0.3
v 0.1 1.6 0.1
v 0.1 1.8 0.3
v 0.1 1.8 0.1
v 0.2 0.3 -0.4
v 0.2 0.3 -0.5
v 0.2 0.4 -0.4
v 0.2 0.4 -0.5
v 0.2 1.2 0.1
v 0.2 1.2 -0.3
v 0.2 1.3 0.4
v 0.2 1.3 0.2
v 0.2 1.3 0.1
v 0.2 1.3 -0.3
v 0.2 1.4 0.4
v 0.2 1.4 0.2
v 0.2 1.5 0.3
v 0.2 1.5 0.2
v 0.2 1.6 0.4
v 0.2 1.6 0.3
v 0.2 1.9 0
v 0.2 1.9 -0.3
v 0.2 2 0
v 0.2 2 -0.3
v 0.3 0 0.1
v 0.3 0 -0.2
v 0.3 0.1 0.1
v 0.3 0.1 0
v 0.3 0.3 0
v 0.3 0.3 -0.2
v 0.3 0.9 0.4
v 0.3 0.9 0.3
v 0.3 1 0.4
v 0.3 1 0.3
v 0.3 1 0.2
v 0.3 1 -0.4
v 0.3 1 -0.5
v 0.3 1.1 0.3
v 0.3 1.1 0.2
v 0.3 1.1 0
v 0.3 1.1 -0.3
v 0.3 1.1 -0.4
v 0.3 1.1 -0.5
v 0.3 1.2 0.2
v 0.3 1.2 0
v 0.3 1.2 -0.3
v 0.3 1.2 -0.4
v 0.3 1.3 0.2
v 0.3 1.3 -0.4
v 0.3 1.4 0.2
v 0.3 1.4 0.1
v 0.3 1.5 0.2
v 0.3 1.5 0.1
v 0.3 1.9 0.1
v 0.3 1.9 0
v 0.3 1.9 -0.4
v 0.3 2 0.1
v 0.3 2 0
v 0.4 0.3 0.3
v 0.4 0.3 -0.4
v 0.4 0.4 0.4
v 0.4 0.4 0.3
v 0.4 0.4 -0.4
v 0.4 0.4 -0.5
v 0.4 0.9 0.4
v 0.4 0.9 0.3
v 0.4 1 0.2
v 0.4 1 0
v 0.4 1 -0.3
v 0.4 1 -0.4
v 0.4 1 -0.5
v 0.4 1.1 0.2
v 0.4 1.1 0
v 0.4 1.1 -0.3
v 0.4 1.1 -0.4
v 0.5 0.4 0.3
v 0.5 0.4 -0.4
v 0.5 0.5 0
v 0.5 0.5 -0.3
v 0.5 1 0.3
v 0.5 1 0
v 0.5 1 -0.3
v 0.5 1 -0.4
v 0.6 0.5 0
v 0.6 0.5 -0.3
v 0.6 0.6 0
v 0.6 0.6 -0.3
v 0.6 1 0
v 0.6 1 -0.3
v 0.6 1.2 0
v 0.6 1.2 -0.3
v 0.7 0.6 0
v 0.7 0.6 -0.3
v 0.7 1 0
v 0.7 1 -0.3
v -0.4 0.4 0.4
v -0.4 0.9 0.4
v -0.3 0.9 0.4
v -0.3 1 0.4
v -0.2 1.3 0.4
v -0.2 1.4 0.4
v -0.2 1.6 0.4
v -0.1 1.4 0.4
v -0.1 1.6 0.4
v 0.1 1.4 0.4
v 0.1 1.6 0.4
v 0.2 1.3 0.4
v 0.2 1.4 0.4
v 0.2 1.6 0.4
v 0.3 0.9 0.4
v 0.3 1 0.4
v 0.4 0.4 0.4
v 0.4 0.9 0.4
v -0.5 0.4 0.3
v -0.5 1 0.3
v -0.4 0.3 0.3
v -0.4 0.4 0.3
v -0.4 0.9 0.3
v -0.3 0.9 0.3
v -0.3 1 0.3
v -0.3 1.1 0.3
v -0.1 1.6 0.3
v -0.1 1.8 0.3
v 0.1 1.6 0.3
v 0.1 1.8 0.3
v 0.3 0.9 0.3
v 0.3 1 0.3
v 0.3 1.1 0.3
v 0.4 0.3 0.3
v 0.4 0.4 0.3
v 0.4 0.9 0.3
v 0.5 0.4 0.3
v 0.5 1 0.3
v -0.4 1 0.2
v -0.4 1.1 0.2
v -0.3 1 0.2
v -0.3 1.1 0.2
v -0.3 1.2 0.2
v -0.3 1.3 0.2
v -0.3 1.4 0.2
v -0.3 1.5 0.2
v -0.2 1.3 0.2
v -0.2 1.4 0.2
v -0.2 1.5 0.2
v 0.2 1.3 0.2
v 0.2 1.4 0.2
v 0.2 1.5 0.2
v 0.3 1 0.2
v 0.3 1.1 0.2
v 0.3 1.2 0.2
v 0.3 1.3 0.2
v 0.3 1.4 0.2
v 0.3 1.5 0.2
v 0.4 1 0.2
v 0.4 1.1 0.2
v -0.3 0 0.1
v -0.3 0.1 0.1
v -0.3 1.5 0.1
v -0.3 1.9 0.1
v -0.3 2 0.1
v -0.2 1.2 0.1
v -0.2 1.3 0.1
v -0.2 1.4 0.1
v -0.2 1.5 0.1
v -0.2 1.8 0.1
v -0.2 1.9 0.1
v -0.1 0 0.1
v -0.1 0.1 0.1
v -0.1 1.6 0.1
v -0.1 1.8 0.1
v -0.1 1.9 0.1
v -0.1 2 0.1
v 0.1 0 0.1
v 0.1 0.1 0.1
v 0.1 1.6 0.1
v 0.1 1.8 0.1
v 0.1 1.9 0.1
v 0.1 2 0.1
v 0.2 1.2 0.1
v 0.2 1.3 0.1
v 0.2 1.4 0.1
v 0.2 1.5 0.1
v 0.2 1.8 0.1
v 0.2 1.9 0.1
v 0.3 0 0.1
v 0.3 0.1 0.1
v 0.3 1.5 0.1
v 0.3 1.9 0.1
v 0.3 2 0.1
v -0.7 0.6 0
v -0.7 1 0
v -0.6 0.5 0
v -0.6 0.6 0
v -0.6 1 0
v -0.6 1.2 0
v -0.5 0.5 0
v -0.5 1 0
v -0.4 1 0
v -0.4 1.1 0
v -0.3 0.1 0
v -0.3 0.3 0
v -0.3 1.1 0
v -0.3 1.2 0
v -0.1 0.1 0
v -0.1 0.3 0
v 0.1 0.1 0
v 0.1 0.3 0
v 0.3 0.1 0
v 0.3 0.3 0
v 0.3 1.1 0
v 0.3 1.2 0
v 0.4 1 0
v 0.4 1.1 0
v 0.5 0.5 0
v 0.5 1 0
v 0.6 0.5 0
v 0.6 0.6 0
v 0.6 1 0
v 0.6 1.2 0
v 0.7 0.6 0
v 0.7 1 0
v -0.2 1.5 0.3
v -0.2 1.6 0.3
v -0.1 1.5 0.3
v -0.1 1.6 0.3
v 0.1 1.5 0.3
v 0.1 1.6 0.3
v 0.2 1.5 0.3
v 0.2 1.6 0.3
v -0.2 1.4 0.2
v -0.2 1.5 0.2
v -0.1 1.4 0.2
v -0.1 1.5 0.2
v 0.1 1.4 0.2
v 0.1 1.5 0.2
v 0.2 1.4 0.2
v 0.2 1.5 0.2
v -0.3 1.9 0
v -0.3 2 0
v -0.2 1.9 0
v -0.2 2 0
v 0.2 1.9 0
v 0.2 2 0
v 0.3 1.9 0
v 0.3 2 0
v -0.3 0 -0.2
v -0.3 0.3 -0.2
v -0.1 0 -0.2
v -0.1 0.3 -0.2
v 0.1 0 -0.2
v 0.1 0.3 -0.2
v 0.3 0 -0.2
v 0.3 0.3 -0.2
v -0.7 0.6 -0.3
v -0.7 1 -0.3
v -0.6 0.5 -0.3
v -0.6 0.6 -0.3
v -0.6 1 -0.3
v -0.6 1.2 -0.3
v -0.5 0.5 -0.3
v -0.5 1 -0.3
v -0.4 1 -0.3
v -0.4 1.1 -0.3
v -0.3 1.1 -0.3
v -0.3 1.2 -0.3
v -0.2 1.2 -0.3
v -0.2 1.3 -0.3
v -0.2 1.9 -0.3
v -0.2 2 -0.3
v 0.2 1.2 -0.3
v 0.2 1.3 -0.3
v 0.2 1.9 -0.3
v 0.2 2 -0.3
v 0.3 1.1 -0.3
v 0.3 1.2 -0.3
v 0.4 1 -0.3
v 0.4 1.1 -0.3
v 0.5 0.5 -0.3
v 0.5 1 -0.3
v 0.6 0.5 -0.3
v 0.6 0.6 -0.3
v 0.6 1 -0.3
v 0.6 1.2 -0.3
v 0.7 0.6 -0.3
v 0.7 1 -0.3
v -0.5 0.4 -0.4
v -0.5 1 -0.4
v -0.4 0.3 -0.4
v -0.4 0.4 -0.4
v -0.4 1 -0.4
v -0.4 1.1 -0.4
v -0.3 1 -0.4
v -0.3 1.1 -0.4
v -0.3 1.2 -0.4
v -0.3 1.3 -0.4
v -0.3 1.9 -0.4
v -0.2 0.3 -0.4
v -0.2 0.4 -0.4
v 0.2 0.3 -0.4
v 0.2 0.4 -0.4
v 0.3 1 -0.4
v 0.3 1.1 -0.4
v 0.3 1.2 -0.4
v 0.3 1.3 -0.4
v 0.3 1.9 -0.4
v 0.4 0.3 -0.4
v 0.4 0.4 -0.4
v 0.4 1 -0.4
v 0.4 1.1 -0.4
v 0.5 0.4 -0.4
v 0.5 1 -0.4
v -0.4 0.4 -0.5
v -0.4 1 -0.5
v -0.3 1 -0.5
v -0.3 1.1 -0.5
v -0.2 0.3 -0.5
v -0.2 0.4 -0.5
v 0.2 0.3 -0.5
v 0.2 0.4 -0.5
v 0.3 1 -0.5
v 0.3 1.1 -0.5
v 0.4 0.4 -0.5
v 0.4 1 -0.5
v -0.3 0 0.1
v -0.1 0 0.1
v 0.1 0 0.1
v 0.3 0 0.1
v -0.3 0 -0.2
v -0.1 0 -0.2
v 0.1 0 -0.2
v 0.3 0 -0.2
v -0.4 0.3 0.3
v 0.4 0.3 0.3
v -0.3 0.3 0
v -0.1 0.3 0
v 0.1 0.3 0
v 0.3 0.3 0
v -0.3 0.3 -0.2
v -0.1 0.3 -0.2
v 0.1 0.3 -0.2
v 0.3 0.3 -0.2
v -0.4 0.3 -0.4
v -0.2 0.3 -0.4
v 0.2 0.3 -0.4
v 0.4 0.3 -0.4
v -0.2 0.3 -0.5
v 0.2 0.3 -0.5
v -0.4 0.4 0.4
v 0.4 0.4 0.4
v -0.5 0.4 0.3
v -0.4 0.4 0.3
v 0.4 0.4 0.3
v 0.5 0.4 0.3
v -0.5 0.4 -0.4
v -0.4 0.4 -0.4
v -0.2 0.4 -0.4
v 0.2 0.4 -0.4
v 0.4 0.4 -0.4
v 0.5 0.4 -0.4
v -0.4 0.4 -0.5
v -0.2 0.4 -0.5
v 0.2 0.4 -0.5
v 0.4 0.4 -0.5
v -0.6 0.5 0
v -0.5 0.5 0
v 0.5 0.5 0
v 0.6 0.5 0
v -0.6 0.5 -0.3
v -0.5 0.5 -0.3
v 0.5 0.5 -0.3
v 0.6 0.5 -0.3
v -0.7 0.6 0
v -0.6 0.6 0
v 0.6 0.6 0
v 0.7 0.6 0
v -0.7 0.6 -0.3
v -0.6 0.6 -0.3
v 0.6 0.6 -0.3
v 0.7 0.6 -0.3
v -0.2 1.3 0.4
v 0.2 1.3 0.4
v -0.3 1.3 0.2
v -0.2 1.3 0.2
v 0.2 1.3 0.2
v 0.3 1.3 0.2
v -0.2 1.3 0.1
v 0.2 1.3 0.1
v -0.2 1.3 -0.3
v 0.2 1.3 -0.3
v -0.3 1.3 -0.4
v 0.3 1.3 -0.4
v -0.1 1.6 0.3
v 0.1 1.6 0.3
v -0.1 1.6 0.1
v 0.1 1.6 0.1
v -0.3 0.1 0.1
v -0.1 0.1 0.1
v 0.1 0.1 0.1
v 0.3 0.1 0.1
v -0.3 0.1 0
v -0.1 0.1 0
v 0.1 0.1 0
v 0.3 0.1 0
v -0.4 0.9 0.4
v -0.3 0.9 0.4
v 0.3 0.9 0.4
v 0.4 0.9 0.4
v -0.4 0.9 0.3
v -0.3 0.9 0.3
v 0.3 0.9 0.3
v 0.4 0.9 0.3
v -0.3 1 0.4
v 0.3 1 0.4
v -0.5 1 0.3
v -0.3 1 0.3
v 0.3 1 0.3
v 0.5 1 0.3
v -0.4 1 0.2
v -0.3 1 0.2
v 0.3 1 0.2
v 0.4 1 0.2
v -0.7 1 0
v -0.6 1 0
v -0.5 1 0
v -0.4 1 0
v 0.4 1 0
v 0.5 1 0
v 0.6 1 0
v 0.7 1 0
v -0.7 1 -0.3
v -0.6 1 -0.3
v -0.5 1 -0.3
v -0.4 1 -0.3
v 0.4 1 -0.3
v 0.5 1 -0.3
v 0.6 1 -0.3
v 0.7 1 -0.3
v -0.5 1 -0.4
v -0.4 1 -0.4
v -0.3 1 -0.4
v 0.3 1 -0.4
v 0.4 1 -0.4
v 0.5 1 -0.4
v -0.4 1 -0.5
v -0.3 1 -0.5
v 0.3 1 -0.5
v 0.4 1 -0.5
v -0.3 1.1 0.3
v 0.3 1.1 0.3
v -0.4 1.1 0.2
v -0.3 1.1 0.2
v 0.3 1.1 0.2
v 0.4 1.1 0.2
v -0.4 1.1 0
v -0.3 1.1 0
v 0.3 1.1 0
v 0.4 1.1 0
v -0.4 1.1 -0.3
v -0.3 1.1 -0.3
v 0.3 1.1 -0.3
v 0.4 1.1 -0.3
v -0.4 1.1 -0.4
v -0.3 1.1 -0.4
v 0.3 1.1 -0.4
v 0.4 1.1 -0.4
v -0.3 1.1 -0.5
v 0.3 1.1 -0.5
v -0.3 1.2 0.2
v 0.3 1.2 0.2
v -0.2 1.2 0.1
v 0.2 1.2 0.1
v -0.6 1.2 0
v -0.3 1.2 0
v 0.3 1.2 0
v 0.6 1.2 0
v -0.6 1.2 -0.3
v -0.3 1.2 -0.3
v -0.2 1.2 -0.3
v 0.2 1.2 -0.3
v 0.3 1.2 -0.3
v 0.6 1.2 -0.3
v -0.3 1.2 -0.4
v 0.3 1.2 -0.4
v -0.1 1.4 0.4
v 0.1 1.4 0.4
v -0.2 1.4 0.2
v -0.1 1.4 0.2
v 0.1 1.4 0.2
v 0.2 1.4 0.2
v -0.2 1.4 0.1
v 0.2 1.4 0.1
v -0.2 1.5 0.3
v -0.1 1.5 0.3
v 0.1 1.5 0.3
v 0.2 1.5 0.3
v -0.3 1.5 0.2
v -0.2 1.5 0.2
v -0.1 1.5 0.2
v 0.1 1.5 0.2
v 0.2 1.5 0.2
v 0.3 1.5 0.2
v -0.3 1.5 0.1
v -0.2 1.5 0.1
v 0.2 1.5 0.1
v 0.3 1.5 0.1
v -0.2 1.6 0.4
v -0.1 1.6 0.4
v 0.1 1.6 0.4
v 0.2 1.6 0.4
v -0.2 1.6 0.3
v -0.1 1.6 0.3
v 0.1 1.6 0.3
v 0.2 1.6 0.3
v -0.1 1.8 0.3
v 0.1 1.8 0.3
v -0.1 1.8 0.1
v 0.1 1.8 0.1
v -0.3 1.9 0
v -0.2 1.9 0
v 0.2 1.9 0
v 0.3 1.9 0
v -0.2 1.9 -0.3
v 0.2 1.9 -0.3
v -0.3 1.9 -0.4
v 0.3 1.9 -0.4
v -0.3 2 0.1
v -0.1 2 0.1
v 0.1 2 0.1
v 0.3 2 0.1
v -0.3 2 0
v -0.2 2 0
v -0.1 2 0
v 0.1 2 0
v 0.2 2 0
v 0.3 2 0
v -0.2 2 -0.3
v 0.2 2 -0.3

# faces
f 3/2/1 2/2/1 1/2/1
f 4/2/1 2/2/1 3/2/1
f 7/2/1 6/2/1 5/2/1
f 8/2/1 6/2/1 7/2/1
f 11/1/1 10/1/1 9/1/1
f 12/1/1 10/1/1 11/1/1
f 15/3/1 14/3/1 13/3/1
f 16/3/1 14/3/1 15/3/1
f 17/3/1 15/3/1 13/3/1
f 18/3/1 15/3/1 17/3/1
f 19/3/1 14/3/1 16/3/1
f 20/3/1 14/3/1 19/3/1
f 24/3/1 22/3/1 21/3/1
f 25/3/1 22/3/1 24/3/1
f 27/3/1 24/3/1 23/3/1
f 28/3/1 24/3/1 27/3/1
f 32/3/1 26/3/1 25/3/1
f 33/3/1 26/3/1 32/3/1
f 34/3/1 30/3/1 29/3/1
f 35/3/1 30/3/1 34/3/1
f 36/3/1 32/3/1 31/3/1
f 37/3/1 32/3/1 36/3/1
f 40/2/1 39/2/1 38/2/1
f 41/2/1 39/2/1 40/2/1
f 42/2/1 39/2/1 41/2/1
f 43/2/1 39/2/1 42/2/1
f 46/3/1 45/3/1 44/3/1
f 47/3/1 45/3/1 46/3/1
f 51/3/1 48/3/1 47/3/1
f 52/3/1 48/3/1 51/3/1
f 55/3/1 50/3/1 49/3/1
f 56/3/1 50/3/1 55/3/1
f 57/3/1 53/3/1 52/3/1
f 58/3/1 53/3/1 57/3/1
f 59/3/1 55/3/1 54/3/1
f 60/3/1 55/3/1 59/3/1
f 63/2/1 62/2/1 61/2/1
f 64/2/1 62/2/1 63/2/1
f 65/4/1 64/4/1 63/4/1
f 66/2/1 62/2/1 64/2/1
f 66/4/1 64/4/1 65/4/1
f 67/2/1 62/2/1 66/2/1
f 68/2/1 62/2/1 67/2/1
f 69/2/1 62/2/1 68/2/1
f 70/6/1 68/6/1 67/6/1
f 71/6/1 68/6/1 70/6/1
f 74/3/1 73/3/1 72/3/1
f 75/3/1 73/3/1 74/3/1
f 80/3/1 77/3/1 76/3/1
f 81/3/1 77/3/1 80/3/1
f 82/2/1 79/2/1 78/2/1
f 83/2/1 79/2/1 82/2/1
f 84/4/1 83/4/1 82/4/1
f 85/4/1 83/4/1 84/4/1
f 86/4/1 84/4/1 82/4/1
f 87/4/1 84/4/1 86/4/1
f 90/2/1 89/2/1 88/2/1
f 91/2/1 89/2/1 90/2/1
f 94/2/1 93/2/1 92/2/1
f 95/2/1 93/2/1 94/2/1
f 98/2/1 97/2/1 96/2/1
f 99/2/1 97/2/1 98/2/1
f 100/2/1 97/2/1 99/2/1
f 101/2/1 97/2/1 100/2/1
f 104/4/1 103/4/1 102/4/1
f 105/4/1 103/4/1 104/4/1
f 106/4/1 104/4/1 102/4/1
f 107/4/1 104/4/1 106/4/1
f 110/4/1 109/4/1 108/4/1
f 111/4/1 109/4/1 110/4/1
f 112/4/2 113/4/2 114/4/2
f 114/4/2 113/4/2 115/4/2
f 116/2/2 117/2/2 118/2/2
f 118/2/2 117/2/2 119/2/2
f 119/2/2 117/2/2 120/2/2
f 120/2/2 117/2/2 121/2/2
f 122/4/2 123/4/2 124/4/2
f 124/4/2 123/4/2 125/4/2
f 122/4/2 124/4/2 126/4/2
f 126/4/2 124/4/2 127/4/2
f 128/2/2 129/2/2 130/2/2
f 130/2/2 129/2/2 131/2/2
f 132/3/2 133/3/2 134/3/2
f 134/3/2 133/3/2 135/3/2
f 136/3/2 137/3/2 140/3/2
f 140/3/2 137/3/2 141/3/2
f 138/2/2 139/2/2 142/2/2
f 142/2/2 139/2/2 143/2/2
f 142/4/2 143/4/2 144/4/2
f 144/4/2 143/4/2 145/4/2
f 142/4/2 144/4/2 146/4/2
f 146/4/2 144/4/2 147/4/2
f 148/2/2 149/2/2 150/2/2
f 150/2/2 149/2/2 151/2/2
f 152/2/2 153/2/2 154/2/2
f 154/2/2 153/2/2 155/2/2
f 155/2/2 153/2/2 156/2/2
f 156/2/2 153/2/2 157/2/2
f 158/3/2 159/3/2 160/3/2
f 160/3/2 159/3/2 161/3/2
f 161/3/2 162/3/2 165/3/2
f 165/3/2 162/3/2 166/3/2
f 163/3/2 164/3/2 169/3/2
f 169/3/2 164/3/2 170/3/2
f 166/3/2 167/3/2 171/3/2
f 171/3/2 167/3/2 172/3/2
f 168/3/2 169/3/2 173/3/2
f 173/3/2 169/3/2 174/3/2
f 175/2/2 176/2/2 177/2/2
f 177/2/2 176/2/2 178/2/2
f 177/4/2 178/4/2 179/4/2
f 178/2/2 176/2/2 180/2/2
f 179/4/2 178/4/2 180/4/2
f 180/2/2 176/2/2 181/2/2
f 181/2/2 176/2/2 182/2/2
f 182/2/2 176/2/2 183/2/2
f 181/6/2 182/6/2 184/6/2
f 184/6/2 182/6/2 185/6/2
f 186/3/2 187/3/2 189/3/2
f 189/3/2 187/3/2 190/3/2
f 188/3/2 189/3/2 192/3/2
f 192/3/2 189/3/2 193/3/2
f 190/3/2 191/3/2 197/3/2
f 197/3/2 191/3/2 198/3/2
f 194/3/2 195/3/2 199/3/2
f 199/3/2 195/3/2 200/3/2
f 196/3/2 197/3/2 201/3/2
f 201/3/2 197/3/2 202/3/2
f 203/3/2 204/3/2 205/3/2
f 205/3/2 204/3/2 206/3/2
f 203/3/2 205/3/2 207/3/2
f 207/3/2 205/3/2 208/3/2
f 206/3/2 204/3/2 209/3/2
f 209/3/2 204/3/2 210/3/2
f 211/2/2 212/2/2 213/2/2
f 213/2/2 212/2/2 214/2/2
f 215/1/2 216/1/2 217/1/2
f 217/1/2 216/1/2 218/1/2
f 219/2/2 220/2/2 221/2/2
f 221/2/2 220/2/2 222/2/2
f 225/3/3 224/3/3 223/3/3
f 230/2/3 228/2/3 227/2/3
f 230/4/3 229/4/3 228/4/3
f 231/4/3 229/4/3 230/4/3
f 232/2/3 230/2/3 227/2/3
f 234/2/3 232/2/3 227/2/3
f 235/4/3 233/4/3 232/4/3
f 235/2/3 232/2/3 234/2/3
f 236/4/3 233/4/3 235/4/3
f 237/3/3 225/3/3 223/3/3
f 237/3/3 226/3/3 225/3/3
f 238/3/3 226/3/3 237/3/3
f 239/3/3 237/3/3 223/3/3
f 240/3/3 237/3/3 239/3/3
f 244/3/3 242/3/3 241/3/3
f 245/3/3 242/3/3 244/3/3
f 246/3/3 242/3/3 245/3/3
f 247/3/3 242/3/3 246/3/3
f 251/2/3 250/2/3 249/2/3
f 252/2/3 250/2/3 251/2/3
f 254/3/3 248/3/3 247/3/3
f 255/3/3 248/3/3 254/3/3
f 256/3/3 244/3/3 243/3/3
f 257/3/3 244/3/3 256/3/3
f 258/3/3 254/3/3 253/3/3
f 259/3/3 258/3/3 257/3/3
f 260/3/3 254/3/3 258/3/3
f 260/3/3 258/3/3 259/3/3
f 263/3/3 262/3/3 261/3/3
f 264/3/3 262/3/3 263/3/3
f 269/2/3 267/2/3 266/2/3
f 270/4/3 268/4/3 267/4/3
f 270/2/3 267/2/3 269/2/3
f 271/4/3 268/4/3 270/4/3
f 276/3/3 265/3/3 264/3/3
f 277/3/3 265/3/3 276/3/3
f 278/2/3 273/2/3 272/2/3
f 279/4/3 274/4/3 273/4/3
f 279/2/3 273/2/3 278/2/3
f 280/4/3 274/4/3 279/4/3
f 281/3/3 276/3/3 275/3/3
f 282/3/3 276/3/3 281/3/3
f 291/2/3 286/2/3 285/2/3
f 292/2/3 286/2/3 291/2/3
f 293/6/3 287/6/3 286/6/3
f 293/2/3 286/2/3 292/2/3
f 294/2/3 284/2/3 283/2/3
f 295/2/3 284/2/3 294/2/3
f 296/2/3 292/2/3 291/2/3
f 296/2/3 291/2/3 290/2/3
f 297/5/3 293/5/3 292/5/3
f 297/2/3 292/2/3 296/2/3
f 298/6/3 287/6/3 293/6/3
f 298/5/3 293/5/3 297/5/3
f 299/6/3 287/6/3 298/6/3
f 302/2/3 296/2/3 290/2/3
f 303/2/3 299/2/3 298/2/3
f 303/2/3 298/2/3 297/2/3
f 304/2/3 299/2/3 303/2/3
f 305/2/3 299/2/3 304/2/3
f 306/3/3 289/3/3 288/3/3
f 307/3/3 289/3/3 306/3/3
f 308/2/3 302/2/3 290/2/3
f 308/2/3 303/2/3 302/2/3
f 309/2/3 303/2/3 308/2/3
f 310/5/3 304/5/3 303/5/3
f 310/2/3 303/2/3 309/2/3
f 311/6/3 305/6/3 304/6/3
f 311/5/3 304/5/3 310/5/3
f 312/2/3 301/2/3 300/2/3
f 313/2/3 301/2/3 312/2/3
f 314/2/3 311/2/3 310/2/3
f 314/2/3 310/2/3 309/2/3
f 315/6/3 305/6/3 311/6/3
f 315/2/3 311/2/3 314/2/3
f 316/6/3 305/6/3 315/6/3
f 320/2/3 318/2/3 317/2/3
f 321/2/3 318/2/3 320/2/3
f 323/2/3 320/2/3 319/2/3
f 323/2/3 321/2/3 320/2/3
f 324/1/3 322/1/3 321/1/3
f 324/2/3 321/2/3 323/2/3
f 325/1/3 322/1/3 324/1/3
f 326/1/3 322/1/3 325/1/3
f 329/1/3 322/1/3 326/1/3
f 330/1/3 322/1/3 329/1/3
f 331/2/3 328/2/3 327/2/3
f 332/2/3 328/2/3 331/2/3
f 335/2/3 334/2/3 333/2/3
f 336/2/3 334/2/3 335/2/3
f 340/1/3 338/1/3 337/1/3
f 342/1/3 340/1/3 339/1/3
f 343/2/3 342/2/3 341/2/3
f 344/2/3 342/2/3 343/2/3
f 345/1/3 340/1/3 342/1/3
f 345/2/3 342/2/3 344/2/3
f 346/1/3 338/1/3 340/1/3
f 346/1/3 340/1/3 345/1/3
f 347/2/3 345/2/3 344/2/3
f 348/2/3 345/2/3 347/2/3
f 349/4/4 350/4/4 351/4/4
f 351/4/4 350/4/4 352/4/4
f 353/4/4 354/4/4 355/4/4
f 355/4/4 354/4/4 356/4/4
f 357/4/4 358/4/4 359/4/4
f 359/4/4 358/4/4 360/4/4
f 361/4/4 362/4/4 363/4/4
f 363/4/4 362/4/4 364/4/4
f 365/6/4 366/6/4 367/6/4
f 367/6/4 366/6/4 368/6/4
f 369/6/4 370/6/4 371/6/4
f 371/6/4 370/6/4 372/6/4
f 373/2/4 374/2/4 375/2/4
f 375/2/4 374/2/4 376/2/4
f 377/2/4 378/2/4 379/2/4
f 379/2/4 378/2/4 380/2/4
f 381/2/4 382/2/4 384/2/4
f 384/2/4 382/2/4 385/2/4
f 383/2/4 384/2/4 387/2/4
f 384/2/4 385/2/4 387/2/4
f 385/1/4 386/1/4 388/1/4
f 387/2/4 385/2/4 388/2/4
f 388/1/4 386/1/4 389/1/4
f 389/1/4 386/1/4 390/1/4
f 390/1/4 386/1/4 391/1/4
f 391/1/4 386/1/4 392/1/4
f 393/3/4 394/3/4 397/3/4
f 397/3/4 394/3/4 398/3/4
f 395/2/4 396/2/4 399/2/4
f 399/2/4 396/2/4 400/2/4
f 401/1/4 402/1/4 404/1/4
f 403/1/4 404/1/4 406/1/4
f 405/2/4 406/2/4 407/2/4
f 407/2/4 406/2/4 408/2/4
f 406/1/4 404/1/4 409/1/4
f 408/2/4 406/2/4 409/2/4
f 404/1/4 402/1/4 410/1/4
f 409/1/4 404/1/4 410/1/4
f 408/2/4 409/2/4 411/2/4
f 411/2/4 409/2/4 412/2/4
f 413/3/4 414/3/4 416/3/4
f 416/3/4 414/3/4 417/3/4
f 417/3/4 418/3/4 419/3/4
f 419/3/4 418/3/4 420/3/4
f 415/3/4 416/3/4 424/3/4
f 424/3/4 416/3/4 425/3/4
f 420/3/4 421/3/4 429/3/4
f 429/3/4 421/3/4 430/3/4
f 422/2/4 423/2/4 431/2/4
f 431/2/4 423/2/4 432/2/4
f 426/3/4 427/3/4 433/3/4
f 433/3/4 427/3/4 434/3/4
f 428/3/4 429/3/4 435/3/4
f 435/3/4 429/3/4 436/3/4
f 434/3/4 435/3/4 437/3/4
f 437/3/4 435/3/4 438/3/4
f 439/3/4 440/3/4 441/3/4
f 439/3/4 441/3/4 444/3/4
f 441/3/4 442/3/4 444/3/4
f 443/3/4 444/3/4 445/3/4
f 444/3/4 442/3/4 446/3/4
f 445/3/4 444/3/4 446/3/4
f 446/3/4 442/3/4 447/3/4
f 447/3/4 442/3/4 448/3/4
f 446/3/4 447/3/4 449/3/4
f 449/3/4 447/3/4 450/3/4
f 455/2/5 452/2/5 451/2/5
f 456/2/5 452/2/5 455/2/5
f 457/2/5 454/2/5 453/2/5
f 458/2/5 454/2/5 457/2/5
f 461/3/5 460/3/5 459/3/5
f 462/3/5 460/3/5 461/3/5
f 463/3/5 460/3/5 462/3/5
f 464/3/5 460/3/5 463/3/5
f 465/3/5 461/3/5 459/3/5
f 466/3/5 463/3/5 462/3/5
f 467/3/5 463/3/5 466/3/5
f 468/3/5 460/3/5 464/3/5
f 469/3/5 467/3/5 466/3/5
f 469/3/5 468/3/5 467/3/5
f 469/3/5 465/3/5 459/3/5
f 469/3/5 466/3/5 465/3/5
f 470/3/5 468/3/5 469/3/5
f 471/3/5 468/3/5 470/3/5
f 472/3/5 460/3/5 468/3/5
f 472/3/5 468/3/5 471/3/5
f 473/3/5 471/3/5 470/3/5
f 474/3/5 471/3/5 473/3/5
f 478/3/5 476/3/5 475/3/5
f 479/3/5 476/3/5 478/3/5
f 481/3/5 478/3/5 477/3/5
f 482/3/5 478/3/5 481/3/5
f 485/3/5 480/3/5 479/3/5
f 486/3/5 480/3/5 485/3/5
f 487/3/5 483/3/5 482/3/5
f 488/3/5 483/3/5 487/3/5
f 489/3/5 485/3/5 484/3/5
f 490/3/5 485/3/5 489/3/5
f 495/2/5 492/2/5 491/2/5
f 496/2/5 492/2/5 495/2/5
f 497/2/5 494/2/5 493/2/5
f 498/2/5 494/2/5 497/2/5
f 503/2/5 500/2/5 499/2/5
f 504/2/5 500/2/5 503/2/5
f 505/2/5 502/2/5 501/2/5
f 506/2/5 502/2/5 505/2/5
f 510/2/5 508/2/5 507/2/5
f 511/2/5 508/2/5 510/2/5
f 513/2/5 510/2/5 509/2/5
f 513/2/5 512/2/5 511/2/5
f 513/2/5 511/2/5 510/2/5
f 514/2/5 512/2/5 513/2/5
f 515/2/5 513/2/5 509/2/5
f 516/2/5 512/2/5 514/2/5
f 517/2/5 515/2/5 509/2/5
f 517/2/5 516/2/5 515/2/5
f 518/2/5 512/2/5 516/2/5
f 518/2/5 516/2/5 517/2/5
f 521/2/5 520/2/5 519/2/5
f 522/2/5 520/2/5 521/2/5
f 523/2/6 524/2/6 527/2/6
f 527/2/6 524/2/6 528/2/6
f 525/2/6 526/2/6 529/2/6
f 529/2/6 526/2/6 530/2/6
f 531/3/6 532/3/6 535/3/6
f 535/3/6 532/3/6 536/3/6
f 533/3/6 534/3/6 537/3/6
f 537/3/6 534/3/6 538/3/6
f 539/3/6 540/3/6 542/3/6
f 542/3/6 540/3/6 543/3/6
f 541/3/6 542/3/6 545/3/6
f 545/3/6 542/3/6 546/3/6
f 543/3/6 544/3/6 547/3/6
f 547/3/6 544/3/6 548/3/6
f 541/3/6 545/3/6 551/3/6
f 551/3/6 545/3/6 552/3/6
f 548/3/6 544/3/6 553/3/6
f 553/3/6 544/3/6 554/3/6
f 549/2/6 550/2/6 557/2/6
f 557/2/6 550/2/6 558/2/6
f 555/2/6 556/2/6 563/2/6
f 563/2/6 556/2/6 564/2/6
f 559/3/6 560/3/6 565/3/6
f 565/3/6 560/3/6 566/3/6
f 561/3/6 562/3/6 569/3/6
f 569/3/6 562/3/6 570/3/6
f 566/3/6 567/3/6 571/3/6
f 571/3/6 567/3/6 572/3/6
f 568/3/6 569/3/6 573/3/6
f 573/3/6 569/3/6 574/3/6
f 575/3/6 576/3/6 578/3/6
f 578/3/6 576/3/6 579/3/6
f 577/3/6 578/3/6 581/3/6
f 581/3/6 578/3/6 582/3/6
f 579/3/6 580/3/6 583/3/6
f 583/3/6 580/3/6 584/3/6
f 585/3/6 586/3/6 589/3/6
f 589/3/6 586/3/6 590/3/6
f 587/3/6 588/3/6 591/3/6
f 591/3/6 588/3/6 592/3/6
f 590/3/6 591/3/6 593/3/6
f 593/3/6 591/3/6 594/3/6
f 595/3/6 596/3/6 597/3/6
f 597/3/6 596/3/6 598/3/6
f 595/3/6 597/3/6 600/3/6
f 598/3/6 596/3/6 601/3/6
f 599/1/6 600/1/6 603/1/6
f 600/3/6 597/3/6 604/3/6
f 603/1/6 600/1/6 604/1/6
f 604/3/6 597/3/6 605/3/6
f 598/3/6 601/3/6 606/3/6
f 601/1/6 602/1/6 607/1/6
f 606/3/6 601/3/6 607/3/6
f 607/1/6 602/1/6 608/1/6
f 605/3/6 606/3/6 609/3/6
f 604/3/6 605/3/6 609/3/6
f 606/3/6 607/3/6 609/3/6
f 609/3/6 607/3/6 610/3/6
f 611/2/6 612/2/6 614/2/6
f 614/2/6 612/2/6 615/2/6
f 613/2/6 614/2/6 617/2/6
f 615/2/6 616/2/6 617/2/6
f 614/2/6 615/2/6 617/2/6
f 617/2/6 616/2/6 618/2/6
f 619/4/6 620/4/6 624/4/6
f 624/4/6 620/4/6 625/4/6
f 621/4/6 622/4/6 626/4/6
f 626/4/6 622/4/6 627/4/6
f 623/4/6 624/4/6 629/4/6
f 629/4/6 624/4/6 630/4/6
f 627/4/6 628/4/6 631/4/6
f 631/4/6 628/4/6 632/4/6
f 633/4/6 634/4/6 637/4/6
f 637/4/6 634/4/6 638/4/6
f 635/4/6 636/4/6 639/4/6
f 639/4/6 636/4/6 640/4/6
f 641/2/6 642/2/6 643/2/6
f 643/2/6 642/2/6 644/2/6
f 645/2/6 646/2/6 649/2/6
f 647/2/6 648/2/6 650/2/6
f 645/2/6 649/2/6 651/2/6
f 649/2/6 650/2/6 651/2/6
f 650/2/6 648/2/6 652/2/6
f 651/2/6 650/2/6 652/2/6
f 653/6/6 654/6/6 657/6/6
f 657/6/6 654/6/6 658/6/6
f 654/2/6 655/2/6 659/2/6
f 658/6/6 654/6/6 659/6/6
f 655/6/6 656/6/6 660/6/6
f 659/2/6 655/2/6 660/2/6
f 660/6/6 656/6/6 661/6/6
f 661/6/6 656/6/6 662/6/6
f 658/2/6 659/2/6 663/2/6
f 660/2/6 661/2/6 663/2/6
f 659/2/6 660/2/6 663/2/6
f 663/2/6 661/2/6 664/2/6
