# MagicaVoxel @ Ephtracy

# group
o 

# material
mtllib archer.mtl
usemtl palette

# normals
vn -1 0 0
vn 1 0 0
vn 0 0 1
vn 0 0 -1
vn 0 -1 0
vn 0 1 0

# texcoords
vt 0.193359 0.5
vt 0.974609 0.5
vt 0.978516 0.5
vt 0.982422 0.5

# verts
v -0.1 -0.6 0.2
v -0.1 -0.6 0
v -0.1 -0.6 -0.1
v -0.1 -0.6 -0.3
v -0.1 -0.5 0.2
v -0.1 -0.5 0
v -0.1 -0.5 -0.1
v -0.1 -0.5 -0.3
v -0.1 -0.2 0.1
v -0.1 -0.2 -0.2
v -0.1 -0.1 0.2
v -0.1 -0.1 0.1
v -0.1 -0.1 -0.2
v -0.1 -0.1 -0.3
v -0.1 -5.96046e-08 0.2
v -0.1 -5.96046e-08 0.1
v -0.1 -5.96046e-08 -0.2
v -0.1 -5.96046e-08 -0.3
v -0.1 0.1 0.2
v -0.1 0.1 0.1
v -0.1 0.1 -0.2
v -0.1 0.1 -0.3
v -0.1 0.2 0.1
v -0.1 0.2 -0.2
v 0 -0.5 0.2
v 0 -0.5 0
v 0 -0.5 -0.1
v 0 -0.5 -0.3
v 0 -0.3 0.1
v 0 -0.3 0
v 0 -0.3 -0.1
v 0 -0.3 -0.2
v 0 -0.2 0.2
v 0 -0.2 0.1
v 0 -0.2 -0.2
v 0 -0.2 -0.3
v 0 -0.1 0.2
v 0 -0.1 0.1
v 0 -0.1 -0.2
v 0 -0.1 -0.3
v 0 -5.96046e-08 0.3
v 0 -5.96046e-08 0.2
v 0 -5.96046e-08 -0.3
v 0 -5.96046e-08 -0.4
v 0 0.1 0.4
v 0 0.1 0.3
v 0 0.1 0.2
v 0 0.1 0.1
v 0 0.1 -0.2
v 0 0.1 -0.3
v 0 0.1 -0.4
v 0 0.1 -0.5
v 0 0.2 0.4
v 0 0.2 0.3
v 0 0.2 0.1
v 0 0.2 -0.2
v 0 0.2 -0.4
v 0 0.2 -0.5
v 0 0.3 0.3
v 0 0.3 0.2
v 0 0.3 0.1
v 0 0.3 0
v 0 0.3 -0.1
v 0 0.3 -0.2
v 0 0.3 -0.3
v 0 0.3 -0.4
v 0 0.5 0.1
v 0 0.5 0
v 0 0.5 -0.1
v 0 0.5 -0.2
v 0 0.6 0
v 0 0.6 -0.1
v 0.1 -0.1 0.3
v 0.1 -0.1 0.2
v 0.1 -0.1 -0.3
v 0.1 -0.1 -0.4
v 0.1 -5.96046e-08 0.4
v 0.1 -5.96046e-08 0.3
v 0.1 -5.96046e-08 0.2
v 0.1 -5.96046e-08 -0.3
v 0.1 -5.96046e-08 -0.4
v 0.1 -5.96046e-08 -0.5
v 0.1 0.1 0.4
v 0.1 0.1 0.3
v 0.1 0.1 -0.4
v 0.1 0.1 -0.5
v 0.1 0.2 0.4
v 0.1 0.2 0.3
v 0.1 0.2 -0.4
v 0.1 0.2 -0.5
v 0.1 0.3 0.4
v 0.1 0.3 0.3
v 0.1 0.3 0.2
v 0.1 0.3 0.1
v 0.1 0.3 -0.2
v 0.1 0.3 -0.3
v 0.1 0.3 -0.4
v 0.1 0.3 -0.5
v 0.1 0.4 0.2
v 0.1 0.4 0.1
v 0.1 0.4 -0.2
v 0.1 0.4 -0.3
v 0.1 0.5 0.1
v 0.1 0.5 0
v 0.1 0.5 -0.1
v 0.1 0.5 -0.2
v 0.1 0.6 0.1
v 0.1 0.6 0
v 0.1 0.6 -0.1
v 0.1 0.6 -0.2
v 0.1 0.7 0
v 0.1 0.7 -0.1
v 0.2 -0.6 0.2
v 0.2 -0.6 0
v 0.2 -0.6 -0.1
v 0.2 -0.6 -0.3
v 0.2 -0.3 0
v 0.2 -0.3 -0.1
v 0.2 -0.2 0.2
v 0.2 -0.2 0.1
v 0.2 -0.2 -0.2
v 0.2 -0.2 -0.3
v 0.2 -0.1 0.3
v 0.2 -0.1 0.2
v 0.2 -0.1 0.1
v 0.2 -0.1 -0.2
v 0.2 -0.1 -0.3
v 0.2 -0.1 -0.4
v 0.2 -5.96046e-08 0.4
v 0.2 -5.96046e-08 0.3
v 0.2 -5.96046e-08 0.2
v 0.2 -5.96046e-08 -0.3
v 0.2 -5.96046e-08 -0.4
v 0.2 -5.96046e-08 -0.5
v 0.2 0.1 0.4
v 0.2 0.1 0.3
v 0.2 0.1 -0.4
v 0.2 0.1 -0.5
v 0.2 0.2 0.4
v 0.2 0.2 0.3
v 0.2 0.2 -0.4
v 0.2 0.2 -0.5
v 0.2 0.3 0.4
v 0.2 0.3 0.3
v 0.2 0.3 0.2
v 0.2 0.3 0.1
v 0.2 0.3 -0.2
v 0.2 0.3 -0.3
v 0.2 0.3 -0.4
v 0.2 0.3 -0.5
v 0.2 0.4 0.2
v 0.2 0.4 0.1
v 0.2 0.4 -0.2
v 0.2 0.4 -0.3
v 0.2 0.5 0.1
v 0.2 0.5 0
v 0.2 0.5 -0.1
v 0.2 0.5 -0.2
v 0.2 0.6 0.1
v 0.2 0.6 0
v 0.2 0.6 -0.1
v 0.2 0.6 -0.2
v 0.2 0.7 0
v 0.2 0.7 -0.1
v 0.3 -0.2 0.1
v 0.3 -0.2 -0.2
v 0.3 -0.1 0.2
v 0.3 -0.1 0.1
v 0.3 -0.1 -0.2
v 0.3 -0.1 -0.3
v 0.3 -5.96046e-08 0.3
v 0.3 -5.96046e-08 0.2
v 0.3 -5.96046e-08 -0.3
v 0.3 -5.96046e-08 -0.4
v 0.3 0.1 0.4
v 0.3 0.1 0.3
v 0.3 0.1 0.2
v 0.3 0.1 -0.3
v 0.3 0.1 -0.4
v 0.3 0.1 -0.5
v 0.3 0.2 0.4
v 0.3 0.2 0.3
v 0.3 0.2 -0.4
v 0.3 0.2 -0.5
v 0.3 0.3 0.3
v 0.3 0.3 0.2
v 0.3 0.3 0.1
v 0.3 0.3 -0.2
v 0.3 0.3 -0.3
v 0.3 0.3 -0.4
v 0.3 0.5 0.1
v 0.3 0.5 0
v 0.3 0.5 -0.1
v 0.3 0.5 -0.2
v 0.3 0.6 0
v 0.3 0.6 -0.1
v 0 0.1 0.4
v 0 0.2 0.4
v 0.1 -5.96046e-08 0.4
v 0.1 0.1 0.4
v 0.1 0.2 0.4
v 0.1 0.3 0.4
v 0.2 -5.96046e-08 0.4
v 0.2 0.1 0.4
v 0.2 0.2 0.4
v 0.2 0.3 0.4
v 0.3 0.1 0.4
v 0.3 0.2 0.4
v 0 -5.96046e-08 0.3
v 0 0.1 0.3
v 0 0.2 0.3
v 0 0.3 0.3
v 0.1 -0.1 0.3
v 0.1 -5.96046e-08 0.3
v 0.1 0.1 0.3
v 0.1 0.2 0.3
v 0.1 0.3 0.3
v 0.2 -0.1 0.3
v 0.2 -5.96046e-08 0.3
v 0.2 0.1 0.3
v 0.2 0.2 0.3
v 0.2 0.3 0.3
v 0.3 -5.96046e-08 0.3
v 0.3 0.1 0.3
v 0.3 0.2 0.3
v 0.3 0.3 0.3
v -0.1 -0.6 0.2
v -0.1 -0.5 0.2
v -0.1 -0.1 0.2
v -0.1 -5.96046e-08 0.2
v -0.1 0.1 0.2
v 0 -0.5 0.2
v 0 -0.2 0.2
v 0 -0.1 0.2
v 0 -5.96046e-08 0.2
v 0 0.1 0.2
v 0.1 -0.1 0.2
v 0.1 -5.96046e-08 0.2
v 0.1 0.3 0.2
v 0.1 0.4 0.2
v 0.2 -0.6 0.2
v 0.2 -0.2 0.2
v 0.2 -0.1 0.2
v 0.2 -5.96046e-08 0.2
v 0.2 0.3 0.2
v 0.2 0.4 0.2
v 0.3 -0.1 0.2
v 0.3 -5.96046e-08 0.2
v -0.1 -0.2 0.1
v -0.1 -0.1 0.1
v -0.1 0.1 0.1
v -0.1 0.2 0.1
v 0 -0.2 0.1
v 0 -0.1 0.1
v 0 0.1 0.1
v 0 0.2 0.1
v 0 0.3 0.1
v 0 0.5 0.1
v 0.1 0.3 0.1
v 0.1 0.4 0.1
v 0.1 0.5 0.1
v 0.1 0.6 0.1
v 0.2 -0.2 0.1
v 0.2 -0.1 0.1
v 0.2 0.3 0.1
v 0.2 0.4 0.1
v 0.2 0.5 0.1
v 0.2 0.6 0.1
v 0.3 -0.2 0.1
v 0.3 -0.1 0.1
v 0.3 0.3 0.1
v 0.3 0.5 0.1
v 0 0.5 0
v 0 0.6 0
v 0.1 0.5 0
v 0.1 0.6 0
v 0.1 0.7 0
v 0.2 0.5 0
v 0.2 0.6 0
v 0.2 0.7 0
v 0.3 0.5 0
v 0.3 0.6 0
v -0.1 -0.6 -0.1
v -0.1 -0.5 -0.1
v 0 -0.5 -0.1
v 0 -0.3 -0.1
v 0.1 -0.3 -0.1
v 0.2 -0.6 -0.1
v 0.2 -0.3 -0.1
v -0.1 -0.6 0
v -0.1 -0.5 0
v 0 -0.5 0
v 0 -0.3 0
v 0.1 -0.3 0
v 0.2 -0.6 0
v 0.2 -0.3 0
v 0 0.5 -0.1
v 0 0.6 -0.1
v 0.1 0.5 -0.1
v 0.1 0.6 -0.1
v 0.1 0.7 -0.1
v 0.2 0.5 -0.1
v 0.2 0.6 -0.1
v 0.2 0.7 -0.1
v 0.3 0.5 -0.1
v 0.3 0.6 -0.1
v -0.1 -0.2 -0.2
v -0.1 -0.1 -0.2
v -0.1 0.1 -0.2
v -0.1 0.2 -0.2
v 0 -0.2 -0.2
v 0 -0.1 -0.2
v 0 0.1 -0.2
v 0 0.2 -0.2
v 0 0.3 -0.2
v 0 0.5 -0.2
v 0.1 0.3 -0.2
v 0.1 0.4 -0.2
v 0.1 0.5 -0.2
v 0.1 0.6 -0.2
v 0.2 -0.2 -0.2
v 0.2 -0.1 -0.2
v 0.2 0.3 -0.2
v 0.2 0.4 -0.2
v 0.2 0.5 -0.2
v 0.2 0.6 -0.2
v 0.3 -0.2 -0.2
v 0.3 -0.1 -0.2
v 0.3 0.3 -0.2
v 0.3 0.5 -0.2
v -0.1 -0.6 -0.3
v -0.1 -0.5 -0.3
v -0.1 -0.1 -0.3
v -0.1 -5.96046e-08 -0.3
v -0.1 0.1 -0.3
v 0 -0.5 -0.3
v 0 -0.2 -0.3
v 0 -0.1 -0.3
v 0 -5.96046e-08 -0.3
v 0 0.1 -0.3
v 0.1 -0.1 -0.3
v 0.1 -5.96046e-08 -0.3
v 0.1 0.3 -0.3
v 0.1 0.4 -0.3
v 0.2 -0.6 -0.3
v 0.2 -0.2 -0.3
v 0.2 -0.1 -0.3
v 0.2 -5.96046e-08 -0.3
v 0.2 0.3 -0.3
v 0.2 0.4 -0.3
v 0.3 -0.1 -0.3
v 0.3 -5.96046e-08 -0.3
v 0 -5.96046e-08 -0.4
v 0 0.1 -0.4
v 0 0.2 -0.4
v 0 0.3 -0.4
v 0.1 -0.1 -0.4
v 0.1 -5.96046e-08 -0.4
v 0.1 0.1 -0.4
v 0.1 0.2 -0.4
v 0.1 0.3 -0.4
v 0.2 -0.1 -0.4
v 0.2 -5.96046e-08 -0.4
v 0.2 0.1 -0.4
v 0.2 0.2 -0.4
v 0.2 0.3 -0.4
v 0.3 -5.96046e-08 -0.4
v 0.3 0.1 -0.4
v 0.3 0.2 -0.4
v 0.3 0.3 -0.4
v 0 0.1 -0.5
v 0 0.2 -0.5
v 0.1 -5.96046e-08 -0.5
v 0.1 0.1 -0.5
v 0.1 0.2 -0.5
v 0.1 0.3 -0.5
v 0.2 -5.96046e-08 -0.5
v 0.2 0.1 -0.5
v 0.2 0.2 -0.5
v 0.2 0.3 -0.5
v 0.3 0.1 -0.5
v 0.3 0.2 -0.5
v -0.1 -0.6 0.2
v 0.2 -0.6 0.2
v -0.1 -0.6 0
v 0.2 -0.6 0
v -0.1 -0.6 -0.1
v 0.2 -0.6 -0.1
v -0.1 -0.6 -0.3
v 0.2 -0.6 -0.3
v 0 -0.3 0
v 0.1 -0.3 0
v 0.2 -0.3 0
v 0 -0.3 -0.1
v 0.1 -0.3 -0.1
v 0.2 -0.3 -0.1
v -0.1 -0.2 0.1
v 0 -0.2 0.1
v 0.2 -0.2 0.1
v 0.3 -0.2 0.1
v -0.1 -0.2 -0.2
v 0 -0.2 -0.2
v 0.2 -0.2 -0.2
v 0.3 -0.2 -0.2
v 0.1 -0.1 0.3
v 0.2 -0.1 0.3
v -0.1 -0.1 0.2
v 0 -0.1 0.2
v 0.1 -0.1 0.2
v 0.2 -0.1 0.2
v 0.3 -0.1 0.2
v -0.1 -0.1 0.1
v 0 -0.1 0.1
v 0.2 -0.1 0.1
v 0.3 -0.1 0.1
v -0.1 -0.1 -0.2
v 0 -0.1 -0.2
v 0.2 -0.1 -0.2
v 0.3 -0.1 -0.2
v -0.1 -0.1 -0.3
v 0 -0.1 -0.3
v 0.1 -0.1 -0.3
v 0.2 -0.1 -0.3
v 0.3 -0.1 -0.3
v 0.1 -0.1 -0.4
v 0.2 -0.1 -0.4
v 0.1 -5.96046e-08 0.4
v 0.2 -5.96046e-08 0.4
v 0 -5.96046e-08 0.3
v 0.1 -5.96046e-08 0.3
v 0.2 -5.96046e-08 0.3
v 0.3 -5.96046e-08 0.3
v 0 -5.96046e-08 0.2
v 0.1 -5.96046e-08 0.2
v 0.2 -5.96046e-08 0.2
v 0.3 -5.96046e-08 0.2
v 0 -5.96046e-08 -0.3
v 0.1 -5.96046e-08 -0.3
v 0.2 -5.96046e-08 -0.3
v 0.3 -5.96046e-08 -0.3
v 0 -5.96046e-08 -0.4
v 0.1 -5.96046e-08 -0.4
v 0.2 -5.96046e-08 -0.4
v 0.3 -5.96046e-08 -0.4
v 0.1 -5.96046e-08 -0.5
v 0.2 -5.96046e-08 -0.5
v 0 0.1 0.4
v 0.1 0.1 0.4
v 0.2 0.1 0.4
v 0.3 0.1 0.4
v 0 0.1 0.3
v 0.1 0.1 0.3
v 0.2 0.1 0.3
v 0.3 0.1 0.3
v 0 0.1 -0.4
v 0.1 0.1 -0.4
v 0.2 0.1 -0.4
v 0.3 0.1 -0.4
v 0 0.1 -0.5
v 0.1 0.1 -0.5
v 0.2 0.1 -0.5
v 0.3 0.1 -0.5
v -0.1 -0.5 0.2
v 0 -0.5 0.2
v -0.1 -0.5 0
v 0 -0.5 0
v -0.1 -0.5 -0.1
v 0 -0.5 -0.1
v -0.1 -0.5 -0.3
v 0 -0.5 -0.3
v -0.1 0.1 0.2
v 0 0.1 0.2
v -0.1 0.1 0.1
v 0 0.1 0.1
v -0.1 0.1 -0.2
v 0 0.1 -0.2
v -0.1 0.1 -0.3
v 0 0.1 -0.3
v 0 0.2 0.4
v 0.1 0.2 0.4
v 0.2 0.2 0.4
v 0.3 0.2 0.4
v 0 0.2 0.3
v 0.1 0.2 0.3
v 0.2 0.2 0.3
v 0.3 0.2 0.3
v -0.1 0.2 0.1
v 0 0.2 0.1
v -0.1 0.2 -0.2
v 0 0.2 -0.2
v 0 0.2 -0.4
v 0.1 0.2 -0.4
v 0.2 0.2 -0.4
v 0.3 0.2 -0.4
v 0 0.2 -0.5
v 0.1 0.2 -0.5
v 0.2 0.2 -0.5
v 0.3 0.2 -0.5
v 0.1 0.3 0.4
v 0.2 0.3 0.4
v 0 0.3 0.3
v 0.1 0.3 0.3
v 0.2 0.3 0.3
v 0.3 0.3 0.3
v 0 0.3 0.2
v 0.1 0.3 0.2
v 0.2 0.3 0.2
v 0.3 0.3 0.2
v 0 0.3 0.1
v 0.1 0.3 0.1
v 0.2 0.3 0.1
v 0.3 0.3 0.1
v 0 0.3 -0.2
v 0.1 0.3 -0.2
v 0.2 0.3 -0.2
v 0.3 0.3 -0.2
v 0 0.3 -0.3
v 0.1 0.3 -0.3
v 0.2 0.3 -0.3
v 0.3 0.3 -0.3
v 0 0.3 -0.4
v 0.1 0.3 -0.4
v 0.2 0.3 -0.4
v 0.3 0.3 -0.4
v 0.1 0.3 -0.5
v 0.2 0.3 -0.5
v 0.1 0.4 0.2
v 0.2 0.4 0.2
v 0.1 0.4 0.1
v 0.2 0.4 0.1
v 0.1 0.4 -0.2
v 0.2 0.4 -0.2
v 0.1 0.4 -0.3
v 0.2 0.4 -0.3
v 0 0.5 0.1
v 0.1 0.5 0.1
v 0.2 0.5 0.1
v 0.3 0.5 0.1
v 0 0.5 0
v 0.1 0.5 0
v 0.2 0.5 0
v 0.3 0.5 0
v 0 0.5 -0.1
v 0.1 0.5 -0.1
v 0.2 0.5 -0.1
v 0.3 0.5 -0.1
v 0 0.5 -0.2
v 0.1 0.5 -0.2
v 0.2 0.5 -0.2
v 0.3 0.5 -0.2
v 0.1 0.6 0.1
v 0.2 0.6 0.1
v 0 0.6 0
v 0.1 0.6 0
v 0.2 0.6 0
v 0.3 0.6 0
v 0 0.6 -0.1
v 0.1 0.6 -0.1
v 0.2 0.6 -0.1
v 0.3 0.6 -0.1
v 0.1 0.6 -0.2
v 0.2 0.6 -0.2
v 0.1 0.7 0
v 0.2 0.7 0
v 0.1 0.7 -0.1
v 0.2 0.7 -0.1

# faces
f 5/2/1 2/2/1 1/2/1
f 6/2/1 2/2/1 5/2/1
f 7/2/1 4/2/1 3/2/1
f 8/2/1 4/2/1 7/2/1
f 12/3/1 10/3/1 9/3/1
f 13/3/1 10/3/1 12/3/1
f 15/3/1 12/3/1 11/3/1
f 16/4/1 13/4/1 12/4/1
f 16/3/1 12/3/1 15/3/1
f 17/3/1 14/3/1 13/3/1
f 17/4/1 13/4/1 16/4/1
f 18/3/1 14/3/1 17/3/1
f 19/4/1 16/4/1 15/4/1
f 20/3/1 17/3/1 16/3/1
f 20/4/1 16/4/1 19/4/1
f 21/4/1 18/4/1 17/4/1
f 21/3/1 17/3/1 20/3/1
f 22/4/1 18/4/1 21/4/1
f 23/3/1 21/3/1 20/3/1
f 24/3/1 21/3/1 23/3/1
f 29/2/1 26/2/1 25/2/1
f 30/2/1 26/2/1 29/2/1
f 31/2/1 28/2/1 27/2/1
f 32/2/1 28/2/1 31/2/1
f 33/2/1 29/2/1 25/2/1
f 34/4/1 30/4/1 29/4/1
f 34/2/1 29/2/1 33/2/1
f 34/4/1 31/4/1 30/4/1
f 34/4/1 32/4/1 31/4/1
f 35/2/1 28/2/1 32/2/1
f 35/4/1 32/4/1 34/4/1
f 36/2/1 28/2/1 35/2/1
f 37/4/1 34/4/1 33/4/1
f 38/4/1 34/4/1 37/4/1
f 39/4/1 36/4/1 35/4/1
f 40/4/1 36/4/1 39/4/1
f 46/1/1 42/1/1 41/1/1
f 47/1/1 42/1/1 46/1/1
f 50/1/1 44/1/1 43/1/1
f 51/1/1 44/1/1 50/1/1
f 53/4/1 46/4/1 45/4/1
f 53/4/1 47/4/1 46/4/1
f 54/4/1 47/4/1 53/4/1
f 55/3/1 48/3/1 47/3/1
f 56/3/1 50/3/1 49/3/1
f 57/4/1 52/4/1 51/4/1
f 57/4/1 51/4/1 50/4/1
f 58/4/1 52/4/1 57/4/1
f 59/4/1 47/4/1 54/4/1
f 60/3/1 56/3/1 55/3/1
f 60/4/1 47/4/1 59/4/1
f 60/3/1 55/3/1 47/3/1
f 61/3/1 56/3/1 60/3/1
f 62/3/1 56/3/1 61/3/1
f 63/3/1 56/3/1 62/3/1
f 64/3/1 50/3/1 56/3/1
f 64/3/1 56/3/1 63/3/1
f 65/4/1 57/4/1 50/4/1
f 65/3/1 50/3/1 64/3/1
f 66/4/1 57/4/1 65/4/1
f 67/4/1 62/4/1 61/4/1
f 68/1/1 63/1/1 62/1/1
f 68/4/1 62/4/1 67/4/1
f 69/4/1 64/4/1 63/4/1
f 69/1/1 63/1/1 68/1/1
f 70/4/1 64/4/1 69/4/1
f 71/4/1 69/4/1 68/4/1
f 72/4/1 69/4/1 71/4/1
f 78/1/1 74/1/1 73/1/1
f 79/1/1 74/1/1 78/1/1
f 80/1/1 76/1/1 75/1/1
f 81/1/1 76/1/1 80/1/1
f 83/1/1 78/1/1 77/1/1
f 84/1/1 78/1/1 83/1/1
f 85/1/1 82/1/1 81/1/1
f 86/1/1 82/1/1 85/1/1
f 91/4/1 88/4/1 87/4/1
f 92/4/1 88/4/1 91/4/1
f 97/4/1 90/4/1 89/4/1
f 98/4/1 90/4/1 97/4/1
f 99/4/1 94/4/1 93/4/1
f 100/4/1 94/4/1 99/4/1
f 101/4/1 96/4/1 95/4/1
f 102/4/1 96/4/1 101/4/1
f 107/4/1 104/4/1 103/4/1
f 108/4/1 104/4/1 107/4/1
f 109/4/1 106/4/1 105/4/1
f 110/4/1 106/4/1 109/4/1
f 111/4/1 109/4/1 108/4/1
f 112/4/1 109/4/1 111/4/1
f 113/2/2 114/2/2 117/2/2
f 115/2/2 116/2/2 118/2/2
f 113/2/2 117/2/2 119/2/2
f 117/2/2 118/2/2 119/2/2
f 119/2/2 118/2/2 120/2/2
f 118/2/2 116/2/2 121/2/2
f 120/2/2 118/2/2 121/2/2
f 121/2/2 116/2/2 122/2/2
f 119/4/2 120/4/2 124/4/2
f 124/4/2 120/4/2 125/4/2
f 121/4/2 122/4/2 126/4/2
f 126/4/2 122/4/2 127/4/2
f 123/1/2 124/1/2 130/1/2
f 130/1/2 124/1/2 131/1/2
f 127/1/2 128/1/2 132/1/2
f 132/1/2 128/1/2 133/1/2
f 129/1/2 130/1/2 135/1/2
f 135/1/2 130/1/2 136/1/2
f 133/1/2 134/1/2 137/1/2
f 137/1/2 134/1/2 138/1/2
f 139/4/2 140/4/2 143/4/2
f 143/4/2 140/4/2 144/4/2
f 141/4/2 142/4/2 149/4/2
f 149/4/2 142/4/2 150/4/2
f 145/4/2 146/4/2 151/4/2
f 151/4/2 146/4/2 152/4/2
f 147/4/2 148/4/2 153/4/2
f 153/4/2 148/4/2 154/4/2
f 155/4/2 156/4/2 159/4/2
f 159/4/2 156/4/2 160/4/2
f 157/4/2 158/4/2 161/4/2
f 161/4/2 158/4/2 162/4/2
f 160/4/2 161/4/2 163/4/2
f 163/4/2 161/4/2 164/4/2
f 165/4/2 166/4/2 168/4/2
f 168/4/2 166/4/2 169/4/2
f 167/3/2 168/3/2 172/3/2
f 169/3/2 170/3/2 172/3/2
f 168/3/2 169/3/2 172/3/2
f 172/3/2 170/3/2 173/3/2
f 171/1/2 172/1/2 176/1/2
f 172/4/2 173/4/2 177/4/2
f 176/1/2 172/1/2 177/1/2
f 173/1/2 174/1/2 178/1/2
f 177/4/2 173/4/2 178/4/2
f 178/1/2 174/1/2 179/1/2
f 176/4/2 177/4/2 181/4/2
f 175/4/2 176/4/2 181/4/2
f 181/4/2 177/4/2 182/4/2
f 179/4/2 180/4/2 183/4/2
f 178/4/2 179/4/2 183/4/2
f 183/4/2 180/4/2 184/4/2
f 182/4/2 177/4/2 185/4/2
f 177/3/2 178/3/2 186/3/2
f 185/4/2 177/4/2 186/4/2
f 186/3/2 178/3/2 187/3/2
f 187/3/2 178/3/2 188/3/2
f 178/4/2 183/4/2 189/4/2
f 188/3/2 178/3/2 189/3/2
f 189/4/2 183/4/2 190/4/2
f 187/4/2 188/4/2 191/4/2
f 191/4/2 188/4/2 192/4/2
f 192/4/2 188/4/2 193/4/2
f 193/4/2 188/4/2 194/4/2
f 192/4/2 193/4/2 195/4/2
f 195/4/2 193/4/2 196/4/2
f 200/4/3 198/4/3 197/4/3
f 201/4/3 198/4/3 200/4/3
f 203/1/3 200/1/3 199/1/3
f 204/4/3 202/4/3 201/4/3
f 204/1/3 200/1/3 203/1/3
f 204/4/3 201/4/3 200/4/3
f 205/4/3 202/4/3 204/4/3
f 206/4/3 202/4/3 205/4/3
f 207/4/3 205/4/3 204/4/3
f 208/4/3 205/4/3 207/4/3
f 214/1/3 210/1/3 209/1/3
f 215/1/3 210/1/3 214/1/3
f 216/4/3 212/4/3 211/4/3
f 217/4/3 212/4/3 216/4/3
f 218/1/3 214/1/3 213/1/3
f 219/1/3 214/1/3 218/1/3
f 223/1/3 220/1/3 219/1/3
f 224/1/3 220/1/3 223/1/3
f 225/4/3 222/4/3 221/4/3
f 226/4/3 222/4/3 225/4/3
f 232/2/3 228/2/3 227/2/3
f 234/3/3 230/3/3 229/3/3
f 235/4/3 231/4/3 230/4/3
f 235/3/3 230/3/3 234/3/3
f 236/4/3 231/4/3 235/4/3
f 237/4/3 234/4/3 233/4/3
f 237/3/3 235/3/3 234/3/3
f 238/3/3 235/3/3 237/3/3
f 241/2/3 233/2/3 232/2/3
f 241/2/3 232/2/3 227/2/3
f 242/4/3 237/4/3 233/4/3
f 242/2/3 233/2/3 241/2/3
f 243/4/3 237/4/3 242/4/3
f 245/4/3 240/4/3 239/4/3
f 246/4/3 240/4/3 245/4/3
f 247/3/3 244/3/3 243/3/3
f 248/3/3 244/3/3 247/3/3
f 253/3/3 250/3/3 249/3/3
f 254/3/3 250/3/3 253/3/3
f 255/3/3 252/3/3 251/3/3
f 256/3/3 252/3/3 255/3/3
f 259/4/3 258/4/3 257/4/3
f 260/4/3 258/4/3 259/4/3
f 261/4/3 258/4/3 260/4/3
f 266/4/3 262/4/3 261/4/3
f 266/4/3 261/4/3 260/4/3
f 267/4/3 262/4/3 266/4/3
f 268/4/3 262/4/3 267/4/3
f 269/4/3 264/4/3 263/4/3
f 270/4/3 264/4/3 269/4/3
f 271/4/3 266/4/3 265/4/3
f 271/4/3 267/4/3 266/4/3
f 272/4/3 267/4/3 271/4/3
f 275/4/3 274/4/3 273/4/3
f 276/4/3 274/4/3 275/4/3
f 279/4/3 277/4/3 276/4/3
f 280/4/3 277/4/3 279/4/3
f 281/4/3 279/4/3 278/4/3
f 282/4/3 279/4/3 281/4/3
f 285/2/3 284/2/3 283/2/3
f 287/2/3 286/2/3 285/2/3
f 288/2/3 285/2/3 283/2/3
f 288/2/3 287/2/3 285/2/3
f 289/2/3 287/2/3 288/2/3
f 290/2/4 291/2/4 292/2/4
f 292/2/4 293/2/4 294/2/4
f 290/2/4 292/2/4 295/2/4
f 292/2/4 294/2/4 295/2/4
f 295/2/4 294/2/4 296/2/4
f 297/4/4 298/4/4 299/4/4
f 299/4/4 298/4/4 300/4/4
f 300/4/4 301/4/4 303/4/4
f 303/4/4 301/4/4 304/4/4
f 302/4/4 303/4/4 305/4/4
f 305/4/4 303/4/4 306/4/4
f 307/3/4 308/3/4 311/3/4
f 311/3/4 308/3/4 312/3/4
f 309/3/4 310/3/4 313/3/4
f 313/3/4 310/3/4 314/3/4
f 315/4/4 316/4/4 317/4/4
f 317/4/4 316/4/4 318/4/4
f 318/4/4 316/4/4 319/4/4
f 319/4/4 320/4/4 324/4/4
f 318/4/4 319/4/4 324/4/4
f 324/4/4 320/4/4 325/4/4
f 325/4/4 320/4/4 326/4/4
f 321/4/4 322/4/4 327/4/4
f 327/4/4 322/4/4 328/4/4
f 323/4/4 324/4/4 329/4/4
f 324/4/4 325/4/4 329/4/4
f 329/4/4 325/4/4 330/4/4
f 331/2/4 332/2/4 336/2/4
f 333/3/4 334/3/4 338/3/4
f 334/4/4 335/4/4 339/4/4
f 338/3/4 334/3/4 339/3/4
f 339/4/4 335/4/4 340/4/4
f 337/4/4 338/4/4 341/4/4
f 338/3/4 339/3/4 341/3/4
f 341/3/4 339/3/4 342/3/4
f 336/2/4 337/2/4 345/2/4
f 331/2/4 336/2/4 345/2/4
f 337/4/4 341/4/4 346/4/4
f 345/2/4 337/2/4 346/2/4
f 346/4/4 341/4/4 347/4/4
f 343/4/4 344/4/4 349/4/4
f 349/4/4 344/4/4 350/4/4
f 347/3/4 348/3/4 351/3/4
f 351/3/4 348/3/4 352/3/4
f 353/1/4 354/1/4 358/1/4
f 358/1/4 354/1/4 359/1/4
f 355/4/4 356/4/4 360/4/4
f 360/4/4 356/4/4 361/4/4
f 357/1/4 358/1/4 362/1/4
f 362/1/4 358/1/4 363/1/4
f 363/1/4 364/1/4 367/1/4
f 367/1/4 364/1/4 368/1/4
f 365/4/4 366/4/4 369/4/4
f 369/4/4 366/4/4 370/4/4
f 371/4/4 372/4/4 374/4/4
f 374/4/4 372/4/4 375/4/4
f 373/1/4 374/1/4 377/1/4
f 375/4/4 376/4/4 378/4/4
f 377/1/4 374/1/4 378/1/4
f 374/4/4 375/4/4 378/4/4
f 378/4/4 376/4/4 379/4/4
f 379/4/4 376/4/4 380/4/4
f 378/4/4 379/4/4 381/4/4
f 381/4/4 379/4/4 382/4/4
f 385/2/5 384/2/5 383/2/5
f 386/2/5 384/2/5 385/2/5
f 389/2/5 388/2/5 387/2/5
f 390/2/5 388/2/5 389/2/5
f 394/4/5 392/4/5 391/4/5
f 395/2/5 393/2/5 392/2/5
f 395/4/5 392/4/5 394/4/5
f 396/2/5 393/2/5 395/2/5
f 401/3/5 398/3/5 397/3/5
f 402/3/5 398/3/5 401/3/5
f 403/4/5 400/4/5 399/4/5
f 404/4/5 400/4/5 403/4/5
f 409/1/5 406/1/5 405/1/5
f 410/1/5 406/1/5 409/1/5
f 412/3/5 408/3/5 407/3/5
f 413/3/5 408/3/5 412/3/5
f 414/3/5 411/3/5 410/3/5
f 415/3/5 411/3/5 414/3/5
f 420/3/5 417/3/5 416/3/5
f 421/3/5 417/3/5 420/3/5
f 423/3/5 419/3/5 418/3/5
f 424/3/5 419/3/5 423/3/5
f 425/1/5 423/1/5 422/1/5
f 426/1/5 423/1/5 425/1/5
f 430/1/5 428/1/5 427/1/5
f 431/1/5 428/1/5 430/1/5
f 433/1/5 430/1/5 429/1/5
f 434/1/5 430/1/5 433/1/5
f 435/1/5 432/1/5 431/1/5
f 436/1/5 432/1/5 435/1/5
f 441/1/5 438/1/5 437/1/5
f 442/1/5 438/1/5 441/1/5
f 443/1/5 440/1/5 439/1/5
f 444/1/5 440/1/5 443/1/5
f 445/1/5 443/1/5 442/1/5
f 446/1/5 443/1/5 445/1/5
f 451/4/5 448/4/5 447/4/5
f 452/4/5 448/4/5 451/4/5
f 453/4/5 450/4/5 449/4/5
f 454/4/5 450/4/5 453/4/5
f 459/4/5 456/4/5 455/4/5
f 460/4/5 456/4/5 459/4/5
f 461/4/5 458/4/5 457/4/5
f 462/4/5 458/4/5 461/4/5
f 463/2/6 464/2/6 465/2/6
f 465/2/6 464/2/6 466/2/6
f 467/2/6 468/2/6 469/2/6
f 469/2/6 468/2/6 470/2/6
f 471/4/6 472/4/6 473/4/6
f 473/4/6 472/4/6 474/4/6
f 475/4/6 476/4/6 477/4/6
f 477/4/6 476/4/6 478/4/6
f 479/4/6 480/4/6 483/4/6
f 483/4/6 480/4/6 484/4/6
f 481/4/6 482/4/6 485/4/6
f 485/4/6 482/4/6 486/4/6
f 487/3/6 488/3/6 489/3/6
f 489/3/6 488/3/6 490/3/6
f 491/4/6 492/4/6 495/4/6
f 495/4/6 492/4/6 496/4/6
f 493/4/6 494/4/6 497/4/6
f 497/4/6 494/4/6 498/4/6
f 499/4/6 500/4/6 502/4/6
f 502/4/6 500/4/6 503/4/6
f 501/4/6 502/4/6 505/4/6
f 502/3/6 503/3/6 506/3/6
f 505/4/6 502/4/6 506/4/6
f 503/4/6 504/4/6 507/4/6
f 506/3/6 503/3/6 507/3/6
f 507/4/6 504/4/6 508/4/6
f 505/3/6 506/3/6 509/3/6
f 509/3/6 506/3/6 510/3/6
f 507/3/6 508/3/6 511/3/6
f 511/3/6 508/3/6 512/3/6
f 513/3/6 514/3/6 517/3/6
f 517/3/6 514/3/6 518/3/6
f 515/3/6 516/3/6 519/3/6
f 519/3/6 516/3/6 520/3/6
f 517/4/6 518/4/6 521/4/6
f 518/3/6 519/3/6 522/3/6
f 521/4/6 518/4/6 522/4/6
f 519/4/6 520/4/6 523/4/6
f 522/3/6 519/3/6 523/3/6
f 523/4/6 520/4/6 524/4/6
f 522/4/6 523/4/6 525/4/6
f 525/4/6 523/4/6 526/4/6
f 527/4/6 528/4/6 529/4/6
f 529/4/6 528/4/6 530/4/6
f 531/4/6 532/4/6 533/4/6
f 533/4/6 532/4/6 534/4/6
f 535/4/6 536/4/6 539/4/6
f 539/4/6 536/4/6 540/4/6
f 537/4/6 538/4/6 541/4/6
f 541/4/6 538/4/6 542/4/6
f 543/4/6 544/4/6 547/4/6
f 547/4/6 544/4/6 548/4/6
f 545/4/6 546/4/6 549/4/6
f 549/4/6 546/4/6 550/4/6
f 551/4/6 552/4/6 554/4/6
f 554/4/6 552/4/6 555/4/6
f 553/4/6 554/4/6 557/4/6
f 557/4/6 554/4/6 558/4/6
f 555/4/6 556/4/6 559/4/6
f 559/4/6 556/4/6 560/4/6
f 558/4/6 559/4/6 561/4/6
f 561/4/6 559/4/6 562/4/6
f 563/4/6 564/4/6 565/4/6
f 565/4/6 564/4/6 566/4/6
