# MagicaVoxel @ Ephtracy

# group
o 

# material
mtllib CerealBoxWaste.mtl
usemtl palette

# normals
vn -1 0 0
vn 1 0 0
vn 0 0 1
vn 0 0 -1
vn 0 -1 0
vn 0 1 0

# texcoords
vt 0.115234 0.5
vt 0.146484 0.5
vt 0.197266 0.5
vt 0.427734 0.5
vt 0.791016 0.5

# verts
v -0.2 0 0.2
v -0.2 0 -0.3
v -0.2 0.8 0.2
v -0.2 0.8 -0.3
v 0.1 0 0.2
v 0.1 0 0.1
v 0.1 0 -0.2
v 0.1 0 -0.3
v 0.1 0.1 0.2
v 0.1 0.1 0.1
v 0.1 0.1 -0.2
v 0.1 0.1 -0.3
v 0.1 0.2 0.2
v 0.1 0.2 0.1
v 0.1 0.2 0
v 0.1 0.2 -0.2
v 0.1 0.2 -0.3
v 0.1 0.3 0
v 0.1 0.3 -0.1
v 0.1 0.4 0.2
v 0.1 0.4 0.1
v 0.1 0.4 -0.1
v 0.1 0.4 -0.2
v 0.1 0.5 0.2
v 0.1 0.5 0.1
v 0.1 0.5 0
v 0.1 0.5 -0.2
v 0.1 0.5 -0.3
v 0.1 0.6 0.1
v 0.1 0.6 0
v 0.1 0.6 -0.1
v 0.1 0.6 -0.2
v 0.1 0.6 -0.3
v 0.1 0.7 -0.1
v 0.1 0.7 -0.2
v 0.1 0.8 0.2
v 0.1 0.8 -0.3
v -0.2 0 0.2
v -0.2 0.8 0.2
v 0 0.1 0.2
v 0 0.2 0.2
v 0 0.4 0.2
v 0 0.5 0.2
v 0.1 0 0.2
v 0.1 0.1 0.2
v 0.1 0.2 0.2
v 0.1 0.4 0.2
v 0.1 0.5 0.2
v 0.1 0.8 0.2
v -0.2 0 -0.3
v -0.2 0.8 -0.3
v 0 0.1 -0.3
v 0 0.2 -0.3
v 0 0.5 -0.3
v 0 0.6 -0.3
v 0.1 0 -0.3
v 0.1 0.1 -0.3
v 0.1 0.2 -0.3
v 0.1 0.5 -0.3
v 0.1 0.6 -0.3
v 0.1 0.8 -0.3
v -0.2 0 0.2
v 0.1 0 0.2
v 0 0 0.1
v 0.1 0 0.1
v 0 0 -0.2
v 0.1 0 -0.2
v -0.2 0 -0.3
v 0.1 0 -0.3
v -0.2 0.8 0.2
v 0.1 0.8 0.2
v -0.2 0.8 -0.3
v 0.1 0.8 -0.3

# faces
f 3/2/1 2/2/1 1/2/1
f 4/2/1 2/2/1 3/2/1
f 5/2/2 6/2/2 9/2/2
f 6/1/2 7/1/2 10/1/2
f 9/2/2 6/2/2 10/2/2
f 7/2/2 8/2/2 11/2/2
f 10/1/2 7/1/2 11/1/2
f 11/2/2 8/2/2 12/2/2
f 9/1/2 10/1/2 13/1/2
f 10/3/2 11/3/2 14/3/2
f 13/1/2 10/1/2 14/1/2
f 14/3/2 11/3/2 15/3/2
f 11/1/2 12/1/2 16/1/2
f 15/3/2 11/3/2 16/3/2
f 16/1/2 12/1/2 17/1/2
f 14/4/2 15/4/2 18/4/2
f 15/2/2 16/2/2 18/2/2
f 16/2/2 17/2/2 18/2/2
f 18/2/2 17/2/2 19/2/2
f 13/2/2 14/2/2 20/2/2
f 14/4/2 18/4/2 21/4/2
f 20/2/2 14/2/2 21/2/2
f 18/4/2 19/4/2 21/4/2
f 19/2/2 17/2/2 22/2/2
f 21/4/2 19/4/2 22/4/2
f 22/2/2 17/2/2 23/2/2
f 20/5/2 21/5/2 24/5/2
f 21/5/2 22/5/2 24/5/2
f 22/5/2 23/5/2 24/5/2
f 24/5/2 23/5/2 25/5/2
f 25/5/2 23/5/2 26/5/2
f 23/2/2 17/2/2 27/2/2
f 26/5/2 23/5/2 27/5/2
f 27/2/2 17/2/2 28/2/2
f 25/5/2 26/5/2 29/5/2
f 24/2/2 25/2/2 29/2/2
f 26/4/2 27/4/2 30/4/2
f 29/5/2 26/5/2 30/5/2
f 30/4/2 27/4/2 31/4/2
f 27/5/2 28/5/2 32/5/2
f 31/4/2 27/4/2 32/4/2
f 32/5/2 28/5/2 33/5/2
f 30/2/2 31/2/2 34/2/2
f 29/2/2 30/2/2 34/2/2
f 31/4/2 32/4/2 34/4/2
f 32/2/2 33/2/2 35/2/2
f 34/4/2 32/4/2 35/4/2
f 24/2/2 29/2/2 36/2/2
f 29/2/2 34/2/2 36/2/2
f 34/2/2 35/2/2 36/2/2
f 35/2/2 33/2/2 37/2/2
f 36/2/2 35/2/2 37/2/2
f 40/2/3 39/2/3 38/2/3
f 41/2/3 39/2/3 40/2/3
f 42/2/3 39/2/3 41/2/3
f 43/2/3 39/2/3 42/2/3
f 44/2/3 40/2/3 38/2/3
f 45/1/3 41/1/3 40/1/3
f 45/2/3 40/2/3 44/2/3
f 46/2/3 42/2/3 41/2/3
f 46/1/3 41/1/3 45/1/3
f 47/5/3 43/5/3 42/5/3
f 47/2/3 42/2/3 46/2/3
f 48/2/3 39/2/3 43/2/3
f 48/5/3 43/5/3 47/5/3
f 49/2/3 39/2/3 48/2/3
f 50/2/4 51/2/4 52/2/4
f 52/2/4 51/2/4 53/2/4
f 53/2/4 51/2/4 54/2/4
f 54/2/4 51/2/4 55/2/4
f 50/2/4 52/2/4 56/2/4
f 52/1/4 53/1/4 57/1/4
f 56/2/4 52/2/4 57/2/4
f 53/2/4 54/2/4 58/2/4
f 57/1/4 53/1/4 58/1/4
f 54/5/4 55/5/4 59/5/4
f 58/2/4 54/2/4 59/2/4
f 55/2/4 51/2/4 60/2/4
f 59/5/4 55/5/4 60/5/4
f 60/2/4 51/2/4 61/2/4
f 64/2/5 63/2/5 62/2/5
f 65/2/5 63/2/5 64/2/5
f 66/2/5 64/2/5 62/2/5
f 66/1/5 65/1/5 64/1/5
f 67/1/5 65/1/5 66/1/5
f 68/2/5 66/2/5 62/2/5
f 68/2/5 67/2/5 66/2/5
f 69/2/5 67/2/5 68/2/5
f 70/2/6 71/2/6 72/2/6
f 72/2/6 71/2/6 73/2/6
