# MagicaVoxel @ Ephtracy

# group
o 

# material
mtllib MIlkBoxWaste.mtl
usemtl palette

# normals
vn -1 0 0
vn 1 0 0
vn 0 0 1
vn 0 0 -1
vn 0 -1 0
vn 0 1 0

# texcoords
vt 0.103516 0.5
vt 0.138672 0.5
vt 0.166016 0.5
vt 0.736328 0.5
vt 0.990234 0.5
vt 0.994141 0.5

# verts
v -0.2 0 0.2
v -0.2 0 -0.2
v -0.2 0.1 0.2
v -0.2 0.1 -0.2
v -0.2 0.4 -0.1
v -0.2 0.4 -0.2
v -0.2 0.5 0.2
v -0.2 0.5 -0.1
v -0.2 0.6 -0.1
v -0.2 0.6 -0.2
v -0.2 0.7 0.2
v -0.2 0.7 0.1
v -0.2 0.7 0
v -0.2 0.7 -0.1
v -0.2 0.8 0.1
v -0.2 0.8 0
v 0.3 0 0.2
v 0.3 0 -0.2
v 0.3 0.1 0.2
v 0.3 0.1 -0.2
v 0.3 0.4 -0.1
v 0.3 0.4 -0.2
v 0.3 0.5 0.2
v 0.3 0.5 -0.1
v 0.3 0.6 -0.1
v 0.3 0.6 -0.2
v 0.3 0.7 0.2
v 0.3 0.7 0.1
v 0.3 0.7 0
v 0.3 0.7 -0.1
v 0.3 0.8 0.1
v 0.3 0.8 0
v -0.2 0 0.2
v -0.2 0.1 0.2
v -0.2 0.5 0.2
v -0.2 0.7 0.2
v 0.3 0 0.2
v 0.3 0.1 0.2
v 0.3 0.5 0.2
v 0.3 0.7 0.2
v -0.2 0.7 0.1
v -0.2 0.8 0.1
v 0.3 0.7 0.1
v 0.3 0.8 0.1
v -0.2 0.7 0
v -0.2 0.8 0
v 0.3 0.7 0
v 0.3 0.8 0
v -0.2 0.6 -0.1
v -0.2 0.7 -0.1
v -0.1 0.6 -0.1
v 0.2 0.6 -0.1
v 0.3 0.6 -0.1
v 0.3 0.7 -0.1
v -0.2 0 -0.2
v -0.2 0.1 -0.2
v -0.2 0.4 -0.2
v -0.2 0.6 -0.2
v -0.1 0.1 -0.2
v -0.1 0.2 -0.2
v -0.1 0.3 -0.2
v -0.1 0.4 -0.2
v -0.1 0.5 -0.2
v -0.1 0.6 -0.2
v 0 0.1 -0.2
v 0 0.2 -0.2
v 0 0.3 -0.2
v 0 0.4 -0.2
v 0.1 0.1 -0.2
v 0.1 0.2 -0.2
v 0.1 0.3 -0.2
v 0.1 0.4 -0.2
v 0.2 0.1 -0.2
v 0.2 0.2 -0.2
v 0.2 0.3 -0.2
v 0.2 0.4 -0.2
v 0.2 0.5 -0.2
v 0.2 0.6 -0.2
v 0.3 0 -0.2
v 0.3 0.1 -0.2
v 0.3 0.4 -0.2
v 0.3 0.6 -0.2
v -0.2 0 0.2
v 0.3 0 0.2
v -0.2 0 -0.2
v 0.3 0 -0.2
v -0.2 0.6 -0.1
v -0.1 0.6 -0.1
v 0.2 0.6 -0.1
v 0.3 0.6 -0.1
v -0.2 0.6 -0.2
v -0.1 0.6 -0.2
v 0.2 0.6 -0.2
v 0.3 0.6 -0.2
v -0.2 0.7 0.2
v 0.3 0.7 0.2
v -0.2 0.7 0.1
v 0.3 0.7 0.1
v -0.2 0.7 0
v 0.3 0.7 0
v -0.2 0.7 -0.1
v 0.3 0.7 -0.1
v -0.2 0.8 0.1
v 0.3 0.8 0.1
v -0.2 0.8 0
v 0.3 0.8 0

# faces
f 3/4/1 2/4/1 1/4/1
f 4/4/1 2/4/1 3/4/1
f 5/1/1 4/1/1 3/1/1
f 6/1/1 4/1/1 5/1/1
f 7/1/1 5/1/1 3/1/1
f 8/5/1 6/5/1 5/5/1
f 8/1/1 5/1/1 7/1/1
f 9/4/1 8/4/1 7/4/1
f 9/5/1 6/5/1 8/5/1
f 10/5/1 6/5/1 9/5/1
f 11/4/1 9/4/1 7/4/1
f 12/4/1 9/4/1 11/4/1
f 13/4/1 9/4/1 12/4/1
f 14/4/1 9/4/1 13/4/1
f 15/4/1 13/4/1 12/4/1
f 16/4/1 13/4/1 15/4/1
f 17/4/2 18/4/2 19/4/2
f 19/4/2 18/4/2 20/4/2
f 19/1/2 20/1/2 21/1/2
f 21/1/2 20/1/2 22/1/2
f 19/1/2 21/1/2 23/1/2
f 21/5/2 22/5/2 24/5/2
f 23/1/2 21/1/2 24/1/2
f 23/4/2 24/4/2 25/4/2
f 24/5/2 22/5/2 25/5/2
f 25/5/2 22/5/2 26/5/2
f 23/4/2 25/4/2 27/4/2
f 27/4/2 25/4/2 28/4/2
f 28/4/2 25/4/2 29/4/2
f 29/4/2 25/4/2 30/4/2
f 28/4/2 29/4/2 31/4/2
f 31/4/2 29/4/2 32/4/2
f 37/4/3 34/4/3 33/4/3
f 38/1/3 35/1/3 34/1/3
f 38/4/3 34/4/3 37/4/3
f 39/4/3 36/4/3 35/4/3
f 39/1/3 35/1/3 38/1/3
f 40/4/3 36/4/3 39/4/3
f 43/4/3 42/4/3 41/4/3
f 44/4/3 42/4/3 43/4/3
f 45/4/4 46/4/4 47/4/4
f 47/4/4 46/4/4 48/4/4
f 49/4/4 50/4/4 51/4/4
f 51/4/4 50/4/4 52/4/4
f 52/4/4 50/4/4 53/4/4
f 53/4/4 50/4/4 54/4/4
f 55/4/4 56/4/4 59/4/4
f 56/1/4 57/1/4 59/1/4
f 59/1/4 57/1/4 60/1/4
f 60/1/4 57/1/4 61/1/4
f 57/5/4 58/5/4 62/5/4
f 61/1/4 57/1/4 62/1/4
f 62/5/4 58/5/4 63/5/4
f 63/5/4 58/5/4 64/5/4
f 55/4/4 59/4/4 65/4/4
f 59/3/4 60/3/4 65/3/4
f 60/1/4 61/1/4 66/1/4
f 65/3/4 60/3/4 66/3/4
f 61/6/4 62/6/4 67/6/4
f 66/1/4 61/1/4 67/1/4
f 62/1/4 63/1/4 68/1/4
f 67/6/4 62/6/4 68/6/4
f 55/4/4 65/4/4 69/4/4
f 65/2/4 66/2/4 69/2/4
f 67/1/4 68/1/4 70/1/4
f 69/2/4 66/2/4 70/2/4
f 66/1/4 67/1/4 70/1/4
f 70/1/4 68/1/4 71/1/4
f 68/1/4 63/1/4 72/1/4
f 71/1/4 68/1/4 72/1/4
f 55/4/4 69/4/4 73/4/4
f 69/3/4 70/3/4 73/3/4
f 70/1/4 71/1/4 74/1/4
f 73/3/4 70/3/4 74/3/4
f 71/6/4 72/6/4 75/6/4
f 74/1/4 71/1/4 75/1/4
f 72/1/4 63/1/4 76/1/4
f 75/6/4 72/6/4 76/6/4
f 63/4/4 64/4/4 77/4/4
f 76/1/4 63/1/4 77/1/4
f 77/4/4 64/4/4 78/4/4
f 55/4/4 73/4/4 79/4/4
f 75/1/4 76/1/4 80/1/4
f 79/4/4 73/4/4 80/4/4
f 74/1/4 75/1/4 80/1/4
f 73/1/4 74/1/4 80/1/4
f 77/5/4 78/5/4 81/5/4
f 80/1/4 76/1/4 81/1/4
f 76/5/4 77/5/4 81/5/4
f 81/5/4 78/5/4 82/5/4
f 85/4/5 84/4/5 83/4/5
f 86/4/5 84/4/5 85/4/5
f 87/5/6 88/5/6 91/5/6
f 88/4/6 89/4/6 92/4/6
f 91/5/6 88/5/6 92/5/6
f 89/5/6 90/5/6 93/5/6
f 92/4/6 89/4/6 93/4/6
f 93/5/6 90/5/6 94/5/6
f 95/4/6 96/4/6 97/4/6
f 97/4/6 96/4/6 98/4/6
f 99/4/6 100/4/6 101/4/6
f 101/4/6 100/4/6 102/4/6
f 103/4/6 104/4/6 105/4/6
f 105/4/6 104/4/6 106/4/6
